<svg xmlns="http://www.w3.org/2000/svg" version="1.1" xmlns:xlink="http://www.w3.org/1999/xlink" xmlns:svgjs="http://svgjs.dev/svgjs" viewBox="0 0 800 800"><defs><filter id="uuunion-blur" x="-100%" y="-100%" width="400%" height="400%" color-interpolation-filters="sRGB">
        <feGaussianBlur in="SourceGraphic" stdDeviation="7.5 0" result="blur"></feGaussianBlur>
        <feDropShadow stdDeviation="12.307692307692308" in="blur" dx="10" dy="10" flood-color="hsl(332, 84%, 84%)" flood-opacity="0.25" x="0%" y="0%" width="100%" height="100%"></feDropShadow>
      </filter><filter id="uuunion-blur2" x="-100%" y="-100%" width="400%" height="400%" color-interpolation-filters="sRGB">
        <feGaussianBlur in="SourceGraphic" stdDeviation="7.5 0" result="blur"></feGaussianBlur>
        <feDropShadow stdDeviation="12.307692307692308" in="blur" dx="-10" dy="-10" flood-color="hsl(332, 84%, 84%)" flood-opacity="0.25" x="0%" y="0%" width="100%" height="100%"></feDropShadow>
      </filter><linearGradient gradientTransform="rotate(0, 0.5, 0.5)" x1="50%" y1="0%" x2="50%" y2="100%" id="uuunion-grad"><stop stop-color="hsl(184, 73%, 70%)" offset="10%"></stop><stop stop-color="hsl(332, 84%, 84%)" offset="90%"></stop></linearGradient><linearGradient gradientTransform="rotate(135, 0.5, 0.5)" x1="50%" y1="0%" x2="50%" y2="100%" id="uuunion-grad2"><stop stop-color="hsl(184, 73%, 70%)" offset="25%"></stop><stop stop-color="hsl(332, 84%, 84%)" offset="100%"></stop></linearGradient><linearGradient gradientTransform="rotate(333, 0.5, 0.5)" x1="50%" y1="0%" x2="50%" y2="100%" id="uuunion-grad3"><stop stop-color="hsl(184, 73%, 70%)" offset="0%"></stop><stop stop-color="hsl(332, 84%, 84%)" offset="75%"></stop></linearGradient></defs><path d="M-79.05 -78.12Q-64.39 -76.02 -49.73 -74.17 -35.06 -72.7 -20.4 -71.7 -5.74 -71.23 8.91 -71.32 23.57 -71.97 38.23 -73.14 52.89 -74.75 67.55 -76.7 82.21 -78.85 96.88 -81.08 111.54 -83.25 126.2 -85.2 140.86 -86.82 155.52 -87.99 170.18 -88.66 184.84 -88.77 199.5 -88.31 214.16 -87.32 228.83 -85.86 243.49 -84.02 258.15 -81.92 272.81 -79.7 287.47 -77.5 302.13 -75.46 316.79 -73.71 331.45 -72.36 346.12 -71.51 360.78 -71.2 375.44 -71.45 390.1 -72.26 404.76 -73.56 419.42 -75.28 434.08 -77.3 448.74 -79.49 463.4 -81.72 478.07 -83.83 492.73 -85.7 507.39 -87.2 522.05 -88.24 536.71 -88.75 551.37 -88.69 566.03 -88.08 580.69 -86.95 595.36 -85.37 610.02 -83.44 624.68 -81.29 639.34 -79.06 654 -76.89 668.66 -74.92 683.32 -73.28 697.98 -72.06 712.64 -71.36 727.31 -71.21 741.97 -71.63 756.63 -72.58 771.29 -74.01 785.95 -75.83 800.61 -77.91 815.27 -80.13 829.93 -82.34 844.59 -84.4 859.26 -86.17 856.13 -71.33 856.67 -56.49 860.81 -41.65 867.89 -26.8 876.83 -11.96 886.26 2.87 894.73 17.71 900.93 32.55 903.91 47.4 903.21 62.24 898.94 77.08 891.76 91.92 882.77 106.77 873.35 121.61 864.95 136.45 858.87 151.29 856.03 166.13 856.88 180.98 861.29 195.82 868.57 210.66 877.61 225.5 887.02 240.34 895.34 255.19 901.31 270.03 904 284.87 902.99 299.71 898.45 314.55 891.07 329.4 881.99 344.24 872.6 359.08 864.34 373.92 858.5 388.76 855.96 403.61 857.12 418.45 861.8 433.29 869.27 448.13 878.4 462.97 887.77 477.82 895.94 492.66 901.66 507.5 904.05 522.34 902.74 537.18 897.93 552.03 890.36 566.87 881.2 581.71 871.85 596.55 863.76 611.4 858.16 626.24 855.92 641.08 857.38 655.92 862.32 670.76 869.98 685.61 879.18 700.45 888.51 715.29 896.52 730.13 902 744.97 904.09 759.82 902.47 774.66 897.4 789.5 889.65 804.34 880.42 819.18 871.12 834.03 863.18 848.87 857.84 863.71 843.2 868.39 828.56 873.82 813.92 879.64 799.28 885.48 784.65 890.98 770.01 895.76 755.37 899.54 740.73 902.05 726.09 903.15 711.46 902.76 696.82 900.91 682.18 897.71 667.54 893.37 652.9 888.18 638.27 882.45 623.63 876.57 608.99 870.91 594.35 865.83 579.71 861.67 565.08 858.68 550.44 857.06 535.8 856.92 521.16 858.26 506.52 861 491.89 864.95 477.25 869.88 462.61 875.46 447.97 881.33 433.33 887.11 418.7 892.43 404.06 896.96 389.42 900.39 374.78 902.52 360.15 903.19 345.51 902.38 330.87 900.12 316.23 896.57 301.59 891.96 286.96 886.58 272.32 880.77 257.68 874.91 243.04 869.38 228.4 864.54 213.77 860.68 199.13 858.07 184.49 856.87 169.85 857.15 155.21 858.9 140.58 862.01 125.94 866.28 111.3 871.43 96.66 877.12 82.02 883.01 67.39 888.69 52.75 893.82 38.11 898.06 23.47 901.14 8.83 902.86 -5.79 903.11 -20.43 901.87 -35.07 899.23 -49.71 895.35 -64.35 890.48 -78.98 884.94 -79.23 869.89 -79.59 854.85 -80.01 839.8 -80.44 824.75 -80.79 809.7 -81.02 794.65 -81.09 779.61 -81 764.56 -80.75 749.51 -80.38 734.46 -79.96 719.41 -79.54 704.37 -79.19 689.32 -78.96 674.27 -78.9 659.22 -79 644.17 -79.25 629.13 -79.62 614.08 -80.05 599.03 -80.47 583.98 -80.81 568.93 -81.03 553.89 -81.09 538.84 -80.98 523.79 -80.72 508.74 -80.35 493.69 -79.92 478.65 -79.51 463.6 -79.16 448.55 -78.95 433.5 -78.9 418.45 -79.01 403.41 -79.28 388.36 -79.66 373.31 -80.09 358.26 -80.5 343.21 -80.84 328.17 -81.04 313.12 -81.09 298.07 -80.97 283.02 -80.7 267.97 -80.32 252.93 -79.89 237.88 -79.47 222.83 -79.14 207.78 -78.94 192.73 -78.9 177.69 -79.03 162.64 -79.31 147.59 -79.69 132.54 -80.12 117.49 -80.53 102.45 -80.86 87.4 -81.05 72.35 -81.09 57.3 -80.95 42.26 -80.67 27.21 -80.28 12.16 -79.85 -2.88 -79.44 -17.93 -79.12 -32.97 -78.93 -48.02 -78.91 -63.07 -79.05 -78.12" fill="url(#uuunion-grad)"></path><path d="M-79.05 -78.12Q-78.91 -63.07 -78.93 -48.02 -79.12 -32.97 -79.44 -17.93 -79.85 -2.88 -80.28 12.16 -80.67 27.21 -80.95 42.26 -81.09 57.3 -81.05 72.35 -80.86 87.4 -80.53 102.45 -80.12 117.49 -79.69 132.54 -79.31 147.59 -79.03 162.64 -78.9 177.69 -78.94 192.73 -79.14 207.78 -79.47 222.83 -79.89 237.88 -80.32 252.93 -80.7 267.97 -80.97 283.02 -81.09 298.07 -81.04 313.12 -80.84 328.17 -80.5 343.21 -80.09 358.26 -79.66 373.31 -79.28 388.36 -79.01 403.41 -69.25 405.99 -59.48 408.41 -49.72 410.59 -39.95 412.46 -30.18 413.97 -20.42 415.08 -2.11 415.93 1.05 415.99 13.34 409.18 25.73 401.69 38.23 393.59 50.85 384.96 63.59 375.92 76.45 366.6 89.43 357.13 102.52 347.66 115.68 338.34 128.91 329.29 142.17 320.64 155.42 312.49 168.65 304.91 181.8 297.97 194.85 291.68 207.77 286.03 220.52 281 233.08 276.51 245.43 272.49 257.56 268.83 269.46 265.4 281.13 262.09 292.58 258.75 303.83 255.27 314.91 251.51 325.86 247.37 336.7 242.77 347.49 237.64 358.28 231.93 369.12 225.63 380.06 218.75 391.17 211.32 402.48 203.41 414.04 195.09 425.91 186.47 438.1 177.65 450.65 168.76 463.57 159.9 476.87 151.19 490.54 142.75 504.55 134.66 518.88 127 533.5 119.82 548.34 113.17 563.35 107.05 578.45 101.44 593.59 96.31 608.67 91.61 623.63 87.24 638.39 83.14 652.86 79.2 666.99 75.3 680.71 71.36 693.98 67.26 706.75 62.91 719 58.23 730.71 53.17 741.9 47.66 752.57 41.69 762.77 35.26 772.54 28.37 781.95 21.07 791.07 13.41 800 5.46 790.22 -12.18 782.48 -29.82 778.39 -47.46 778.8 -65.11 783.63 -82.75 791.87 -100.39 799.02 -126.1 781.14 -133.02 766.03 -132.31 750.92 -132.1 735.81 -132.38 720.71 -133.15 705.6 -134.35 690.49 -135.92 675.38 -137.74 660.27 -139.7 645.16 -141.68 630.06 -143.56 614.95 -145.21 599.84 -146.53 584.73 -147.43 569.62 -147.86 554.51 -147.79 539.41 -147.23 524.3 -146.21 509.19 -144.79 494.08 -143.07 478.97 -141.15 463.86 -139.16 448.76 -137.23 433.65 -135.46 418.54 -133.99 403.43 -132.9 388.32 -132.26 373.21 -132.11 358.11 -132.46 343 -133.28 327.89 -134.54 312.78 -136.14 297.67 -137.99 282.56 -139.96 267.46 -141.94 252.35 -143.79 237.24 -145.4 222.13 -146.67 207.02 -147.51 191.91 -147.88 176.81 -147.75 161.7 -147.12 146.59 -146.04 131.48 -144.58 116.37 -142.83 101.27 -140.89 86.16 -138.9 71.05 -136.98 55.94 -135.25 40.83 -133.82 25.72 -132.79 10.62 -132.21 -4.48 -132.12 -19.59 -132.54 -34.7 -133.43 -49.81 -134.73 -64.92 -136.37 -80.02 -138.24 -95.13 -140.22 -110.24 -142.19 -125.35 -144.02 -134.6 -132.03 -116.49 -113.34 -106.96 -104.63 -97.55 -95.84 -88.25 -86.99 -79.05 -78.12" fill="url(#uuunion-grad2)" filter="url(#uuunion-blur)"></path><path d="M780.37 408.73Q790.14 406.35 799.9 403.78 809.67 401.1 819.44 398.4 829.2 395.73 838.97 393.19 852.35 397.23 857.12 418.45 861.8 433.29 869.27 448.13 878.4 462.97 887.77 477.82 895.94 492.66 901.66 507.5 904.05 522.34 902.74 537.18 897.93 552.03 890.36 566.87 881.2 581.71 871.85 596.55 863.76 611.4 858.16 626.24 855.92 641.08 857.38 655.92 862.32 670.76 869.98 685.61 879.18 700.45 888.51 715.29 896.52 730.13 902 744.97 904.09 759.82 902.47 774.66 897.4 789.5 889.65 804.34 880.42 819.18 871.12 834.03 863.18 848.87 857.84 863.71 844.4 867.97 830.97 872.89 817.54 878.18 804.1 883.58 790.67 888.78 777.24 893.51 763.8 897.5 750.37 900.55 736.94 902.48 723.5 903.19 710.07 902.65 696.64 900.88 683.2 897.97 669.77 894.1 656.34 889.45 642.9 884.3 629.47 878.91 616.03 873.58 602.6 868.6 589.17 864.24 575.73 860.73 562.3 858.26 548.87 856.97 535.43 856.93 522 858.14 508.57 860.53 495.13 863.98 481.7 868.3 468.27 873.25 454.83 878.56 441.4 883.95 427.97 889.13 414.53 893.82 401.1 897.75 387.67 900.72 374.23 902.57 360.8 903.19 347.37 902.56 333.93 900.71 320.5 897.73 307.07 893.79 293.63 889.11 280.2 883.93 266.77 878.53 253.33 873.22 239.9 868.27 226.47 863.96 213.03 860.52 199.6 858.13 186.17 856.93 172.73 856.98 159.3 858.27 145.87 860.74 132.43 864.26 119 868.63 105.57 873.61 92.13 878.94 78.7 884.33 65.27 889.48 51.83 894.12 38.4 897.99 24.97 900.89 4.88 897.85 -1.58 882.89 -1.35 872.74 -1.11 862.59 -0.85 852.44 -0.6 842.29 -0.04 827.07 0.8 822 13.68 815.16 26.58 807.38 39.46 798.72 52.31 789.31 65.09 779.28 77.78 768.82 90.36 758.12 102.81 747.36 115.11 736.77 127.26 726.52 139.26 716.8 151.12 707.76 162.84 699.5 174.44 692.13 185.95 685.66 197.4 680.12 208.82 675.46 220.25 671.6 231.73 668.42 243.3 665.79 255 663.53 266.88 661.47 278.95 659.42 291.25 657.18 303.81 654.59 316.64 651.47 329.75 647.71 343.13 643.19 356.78 637.84 370.67 631.63 384.77 624.57 399.06 616.7 413.48 608.1 427.97 598.89 442.49 589.2 456.98 579.18 471.36 569.02 485.59 558.89 499.6 548.95 513.33 539.38 526.73 530.32 539.78 521.88 552.42 514.16 564.64 507.21 576.44 501.07 587.8 495.71 598.76 491.09 609.34 487.13 619.57 483.71 629.51 480.72 639.23 477.98 648.8 475.36 658.29 472.68 667.79 469.79 677.38 466.53 687.16 462.78 697.2 458.44 707.59 453.42 718.39 447.68 729.67 441.2 741.49 434 753.86 426.13 773.6 413.2 780.37 408.73" fill="url(#uuunion-grad3)" filter="url(#uuunion-blur2)"></path></svg>