<svg xmlns="http://www.w3.org/2000/svg" version="1.1" xmlns:xlink="http://www.w3.org/1999/xlink" xmlns:svgjs="http://svgjs.dev/svgjs" viewBox="0 0 800 800"><g fill="none" stroke-width="3" stroke="hsl(50, 79%, 89%)" stroke-linecap="round"><line x1="437" y1="400" x2="363" y2="400" transform="rotate(0, 400, 400)" opacity="0.82"></line><line x1="204" y1="400" x2="596" y2="400" transform="rotate(4, 400, 400)" opacity="0.67"></line><line x1="732.5" y1="400" x2="67.5" y2="400" transform="rotate(8, 400, 400)" opacity="0.45"></line><line x1="407.5" y1="400" x2="392.5" y2="400" transform="rotate(12, 400, 400)" opacity="0.78"></line><line x1="472" y1="400" x2="328" y2="400" transform="rotate(16, 400, 400)" opacity="0.40"></line><line x1="212.5" y1="400" x2="587.5" y2="400" transform="rotate(20, 400, 400)" opacity="0.64"></line><line x1="50.5" y1="400" x2="749.5" y2="400" transform="rotate(24, 400, 400)" opacity="0.08"></line><line x1="573.5" y1="400" x2="226.5" y2="400" transform="rotate(28, 400, 400)" opacity="0.34"></line><line x1="600.5" y1="400" x2="199.5" y2="400" transform="rotate(32, 400, 400)" opacity="0.34"></line><line x1="479.5" y1="400" x2="320.5" y2="400" transform="rotate(36, 400, 400)" opacity="0.87"></line><line x1="441.5" y1="400" x2="358.5" y2="400" transform="rotate(40, 400, 400)" opacity="0.33"></line><line x1="409" y1="400" x2="391" y2="400" transform="rotate(44, 400, 400)" opacity="0.53"></line><line x1="28.5" y1="400" x2="771.5" y2="400" transform="rotate(48, 400, 400)" opacity="0.73"></line><line x1="696" y1="400" x2="104" y2="400" transform="rotate(52, 400, 400)" opacity="0.60"></line><line x1="624.5" y1="400" x2="175.5" y2="400" transform="rotate(56, 400, 400)" opacity="0.32"></line><line x1="239.5" y1="400" x2="560.5" y2="400" transform="rotate(60, 400, 400)" opacity="0.69"></line><line x1="385" y1="400" x2="415" y2="400" transform="rotate(64, 400, 400)" opacity="0.91"></line><line x1="433" y1="400" x2="367" y2="400" transform="rotate(68, 400, 400)" opacity="0.14"></line><line x1="135" y1="400" x2="665" y2="400" transform="rotate(72, 400, 400)" opacity="0.23"></line><line x1="213" y1="400" x2="587" y2="400" transform="rotate(76, 400, 400)" opacity="0.28"></line><line x1="152" y1="400" x2="648" y2="400" transform="rotate(80, 400, 400)" opacity="0.78"></line><line x1="587" y1="400" x2="213" y2="400" transform="rotate(84, 400, 400)" opacity="0.58"></line><line x1="729" y1="400" x2="71" y2="400" transform="rotate(88, 400, 400)" opacity="0.58"></line><line x1="101" y1="400" x2="699" y2="400" transform="rotate(92, 400, 400)" opacity="0.09"></line><line x1="563" y1="400" x2="237" y2="400" transform="rotate(96, 400, 400)" opacity="0.84"></line><line x1="167.5" y1="400" x2="632.5" y2="400" transform="rotate(100, 400, 400)" opacity="0.45"></line><line x1="720.5" y1="400" x2="79.5" y2="400" transform="rotate(104, 400, 400)" opacity="0.88"></line><line x1="281.5" y1="400" x2="518.5" y2="400" transform="rotate(108, 400, 400)" opacity="0.56"></line><line x1="588" y1="400" x2="212" y2="400" transform="rotate(112, 400, 400)" opacity="0.35"></line><line x1="107.5" y1="400" x2="692.5" y2="400" transform="rotate(116, 400, 400)" opacity="0.42"></line><line x1="550.5" y1="400" x2="249.5" y2="400" transform="rotate(120, 400, 400)" opacity="0.63"></line><line x1="678" y1="400" x2="122" y2="400" transform="rotate(124, 400, 400)" opacity="0.56"></line><line x1="25" y1="400" x2="775" y2="400" transform="rotate(128, 400, 400)" opacity="0.34"></line><line x1="195.5" y1="400" x2="604.5" y2="400" transform="rotate(132, 400, 400)" opacity="0.93"></line><line x1="106" y1="400" x2="694" y2="400" transform="rotate(136, 400, 400)" opacity="0.30"></line><line x1="228.5" y1="400" x2="571.5" y2="400" transform="rotate(140, 400, 400)" opacity="0.46"></line><line x1="372.5" y1="400" x2="427.5" y2="400" transform="rotate(144, 400, 400)" opacity="0.39"></line><line x1="669.5" y1="400" x2="130.5" y2="400" transform="rotate(148, 400, 400)" opacity="0.27"></line><line x1="52" y1="400" x2="748" y2="400" transform="rotate(152, 400, 400)" opacity="0.12"></line><line x1="259" y1="400" x2="541" y2="400" transform="rotate(156, 400, 400)" opacity="0.62"></line><line x1="124.5" y1="400" x2="675.5" y2="400" transform="rotate(160, 400, 400)" opacity="0.47"></line><line x1="474.5" y1="400" x2="325.5" y2="400" transform="rotate(164, 400, 400)" opacity="0.94"></line><line x1="337" y1="400" x2="463" y2="400" transform="rotate(168, 400, 400)" opacity="0.13"></line><line x1="362.5" y1="400" x2="437.5" y2="400" transform="rotate(172, 400, 400)" opacity="0.83"></line><line x1="632.5" y1="400" x2="167.5" y2="400" transform="rotate(176, 400, 400)" opacity="0.23"></line><line x1="222" y1="400" x2="578" y2="400" transform="rotate(180, 400, 400)" opacity="0.10"></line><line x1="207.5" y1="400" x2="592.5" y2="400" transform="rotate(184, 400, 400)" opacity="0.37"></line><line x1="160.5" y1="400" x2="639.5" y2="400" transform="rotate(188, 400, 400)" opacity="0.48"></line><line x1="227.5" y1="400" x2="572.5" y2="400" transform="rotate(192, 400, 400)" opacity="0.19"></line><line x1="468.5" y1="400" x2="331.5" y2="400" transform="rotate(196, 400, 400)" opacity="0.33"></line><line x1="389" y1="400" x2="411" y2="400" transform="rotate(200, 400, 400)" opacity="0.46"></line><line x1="273" y1="400" x2="527" y2="400" transform="rotate(204, 400, 400)" opacity="0.31"></line><line x1="474" y1="400" x2="326" y2="400" transform="rotate(208, 400, 400)" opacity="0.40"></line><line x1="204" y1="400" x2="596" y2="400" transform="rotate(212, 400, 400)" opacity="0.27"></line><line x1="334" y1="400" x2="466" y2="400" transform="rotate(216, 400, 400)" opacity="0.78"></line><line x1="323.5" y1="400" x2="476.5" y2="400" transform="rotate(220, 400, 400)" opacity="0.24"></line><line x1="564" y1="400" x2="236" y2="400" transform="rotate(224, 400, 400)" opacity="0.69"></line><line x1="581.5" y1="400" x2="218.5" y2="400" transform="rotate(228, 400, 400)" opacity="0.10"></line><line x1="466.5" y1="400" x2="333.5" y2="400" transform="rotate(232, 400, 400)" opacity="0.54"></line><line x1="293.5" y1="400" x2="506.5" y2="400" transform="rotate(236, 400, 400)" opacity="0.89"></line><line x1="344" y1="400" x2="456" y2="400" transform="rotate(240, 400, 400)" opacity="0.73"></line><line x1="280" y1="400" x2="520" y2="400" transform="rotate(244, 400, 400)" opacity="0.32"></line><line x1="644" y1="400" x2="156" y2="400" transform="rotate(248, 400, 400)" opacity="0.45"></line><line x1="151" y1="400" x2="649" y2="400" transform="rotate(252, 400, 400)" opacity="0.65"></line><line x1="427" y1="400" x2="373" y2="400" transform="rotate(256, 400, 400)" opacity="0.67"></line><line x1="263.5" y1="400" x2="536.5" y2="400" transform="rotate(260, 400, 400)" opacity="0.50"></line><line x1="216" y1="400" x2="584" y2="400" transform="rotate(264, 400, 400)" opacity="0.59"></line><line x1="639" y1="400" x2="161" y2="400" transform="rotate(268, 400, 400)" opacity="0.59"></line><line x1="638" y1="400" x2="162" y2="400" transform="rotate(272, 400, 400)" opacity="0.95"></line><line x1="312.5" y1="400" x2="487.5" y2="400" transform="rotate(276, 400, 400)" opacity="0.33"></line><line x1="77" y1="400" x2="723" y2="400" transform="rotate(280, 400, 400)" opacity="0.56"></line><line x1="557" y1="400" x2="243" y2="400" transform="rotate(284, 400, 400)" opacity="0.95"></line><line x1="635" y1="400" x2="165" y2="400" transform="rotate(288, 400, 400)" opacity="0.09"></line><line x1="466" y1="400" x2="334" y2="400" transform="rotate(292, 400, 400)" opacity="0.57"></line><line x1="595" y1="400" x2="205" y2="400" transform="rotate(296, 400, 400)" opacity="0.55"></line><line x1="190.5" y1="400" x2="609.5" y2="400" transform="rotate(300, 400, 400)" opacity="0.97"></line><line x1="732.5" y1="400" x2="67.5" y2="400" transform="rotate(304, 400, 400)" opacity="0.11"></line><line x1="700.5" y1="400" x2="99.5" y2="400" transform="rotate(308, 400, 400)" opacity="0.97"></line><line x1="30.5" y1="400" x2="769.5" y2="400" transform="rotate(312, 400, 400)" opacity="0.96"></line><line x1="243" y1="400" x2="557" y2="400" transform="rotate(316, 400, 400)" opacity="0.95"></line><line x1="704" y1="400" x2="96" y2="400" transform="rotate(320, 400, 400)" opacity="0.43"></line><line x1="690" y1="400" x2="110" y2="400" transform="rotate(324, 400, 400)" opacity="0.30"></line><line x1="229.5" y1="400" x2="570.5" y2="400" transform="rotate(328, 400, 400)" opacity="0.72"></line><line x1="247.5" y1="400" x2="552.5" y2="400" transform="rotate(332, 400, 400)" opacity="0.99"></line><line x1="553.5" y1="400" x2="246.5" y2="400" transform="rotate(336, 400, 400)" opacity="0.98"></line><line x1="338" y1="400" x2="462" y2="400" transform="rotate(340, 400, 400)" opacity="0.65"></line><line x1="104" y1="400" x2="696" y2="400" transform="rotate(344, 400, 400)" opacity="0.73"></line><line x1="460" y1="400" x2="340" y2="400" transform="rotate(348, 400, 400)" opacity="0.34"></line></g></svg>