<svg xmlns="http://www.w3.org/2000/svg" version="1.1" xmlns:xlink="http://www.w3.org/1999/xlink" xmlns:svgjs="http://svgjs.dev/svgjs" viewBox="0 0 1422 800"><g stroke-width="1" stroke="hsl(205, 69%, 50%)" fill="none" stroke-linecap="round"><path d="M 0 4500 Q 355.5 400 711 400 Q 1066.5 400 1422 4500" opacity="0.05"></path><path d="M 0 4375 Q 355.5 400 711 400 Q 1066.5 400 1422 4375" opacity="0.08"></path><path d="M 0 4250 Q 355.5 400 711 400 Q 1066.5 400 1422 4250" opacity="0.10"></path><path d="M 0 4125 Q 355.5 400 711 400 Q 1066.5 400 1422 4125" opacity="0.13"></path><path d="M 0 4000 Q 355.5 400 711 400 Q 1066.5 400 1422 4000" opacity="0.16"></path><path d="M 0 3875 Q 355.5 400 711 400 Q 1066.5 400 1422 3875" opacity="0.19"></path><path d="M 0 3750 Q 355.5 400 711 400 Q 1066.5 400 1422 3750" opacity="0.21"></path><path d="M 0 3625 Q 355.5 400 711 400 Q 1066.5 400 1422 3625" opacity="0.24"></path><path d="M 0 3500 Q 355.5 400 711 400 Q 1066.5 400 1422 3500" opacity="0.27"></path><path d="M 0 3375 Q 355.5 400 711 400 Q 1066.5 400 1422 3375" opacity="0.29"></path><path d="M 0 3250 Q 355.5 400 711 400 Q 1066.5 400 1422 3250" opacity="0.32"></path><path d="M 0 3125 Q 355.5 400 711 400 Q 1066.5 400 1422 3125" opacity="0.35"></path><path d="M 0 3000 Q 355.5 400 711 400 Q 1066.5 400 1422 3000" opacity="0.38"></path><path d="M 0 2875 Q 355.5 400 711 400 Q 1066.5 400 1422 2875" opacity="0.40"></path><path d="M 0 2750 Q 355.5 400 711 400 Q 1066.5 400 1422 2750" opacity="0.43"></path><path d="M 0 2625 Q 355.5 400 711 400 Q 1066.5 400 1422 2625" opacity="0.46"></path><path d="M 0 2500 Q 355.5 400 711 400 Q 1066.5 400 1422 2500" opacity="0.48"></path><path d="M 0 2375 Q 355.5 400 711 400 Q 1066.5 400 1422 2375" opacity="0.51"></path><path d="M 0 2250 Q 355.5 400 711 400 Q 1066.5 400 1422 2250" opacity="0.54"></path><path d="M 0 2125 Q 355.5 400 711 400 Q 1066.5 400 1422 2125" opacity="0.57"></path><path d="M 0 2000 Q 355.5 400 711 400 Q 1066.5 400 1422 2000" opacity="0.59"></path><path d="M 0 1875 Q 355.5 400 711 400 Q 1066.5 400 1422 1875" opacity="0.62"></path><path d="M 0 1750 Q 355.5 400 711 400 Q 1066.5 400 1422 1750" opacity="0.65"></path><path d="M 0 1625 Q 355.5 400 711 400 Q 1066.5 400 1422 1625" opacity="0.67"></path><path d="M 0 1500 Q 355.5 400 711 400 Q 1066.5 400 1422 1500" opacity="0.70"></path><path d="M 0 1375 Q 355.5 400 711 400 Q 1066.5 400 1422 1375" opacity="0.73"></path><path d="M 0 1250 Q 355.5 400 711 400 Q 1066.5 400 1422 1250" opacity="0.76"></path><path d="M 0 1125 Q 355.5 400 711 400 Q 1066.5 400 1422 1125" opacity="0.78"></path><path d="M 0 1000 Q 355.5 400 711 400 Q 1066.5 400 1422 1000" opacity="0.81"></path><path d="M 0 875 Q 355.5 400 711 400 Q 1066.5 400 1422 875" opacity="0.84"></path><path d="M 0 750 Q 355.5 400 711 400 Q 1066.5 400 1422 750" opacity="0.86"></path><path d="M 0 625 Q 355.5 400 711 400 Q 1066.5 400 1422 625" opacity="0.89"></path><path d="M 0 500 Q 355.5 400 711 400 Q 1066.5 400 1422 500" opacity="0.92"></path><path d="M 0 375 Q 355.5 400 711 400 Q 1066.5 400 1422 375" opacity="0.95"></path><path d="M 0 250 Q 355.5 400 711 400 Q 1066.5 400 1422 250" opacity="0.97"></path></g></svg>