<?xml version="1.0" encoding="UTF-8" standalone="no"?>
<svg
   version="1.1"
   id="svg2"
   xml:space="preserve"
   width="10.27376cm"
   height="6cm"
   viewBox="0 0 388.29958 226.77165"
   sodipodi:docname="love.svg"
   inkscape:version="1.1.1 (c3084ef, 2021-09-22)"
   xmlns:inkscape="http://www.inkscape.org/namespaces/inkscape"
   xmlns:sodipodi="http://sodipodi.sourceforge.net/DTD/sodipodi-0.dtd"
   xmlns="http://www.w3.org/2000/svg"
   xmlns:svg="http://www.w3.org/2000/svg"
   xmlns:rdf="http://www.w3.org/1999/02/22-rdf-syntax-ns#"
   xmlns:cc="http://creativecommons.org/ns#"
   xmlns:dc="http://purl.org/dc/elements/1.1/"><metadata
     id="metadata8"><rdf:RDF><cc:Work
         rdf:about=""><dc:format>image/svg+xml</dc:format><dc:type
           rdf:resource="http://purl.org/dc/dcmitype/StillImage" /></cc:Work></rdf:RDF></metadata><defs
     id="defs6" /><sodipodi:namedview
     pagecolor="#ffffff"
     bordercolor="#666666"
     borderopacity="1"
     objecttolerance="10"
     gridtolerance="10"
     guidetolerance="10"
     inkscape:pageopacity="0"
     inkscape:pageshadow="2"
     inkscape:window-width="1440"
     inkscape:window-height="900"
     id="namedview4"
     inkscape:pagecheckerboard="0"
     showgrid="false"
     inkscape:zoom="1.1756511"
     inkscape:cx="152.68135"
     inkscape:cy="134.39361"
     inkscape:window-x="0"
     inkscape:window-y="0"
     inkscape:window-maximized="0"
     inkscape:current-layer="g12"
     units="cm"
     inkscape:document-units="cm" /><g
     id="g10"
     inkscape:groupmode="layer"
     inkscape:label="ink_ext_XXXXXX"
     transform="matrix(1.3333333,0,0,-1.3333333,0,3391.5467)"><g
       id="g12"
       transform="scale(0.1)"><g
         id="g1438"
         transform="matrix(0.0590574,0,0,0.0590574,365.86908,23829.416)"><path
           d="m 19715.7,19785.2 c -1067.7,-420.6 -2166.5,-655.9 -3289.3,-453.1 -2106.6,380.6 -3608.7,2185.3 -5392.3,3369.1 -2250.33,1493.4 -5326.06,1974.7 -7666.65,627.1 C 1508.96,22258.3 366.781,20183.4 81.832,18057.9 -203.113,15932.4 285.262,13764.4 1094.4,11778.4 3049.95,6978.6 7023.24,3108.3 11758.8,1030 20451,-590.801 29979.3,3761.2 34380.7,11447.1 c 1702.3,2972.7 2573.2,6980.3 429.2,9652 -1380.7,1720.6 -3739,2437.1 -5939.7,2283.2 -2200.6,-153.8 -4276.7,-1066.1 -6214.7,-2120 -948,-515.6 -1930,-1079.2 -2939.8,-1477.1"
           style="fill:#ffffff;fill-opacity:1;fill-rule:nonzero;stroke:none"
           id="path14" /><path
           d="m 22285.4,3219.1 c 0,467.9 -909.6,6602 -1230.8,7641.1 -39.8,128.6 -96.8,270.8 -175.8,381.5 -53.3,74.8 -720.1,560.9 -785.6,500.3 -712.8,-658.6 -901.2,-1927.1 -881.1,-2882.7 22.5,-1070.6 614.9,-5441.8 1083,-6054.2 468.1,-612.3 1990.3,-638.7 1990.3,414"
           style="fill:#f1c1a4;fill-opacity:1;fill-rule:nonzero;stroke:none"
           id="path16" /><path
           d="m 19424.2,10097.7 -600,7970.1 c -54.1,1194.8 -1075.9,2128.1 -2270.8,2074 l -2458.7,-111.4 c -1194.8,-54.1 -2530.4,-952.8 -2476.2,-2147.6 l -385,-8706.4 c 54.1,-1194.7 8244.9,-273.5 8190.7,921.3"
           style="fill:#362128;fill-opacity:1;fill-rule:nonzero;stroke:none"
           id="path18" /><path
           d="m 10193.7,3607.1 c 72.4,691.7 1039.4,6325.6 1482.8,7318.7 54.9,123 128.5,257.3 220.1,357.7 62,67.9 722.2,545.2 780,477.2 628.7,-739.2 723.8,-2095.8 589.5,-3042.1 -150.6,-1060.2 -786.7,-5292.4 -1324.8,-5844.2 -538,-551.9 -1848.4,-229.6 -1747.6,732.7"
           style="fill:#f1c1a4;fill-opacity:1;fill-rule:nonzero;stroke:none"
           id="path20" /><path
           d="m 20542.8,5820.1 c 440.2,352.2 864.1,688.4 1236.1,1079.8 -156.9,1006.3 -326.5,2030.3 -471.7,2804.4 -177.5,-224.5 -402.4,-404.3 -674.7,-506.5 -491.5,-184.3 -954.9,-3.8 -1409.5,195.4 -11.3,-184.4 -14.5,-364.1 -10.9,-533.9 22.5,-1070.6 614.9,-5441.8 1083,-6054.2 290.1,-379.5 985.3,-533.8 1471.9,-345.7 -106.8,1000.4 -672.1,1980.3 -1373.7,2703.1 -119.5,119.6 -59.7,478.3 149.5,657.6"
           style="fill:#e29d72;fill-opacity:1;fill-rule:nonzero;stroke:none"
           id="path22" /><path
           d="m 12173.2,8121.8 c -481.5,0 -787,337.3 -1039.8,724.2 -149,-702.8 -301.8,-1491.5 -439.9,-2242 295,-561.9 746.4,-938.9 1390.8,-938.9 l 88.9,-412.9 c -968.9,-371.1 -1582.2,-1282.5 -1801,-2273.3 363.9,-443.7 1174.4,-509.4 1569.1,-104.5 481.2,493.5 1040.6,3929.4 1261.3,5409 -328.4,-119.9 -678.9,-174.6 -1029.4,-161.6"
           style="fill:#e29d72;fill-opacity:1;fill-rule:nonzero;stroke:none"
           id="path24" /><path
           d="m 12360.1,2974.3 c 0,0 8308.3,-974.5 7987.7,102.1 -718.6,1126.4 -2114,1183.4 -3613.9,690.3 -1499.8,-493.1 -4373.8,-792.4 -4373.8,-792.4"
           style="fill:#a39692;fill-opacity:1;fill-rule:nonzero;stroke:none"
           id="path26" /><path
           d="m 13960.5,11227 c -14.9,-833.2 1471.9,-4161.1 2293.2,-4175.7 821.2,-14.7 2352.4,3259.2 2367.3,4092.4 14.9,833.3 -1031.1,704.4 -2318,727.4 -1287,23.1 -2327.6,189.2 -2342.5,-644.1"
           style="fill:#f1c1a4;fill-opacity:1;fill-rule:nonzero;stroke:none"
           id="path28" /><path
           d="m 16254.2,9609.2 v 0 c 869.4,-15.5 1916.4,617.3 1933,1546.8 l -679.8,2759.5 c 16.5,922.7 -2335.2,964.8 -2351.7,42.1 l -778.1,-2733.5 c -16.6,-929.5 1007.1,-1599.4 1876.6,-1614.9"
           style="fill:#f1c1a4;fill-opacity:1;fill-rule:nonzero;stroke:none"
           id="path30" /><path
           d="m 15155.7,13957.6 -207.4,-728.7 c 245,-354.7 639.3,-646.9 1085.8,-730.7 604,-100.6 1234.9,-38.2 1765.3,232.2 l -292,1185.1 c 16.5,922.7 -2335.2,964.8 -2351.7,42.1"
           style="fill:#c87652;fill-opacity:1;fill-rule:nonzero;stroke:none"
           id="path32" /><path
           d="M 13141.6,1223.7 C 13034.7,805.699 12887.8,379.602 12746.5,0 h 6178 c -109.5,366.102 -190.4,778.102 -182.8,1204.7 23,1281.6 900.1,3150.6 1005.8,3724.8 112.3,610.4 934.1,2617.2 624.6,4041.2 0,0 -376.4,1476.7 -447.7,2148.6 -629.5,821 -1021.8,1035.1 -2057.2,1393.2 l 106.7,-1340.5 c -241.9,-988.3 -1761,-2142.6 -1761,-2142.6 0,0 -1444.6,1161.5 -1636.2,2144.8 l 262.6,1392.6 c -1047.5,-320.9 -1541.2,-519.1 -2199.6,-1317.1 -95.2,-669 -524.2,-2131.2 -524.2,-2131.2 -359.6,-1694.8 389.4,-3447 479.8,-4061 85.1,-577.6 837.3,-2696.4 546.3,-3833.8"
           style="fill:#f1c1a4;fill-opacity:1;fill-rule:nonzero;stroke:none"
           id="path34" /><path
           d="m 13141.6,1223.7 c -17.3,-67.6 -35.7,-135.4 -54.9,-203.3 206.6,437.8 356.4,917 696,1221.3 1320.5,1117.7 3575.1,1100.7 4277.9,833.1 529.2,-201.5 470.3,-927.5 449.3,-1258.4 -39,-610.6 -43.6,-1147.298 37.5,-1816.4 h 377.1 c -109.5,366.102 -190.4,778.102 -182.8,1204.7 23,1281.6 900.1,3150.6 1005.8,3724.8 112.3,610.4 934.1,2617.2 624.6,4041.2 0,0 -376.4,1476.7 -447.7,2148.6 -629.5,821 -859.3,978.1 -1894.7,1336.2 l -55.8,-1283.5 c -241.9,-988.3 -1761,-2142.6 -1761,-2142.6 0,0 -1444.6,1161.5 -1636.2,2144.8 l 110.2,1345.4 c -1047.5,-320.9 -1388.8,-471.9 -2047.2,-1269.9 -95.2,-668.9 -524.2,-2131.2 -524.2,-2131.2 -359.6,-1694.8 389.4,-3447 479.8,-4061 85.1,-577.6 837.3,-2696.4 546.3,-3833.8"
           style="fill:#e29d72;fill-opacity:1;fill-rule:nonzero;stroke:none"
           id="path36" /><path
           d="m 17908.8,12576.3 c 890,-180.3 1752.9,-480.5 2454.2,-889.8 266.6,-1213.5 530.4,-2578 797,-3791.6 56.2,-255.8 112.7,-517.4 81.9,-777.5 -70,-589.7 -553.6,-1016.8 -1047.8,-1369 -234.6,-744.9 -172.7,-1963.9 155.2,-2673.6 -114.9,135 -561.8,637.6 -1634,656.8 -1976.9,35.3 -3355.4,-662.6 -5059.2,-792.7 -371.9,-28.4 -1070.4,-28.5 -1429.6,62.9 472,1119.3 129.1,2021.5 -55.7,3020.5 -300.1,433.6 -423.3,994.3 -410.7,1529.5 16.6,700.4 233.3,1378.1 421.8,2052.9 180.3,645.4 389.8,1496 321.1,2160.7 654.6,409.6 1470.2,626.3 2197.1,868.3 0,0 661.8,-2710.6 1714.9,-2729.4 1053.2,-18.8 1493.8,2672 1493.8,2672"
           style="fill:#faf4f3;fill-opacity:1;fill-rule:nonzero;stroke:none"
           id="path38" /><path
           d="m 19601.7,5129.2 c -74.4,293.3 -748.1,153.8 -1090.2,319.2 856.2,382.8 2079.1,493.7 2441.1,1442.7 248.8,553 -5.2,1194.5 -100.4,1806.7 -29.7,278.2 -70.6,567.9 -41.3,852.9 116.2,-564 232.4,-1124.3 349.1,-1655.8 56.2,-255.8 112.7,-517.4 81.9,-777.5 -70,-589.7 -553.6,-1016.8 -1047.8,-1369 -234.6,-744.9 -172.7,-1963.9 155.2,-2673.6 -77.3,90.8 -305.3,347.9 -772.3,512.3 45.1,561.9 155.9,1002.2 24.7,1542.1"
           style="fill:#e0cdc9;fill-opacity:1;fill-rule:nonzero;stroke:none"
           id="path40" /><path
           d="m 11760.1,7551.8 c 16.6,700.4 233.3,1378.1 421.8,2052.9 1.8,6.6 3.7,13.3 5.5,20 55.7,-175.7 103.7,-372.7 72.1,-534.4 -196.1,-1003.4 -524.1,-2591.8 442,-3485 443.5,-432.6 1055.7,-337.4 1638,-427.4 -425,-18.9 -1558.1,-17.5 -1598.8,-228.7 -22.9,-119.2 -293,-1337.4 -107.5,-1675.3 185.6,-337.8 1096.2,-202.8 1517.8,-281.1 -162.5,-22.6 -327.1,-41.1 -494.9,-53.9 -372,-28.4 -1070.4,-28.5 -1429.6,62.9 472,1119.3 129.1,2021.5 -55.7,3020.5 -300.1,433.6 -423.3,994.3 -410.7,1529.5"
           style="fill:#e0cdc9;fill-opacity:1;fill-rule:nonzero;stroke:none"
           id="path42" /><path
           d="m 14357.9,14005.3 c -229.6,-0.3 -462.1,-0.3 -698,70.7 -236,71.1 -478.5,218.9 -653.3,456.3 -174.8,237.3 -267,572.5 -187.5,814.7 79.5,242.2 339.5,296.5 568.9,166.9 110.3,-62.3 1111.7,-1508.3 969.9,-1508.6"
           style="fill:#f1c1a4;fill-opacity:1;fill-rule:nonzero;stroke:none"
           id="path44" /><path
           d="m 18233.6,15660.8 c 221.5,202.7 445.5,408.1 610,659.3 164.5,251.3 267.6,554.6 226.3,852 -41.3,297.5 -248.6,580.8 -539.2,656.5 -290.6,75.7 -589,-121.2 -695.5,-402 -51.2,-135 261.7,-1890.8 398.4,-1765.8"
           style="fill:#f1c1a4;fill-opacity:1;fill-rule:nonzero;stroke:none"
           id="path46" /><path
           d="m 13665.1,20478.1 c 43.9,22.3 470.6,214.3 516.5,232.4 1406.2,552.8 2809.1,905.3 3578.3,-1341.7 0,0 898.5,-2572.7 994,-3105.9 48.4,-270.6 -8.7,-572.9 -58.8,-838.7 -76.2,-404.7 -195.4,-804.9 -365.3,-1180.4 -208.4,-460.5 -502.4,-909.3 -971.7,-1120.5 -435.3,-195.9 -819.5,-217.7 -1250.3,-130.2 -428.7,87.1 -841.5,254.9 -1227.2,458.8 -294.1,155.5 -598.1,333.4 -838.3,566.7 -28.5,27.8 -56.4,56.4 -81.1,87.7 -335.7,425.1 -1665.2,2803.9 -1665.2,2803.9 -1171.5,2065.9 22.7,2882.1 1369.1,3567.9"
           style="fill:#f1c1a4;fill-opacity:1;fill-rule:nonzero;stroke:none"
           id="path48" /><path
           d="m 17248.6,13204.4 c 986.3,494.2 1386.4,1810.6 1265,2863.9 -36.7,361.2 -343.5,958.8 -544,1239.8 -322.7,452.3 -1676.5,1246.8 -2484.3,1441.1 -807.8,194.4 -1525.7,103.5 -2239.1,-156.2 -453.6,-165.2 -59.3,-1545.6 -948.4,-1686.2 -1.1,2 -1.8,3.4 -1.8,3.4 -1171.5,2065.9 22.7,2882.1 1369.1,3567.9 43.9,22.3 470.6,214.4 516.5,232.4 1406.2,552.8 2809.1,905.3 3578.3,-1341.7 0,0 898.5,-2572.7 994,-3105.9 48.4,-270.6 -8.7,-572.9 -58.8,-838.7 -76.2,-404.7 -195.4,-804.9 -365.3,-1180.4 -208.4,-460.5 -502.4,-909.3 -971.7,-1120.5 -435.3,-195.9 -819.5,-217.7 -1250.3,-130.2 -189.7,38.5 -376.2,92.9 -558.6,159.1 877.7,-203.4 1562.2,-34.7 1699.4,52.2"
           style="fill:#e29d72;fill-opacity:1;fill-rule:nonzero;stroke:none"
           id="path50" /><path
           d="m 15897.7,17007.6 c 0,0 699.6,-784.7 718.9,-968.9 33.1,-316.4 -456.3,-429 -456.3,-429 0,0 256.2,244.9 167.1,443 -89.1,198 -429.7,954.9 -429.7,954.9"
           style="fill:#dd8360;fill-opacity:1;fill-rule:nonzero;stroke:none"
           id="path52" /><path
           d="m 17301.4,18414 c -6.8,2.7 -13.6,4.9 -20.2,7.1 -371.7,119.5 -711.1,66.2 -977.9,-159.4 -23.2,-19.5 -46.7,-42.2 -53.1,-89.8 -12,-90.6 17.4,-173.8 71.7,-289.1 279.5,331.6 647.1,477.6 1070.3,423.3 -6.1,43.8 -10.9,45 -36.6,71.7 -18.5,19.2 -36.6,29.3 -54.2,36.2"
           style="fill:#362128;fill-opacity:1;fill-rule:nonzero;stroke:none"
           id="path54" /><path
           d="m 13793.1,16835.4 c 2.5,6.9 5.3,13.4 8.2,19.8 157,357.4 422,576.1 767.8,626.2 30,4.4 62.5,6.9 102.4,-19.8 75.8,-51.2 118.6,-128.4 168.8,-245.4 -433.5,10.7 -786.6,-167.6 -1026.6,-520.3 -28.8,33.6 -26.4,38 -29.4,74.9 -2.1,26.6 2.4,46.8 8.8,64.6"
           style="fill:#362128;fill-opacity:1;fill-rule:nonzero;stroke:none"
           id="path56" /><path
           d="m 17562.7,17310.5 c 0,0 -4.3,5.9 -12.4,17.1 -7.7,11.2 -20.1,27.1 -35.6,46.7 -8.2,9.5 -16.9,20.1 -26.8,31.2 -10.3,10.8 -20.5,22.8 -32.8,34.4 -110.3,111 -269.4,203.5 -427.1,184.2 -40.9,-5.2 -81.7,-15.7 -119.5,-34.5 -234.5,-112.1 -267.4,-473.3 -332.6,-687.2 -60.4,236.4 -106.4,590.7 53,809.5 122,176.9 362.7,221.9 554.3,127.3 149,-71.3 266.3,-208.2 329.7,-353.9 8.2,-17.8 14.2,-35.3 20,-50.8 5.5,-15.8 9.6,-30.4 13.5,-43.3 8.8,-32.6 13.4,-60.3 16.3,-80.7"
           style="fill:#362128;fill-opacity:1;fill-rule:nonzero;stroke:none"
           id="path58" /><path
           d="m 14594.7,15902.2 c 0,0 -1.6,7.1 -4.5,20.6 -3.4,13.2 -7,33 -11.5,57.5 -1.6,12.5 -3.8,26.1 -5.6,40.8 -1.2,14.9 -3.4,30.5 -4,47.4 -10,156.1 26.2,336.6 145.1,441.9 31,27.2 66,50.7 105.1,66.6 239.4,101.3 531.6,-113.5 735,-206.4 -136.9,201.9 -371.8,471.1 -641.3,496.8 -213.3,26 -406.5,-124.5 -462.7,-330.7 -45.4,-158.8 -20.6,-337.3 46.5,-481.4 7.9,-18 17.1,-34 24.8,-48.7 8.2,-14.5 16.4,-27.3 23.4,-38.7 18.7,-28.2 36.4,-50.1 49.7,-65.7"
           style="fill:#362128;fill-opacity:1;fill-rule:nonzero;stroke:none"
           id="path60" /><path
           d="m 18810.6,18105.1 c 0,0 -231.3,-413.5 -764.9,-366.7 -325.4,28.6 -632.4,148.9 -913.1,316 -497.5,296 -974.5,631.2 -1503.5,866.2 -529,234.9 -1128,365.1 -1689.7,225.2 -444.9,-110.8 -854.7,-420.7 -1040.4,-830.4 86.9,-377.3 173.9,-754.6 260.9,-1131.9 68.4,-296.6 127.5,-902.1 65.3,-1200.1 -62.3,-298 -280.2,-570.8 -584,-591.4 0,0 -2095.8,3133.1 -358.4,4163.2 0,0 71,596.9 785.3,1252.8 937.7,861 3404.8,1815.3 4725.2,-104.9 991.8,-1442.3 1017.3,-2598 1017.3,-2598"
           style="fill:#362128;fill-opacity:1;fill-rule:nonzero;stroke:none"
           id="path62" /><path
           d="m 17232.3,16063.1 c -442.8,-400.5 -1031,-635.1 -1627.4,-652.6 126.1,-210.4 251.5,-425.2 420.7,-603.4 160.4,-168.8 365.7,-304.5 595.9,-339.2 230.2,-34.8 485.1,46.4 620.1,236 90.5,127.3 159.9,346.1 163.2,563.3 6.1,398.9 -172.5,795.9 -172.5,795.9"
           style="fill:#ffffff;fill-opacity:1;fill-rule:nonzero;stroke:none"
           id="path64" /><path
           d="m 18172.7,16474.9 c 60.6,-149.2 -73.5,-344.5 -299.5,-436.3 -226,-91.8 -458.4,-45.3 -519,103.8 -60.6,149.2 73.5,344.5 299.5,436.3 226,91.8 458.4,45.3 519,-103.8"
           style="fill:#e37a7d;fill-opacity:1;fill-rule:nonzero;stroke:none"
           id="path66" /><path
           d="m 15429.1,15446.3 c 19.8,-159.7 -160.4,-313.6 -402.5,-343.6 -242.1,-30 -454.4,75.2 -474.2,235 -19.8,159.8 160.4,313.6 402.5,343.6 242.1,30 454.4,-75.2 474.2,-235"
           style="fill:#e37a7d;fill-opacity:1;fill-rule:nonzero;stroke:none"
           id="path68" /><path
           d="m 19231.5,7728.8 c 8,132.4 25.2,264.6 49.6,394.6 78.7,419.9 229,822.6 378.6,1222.8 0,0 2.6,6.9 7.4,19.9 23.3,428.9 -8.3,833.1 -2.2,967.7 5.5,119.9 525.6,105.4 500,-630.2 -6,-172.8 -56.2,-205.4 -74,-377.3 -9,-87 -10.8,-176.4 0.6,-263.1 84,-110.7 167.9,-221.4 251.9,-332.2 192.5,65.1 370,175.2 527.6,304.9 201.3,165.9 272,339 464.8,514.8 62.2,56.7 527.7,46 299.8,-386.9 -49.6,-94.3 -136.4,-255.9 -136.4,-255.9 0,0 100.2,156.7 175.2,178 74.9,21.3 160.8,-3.1 213.4,-60.6 62.5,-68.4 73.3,-172 50.7,-261.9 -22.6,-89.8 -73.9,-169.4 -124.3,-247.1 -67.7,-104.2 -135.4,-208.5 -203.1,-312.7 0,0 160.8,278.5 238.9,295.2 78,16.6 136.3,-74.1 159.4,-145.8 37.1,-115.2 -25.4,-236.5 -85.8,-341.4 -29.7,-51.7 -59.4,-103.3 -89.2,-154.7 46.1,10 99,-0.9 134.5,-32.9 64.8,-58.3 75.5,-159.3 49.1,-242.3 -26.3,-83.1 -83,-152.5 -138.4,-219.8 -138.9,-168.6 -277.8,-337.3 -416.8,-506 -170.3,-206.7 -343.3,-416 -560.8,-572.3 -217.6,-156.3 -488.5,-256.3 -753.3,-215.5 -392,60.4 -682,414.1 -811.2,789.1 -96.2,278.9 -124,576.1 -106,871.6"
           style="fill:#f1c1a4;fill-opacity:1;fill-rule:nonzero;stroke:none"
           id="path70" /><path
           d="m 19973.7,7855.7 c 0,0 -6648.7,-2147.7 -8006.9,-2753.7 -1358.3,-606.1 -2133.43,-1316.3 -1639.7,-2165.4 371.9,-639.7 1560.3,-650.3 3619.4,446.2 2059.1,1096.4 6293,2619.2 6738.1,3226.8 366.3,499.9 -151.9,1261.4 -710.9,1246.1"
           style="fill:#f1c1a4;fill-opacity:1;fill-rule:nonzero;stroke:none"
           id="path72" /><path
           d="m 12932.3,5480.1 c 918.2,-204.3 2806.1,-1097.1 2537.8,-1365.4 627.4,281.8 1304.5,571.3 1957.2,852 -723.6,459.7 -1454.8,908.8 -2212.5,1313 -846.6,-288.1 -1656.5,-569.8 -2282.5,-799.6"
           style="fill:#e29d72;fill-opacity:1;fill-rule:nonzero;stroke:none"
           id="path74" /><path
           d="m 13231.5,7499.4 c -8.1,132.4 -25.3,264.5 -49.6,394.5 -78.7,420 -229,822.6 -378.6,1222.8 0,0 -2.6,7 -7.5,20 -23.2,428.9 8.4,833.1 2.2,967.7 -5.5,119.9 -525.6,105.4 -500,-630.2 6,-172.8 56.3,-205.4 74.1,-377.3 9,-87 10.7,-176.4 -0.6,-263.1 -84,-110.7 -168,-221.5 -252,-332.2 -192.4,65.1 -370,175.2 -527.5,304.9 -201.4,165.9 -235.7,234.3 -367.7,459.2 -92.9,158.2 -624.9,101.6 -396.9,-331.3 49.6,-94.3 136.3,-255.9 136.3,-255.9 0,0 -100.2,156.7 -175.1,178 -74.9,21.3 -160.9,-3.1 -213.4,-60.6 -62.6,-68.4 -73.4,-172 -50.8,-261.9 22.7,-89.8 73.9,-169.4 124.4,-247.1 67.7,-104.2 135.4,-208.5 203.1,-312.7 0,0 -160.9,278.5 -238.9,295.1 -78.1,16.7 -136.3,-74 -159.4,-145.7 -37.1,-115.2 25.3,-236.5 85.7,-341.5 29.7,-51.6 59.4,-103.2 89.2,-154.7 -46.1,10 -99,-0.8 -134.5,-32.8 -64.7,-58.3 -75.4,-159.3 -49.1,-242.3 26.4,-83.1 83,-152.5 138.4,-219.8 139,-168.6 277.9,-337.3 416.9,-506 170.3,-206.7 343.2,-416 560.8,-572.3 217.5,-156.3 488.5,-256.3 753.3,-215.5 392,60.3 681.9,414.1 811.2,789.1 96.1,278.9 123.9,576.1 106,871.6"
           style="fill:#f1c1a4;fill-opacity:1;fill-rule:nonzero;stroke:none"
           id="path76" /><path
           d="m 12489.2,7626.3 c 0,0 6648.7,-2147.7 8007,-2753.8 1358.2,-606 2133.4,-1316.3 1639.7,-2165.3 -372,-639.7 -1560.4,-650.3 -3619.5,446.2 -2059.1,1096.4 -6292.9,2619.2 -6738,3226.7 -366.3,500 151.9,1261.5 710.8,1246.2"
           style="fill:#f1c1a4;fill-opacity:1;fill-rule:nonzero;stroke:none"
           id="path78" /><path
           d="m 23232.8,25137.2 c 165,143.1 480.9,421.8 707.9,239.6 59.4,-47.7 92.8,-122 104.5,-197.2 62.1,-400.8 -248.1,-801.6 -559.1,-1013.1 -247.5,-168.3 -536.2,-264.8 -830.8,-323.8 -12.9,139.3 -62.2,278.8 -125.3,404.9 -106.7,213.3 -252.3,407.2 -340.4,628.9 -42.7,107.6 -71.2,229 -32.5,338.1 67.7,191 327.5,259.3 511.2,173.6 183.6,-85.7 294.7,-279.7 346.7,-475.6 65.9,81 138.9,156.2 217.8,224.6"
           style="fill:#ffffff;fill-opacity:1;fill-rule:nonzero;stroke:none"
           id="path80" /><path
           d="m 24287.1,12341 c 179.7,155.8 523.5,459.3 770.7,260.9 64.7,-51.9 101.1,-132.8 113.8,-214.7 67.6,-436.4 -270.1,-872.8 -608.7,-1103 -269.5,-183.2 -583.9,-288.3 -904.6,-352.6 -14,151.7 -67.7,303.6 -136.3,440.8 -116.3,232.3 -274.7,443.4 -370.7,684.8 -46.5,117.1 -77.5,249.3 -35.4,368.1 73.7,208 356.6,282.4 556.5,189.1 200,-93.4 321,-304.6 377.5,-517.9 71.8,88.2 151.3,170 237.2,244.5"
           style="fill:#ff0101;fill-opacity:1;fill-rule:nonzero;stroke:none"
           id="path82" /><path
           d="m 5017.11,19988.1 c 328.43,-139.6 616.4,-338.7 895.79,-522.8 113.61,444.6 239.43,1020.9 600.62,1371.9 360.77,348.1 971.26,594.3 1382.33,354.3 453.85,-264.9 335.99,-848.9 275.12,-1312.8 -101.25,-761 -239.08,-1395.6 -116,-2254.5 -526.98,39.6 -1078.79,84.9 -1642.28,139 -922.53,78.7 -1974.06,272.2 -2558.32,1024.7 -324.01,414.9 -422.71,999.2 -68.06,1243 269.2,186.4 723.46,144.5 1105.23,6.9 42.53,-15.5 84.36,-32.1 125.57,-49.7"
           style="fill:#ff0000;fill-opacity:1;fill-rule:nonzero;stroke:none"
           id="path84" /></g></g></g></svg>
