<?xml version="1.0" encoding="UTF-8" standalone="no"?>
<svg
   version="1.1"
   id="svg2"
   xml:space="preserve"
   width="4cm"
   height="4cm"
   viewBox="0 0 151.1811 151.1811"
   sodipodi:docname="owl.svg"
   inkscape:version="1.1.1 (c3084ef, 2021-09-22)"
   xmlns:inkscape="http://www.inkscape.org/namespaces/inkscape"
   xmlns:sodipodi="http://sodipodi.sourceforge.net/DTD/sodipodi-0.dtd"
   xmlns="http://www.w3.org/2000/svg"
   xmlns:svg="http://www.w3.org/2000/svg"
   xmlns:rdf="http://www.w3.org/1999/02/22-rdf-syntax-ns#"
   xmlns:cc="http://creativecommons.org/ns#"
   xmlns:dc="http://purl.org/dc/elements/1.1/"><metadata
     id="metadata8"><rdf:RDF><cc:Work
         rdf:about=""><dc:format>image/svg+xml</dc:format><dc:type
           rdf:resource="http://purl.org/dc/dcmitype/StillImage" /></cc:Work></rdf:RDF></metadata><defs
     id="defs6"><clipPath
       clipPathUnits="userSpaceOnUse"
       id="clipPath178"><path
         d="m 2097.6,1180.57 c 0,-336.511 -273.77,-610.281 -610.27,-610.281 -336.5,0 -610.275,273.77 -610.275,610.281 v 574 c 0,336.5 273.775,610.27 610.275,610.27 336.5,0 610.27,-273.77 610.27,-610.27 z m -610.27,1224.27 c -358.56,0 -650.275,-291.7 -650.275,-650.27 v -574 c 0,-358.57 291.715,-650.281 650.275,-650.281 358.56,0 650.27,291.711 650.27,650.281 v 574 c 0,358.57 -291.71,650.27 -650.27,650.27 z m 24.17,-937.83 c 35.42,5.45 55.38,41.98 56.16,73.58 0.82,32 -13.02,61.48 -25.2,87.5 -2.22,4.66 -7.78,6.65 -12.38,4.47 -4.66,-2.18 -6.67,-7.73 -4.49,-12.38 11.33,-24.14 24.16,-51.51 23.45,-79.12 -0.6,-24.4 -15.87,-51.88 -40.38,-55.65 -5.29,-0.81 -11.07,-0.6 -17.16,-0.34 -10.62,0.42 -22.69,0.91 -33.78,-4.77 -19.53,-9.99 -24,-31.25 -27.94,-50.01 -2.95,-14.04 -5.75,-27.3 -13.74,-35.83 -15.63,-16.71 -46.5,-9.58 -68.35,-2.79 -28.92,8.96 -64.93,16.21 -87.51,-7.62 -3.53,-3.72 -3.36,-9.61 0.36,-13.14 3.73,-3.56 9.62,-3.4 13.17,0.35 15.48,16.38 44.72,10.02 68.45,2.63 13.4,-4.17 29.67,-8.3 45.43,-8.3 15.6,0 30.73,4.05 42.06,16.15 11.52,12.31 14.99,28.79 18.34,44.72 3.55,16.8 6.6,31.32 18.2,37.26 6.74,3.44 15.4,3.09 24.56,2.74 6.71,-0.27 13.68,-0.53 20.75,0.55 z m -215.4,70.81 c 8.15,-0.2 16.31,-0.64 24.5,-1.07 23.65,-1.26 48.19,-2.56 72.39,1.87 30.69,5.64 67.77,24.47 79.84,60.46 8.54,25.43 2.18,52.58 -3.44,76.54 l -0.47,2.06 c -5.15,21.97 -9.84,47.07 -0.17,66.95 4.86,10.02 15.84,17.98 27.31,19.83 5.42,0.88 13.18,0.66 18.98,-5.33 3.59,-3.69 9.48,-3.8 13.17,-0.19 3.69,3.57 3.78,9.46 0.22,13.15 -8.89,9.16 -21.46,13.01 -35.31,10.75 -17.46,-2.8 -33.6,-14.61 -41.13,-30.09 -12.31,-25.36 -7.07,-54.23 -1.22,-79.31 l 0.49,-2.08 c 5.31,-22.58 10.79,-45.93 3.93,-66.35 -9.51,-28.32 -40.09,-43.4 -65.56,-48.08 -22.04,-4.03 -44.38,-2.83 -68.05,-1.6 -8.35,0.45 -16.69,0.9 -25,1.11 -26.84,0.62 -66.35,-0.98 -96.73,-23.04 -28.38,-20.6 -45.07,-64.08 -24.69,-95.97 1.76,-2.77 4.79,-4.3 7.84,-4.3 1.73,0 3.46,0.48 5.02,1.47 4.32,2.77 5.6,8.52 2.81,12.86 -14.5,22.71 -1.12,55.57 19.97,70.87 19.62,14.26 46.7,20.42 85.3,19.49 z m 626.01,580.87 c -21.28,26.45 -58.76,32.15 -86.75,14.38 -9.44,8.6 -19.38,16.62 -29.77,24.03 21.94,-1.44 44.11,8.04 57.92,27.19 v 0 c -27.38,19.75 -64.76,15.45 -87.09,-8.76 -14.81,8.24 -30.22,15.39 -46.25,20.98 -4.12,1.45 -8.62,-0.73 -10.05,-4.84 -1.45,-4.11 0.72,-8.61 4.84,-10.05 14.59,-5.1 28.63,-11.56 42.16,-18.96 -15.97,-28.84 -8.28,-65.7 19.12,-85.46 15.73,21.8 16.19,49.95 3.51,71.78 11.71,-7.85 22.84,-16.55 33.35,-25.97 -22.71,-23.6 -24.94,-60.92 -3.87,-87.1 v 0 c 21.16,17.02 29.03,44.41 22.24,69.02 8.87,-9.42 17.13,-19.38 24.74,-29.84 -27.99,-17.77 -38.8,-54.07 -23.95,-84.58 25.44,12.37 39.27,38.93 36.78,65.53 9.61,-15.55 17.76,-31.95 24.33,-48.97 -30.27,-13.28 -46.48,-47.41 -36.54,-79.78 v 0 c 24.62,7.55 41.56,28.22 45.65,51.98 1.21,-4.45 2.42,-8.88 3.4,-13.38 0.8,-3.69 4.07,-6.21 7.7,-6.21 0.56,0 1.11,0.06 1.68,0.18 4.25,0.93 6.95,5.13 6.02,9.39 -0.88,4.06 -2,8.06 -3.06,12.08 16.72,-15.86 41.24,-22.54 64.85,-15.29 -9.89,32.22 -42.2,51.33 -74.56,45.6 -4.96,13 -10.83,25.63 -17.5,37.85 18.02,-9.62 40.22,-10.82 59.99,-1.2 -14.69,30.19 -49.33,44.08 -80.33,33.66 -6.22,8.72 -12.82,17.18 -19.88,25.26 20.36,-6.44 43.44,-2.9 61.32,11.48 z m -241.43,-890.87 c -60.04,55.93 -127.87,91.37 -188.34,98.6 5.73,5.62 11.58,11.13 17.63,16.23 19.13,16.11 48.45,34.42 79.87,30.1 5.62,-0.79 11.24,-2.23 16.86,-3.68 14.07,-3.58 28.63,-7.28 43.65,-2.34 26.2,8.63 37.24,39.79 32.77,64.93 -4.06,22.79 -17.28,41.49 -30.06,59.59 l -1.64,2.3 c -11.96,16.99 -23.76,35.2 -24.99,54.71 -1.13,17.98 6.5,35.42 14.58,53.89 8.7,19.9 17.72,40.5 16.03,63.23 -0.42,5.39 -1.43,10.89 -2.46,16.38 -2.16,11.42 -4.01,21.31 0.21,29.02 2.99,5.47 6.96,8.2 12.29,9.64 1.73,-36.33 0.95,-73.08 -2.64,-110.54 -1.42,-14.61 -3.02,-31.17 3.36,-46.38 4.33,-10.31 13.01,-18.87 23.21,-22.91 4.03,-1.6 8.17,-2.4 12.23,-2.4 4.14,0 8.18,0.83 11.93,2.51 11.47,5.11 19.11,16.93 22.73,35.12 1.9,9.52 3.32,21.84 -2.75,32.66 -3.88,6.89 -11.19,11.98 -19.09,13.29 -6.86,1.1 -13.14,-0.63 -17.89,-4.9 -3.82,-3.43 -4.15,-9.32 -0.71,-13.14 3.43,-3.82 9.31,-4.14 13.15,-0.71 0.6,0.54 1.65,0.48 2.41,0.38 2.31,-0.38 4.8,-2.08 5.89,-4.03 3.08,-5.49 2,-13.52 0.73,-19.91 -2.38,-11.93 -6.44,-19.25 -12.06,-21.76 -3.56,-1.63 -7.25,-0.81 -9.74,0.2 -5.45,2.16 -10.51,7.19 -12.87,12.79 -4.56,10.89 -3.26,24.36 -1.85,38.8 3.55,37.32 4.35,75.18 2.52,112.67 7.61,0.17 15.44,0.4 23.04,2.7 27.23,8.23 55.87,38.45 68.98,62.72 4.49,8.3 7.57,17.69 9.12,27.41 14.51,-3.91 20.69,-26.58 27.02,-55.49 1.54,-7.02 3,-13.53 4.63,-19.43 -2.55,0.75 -5.19,1.23 -7.9,1.23 h -0.09 c -16.25,-0.05 -27.8,-13.12 -35.09,-22.94 l -1.55,-2.1 c -6.15,-8.36 -12.52,-17 -21,-19.62 -3.76,-1.16 -5.99,-5.02 -5.1,-8.86 0.79,-3.44 3.86,-5.81 7.3,-5.81 0.38,0 0.77,0.03 1.16,0.09 16.39,2.56 27.89,13.42 35.11,21.38 1.23,1.35 2.42,2.78 3.6,4.21 2.9,3.48 5.64,6.78 8.83,8.44 9.65,5.05 19.19,-0.97 22.84,-3.8 1.94,-1.49 4.43,-1.91 6.69,-1.25 9.7,-12.89 23.39,-26.56 41.34,-34.17 0.9,-0.38 1.14,-1.27 0.7,-3.37 -3.73,-3.37 -7.76,-6.51 -12,-9.28 -9.34,-6.14 -14.32,-16.96 -12.96,-28.22 1.1,-9.01 6.35,-16.5 14.13,-20.95 l -33.31,-23.22 35.58,-17.12 c -0.71,-1.35 -1.3,-2.77 -1.69,-4.26 -1.44,-5.49 -0.46,-11.35 3.02,-16.65 4.36,-6.6 5.38,-14.7 2.81,-22.2 -2.52,-7.47 -8.25,-13.23 -15.67,-15.78 -24.45,-8.43 -50.47,-10.78 -75.27,-6.78 -4,0.69 -7.8,-1.28 -9.69,-4.76 -24.62,-45.69 -50.07,-92.92 -67.64,-143.31 -16.39,-47.16 -23.74,-91.81 -21.9,-133.15 z M 1464.66,1325 c -11.38,-11.64 -23.16,-23.67 -35.85,-33.86 -15.91,-12.74 -47.53,-33.07 -80.51,-26.09 -17.14,3.63 -32.27,14.01 -48.29,25 -18.92,12.99 -38.49,26.41 -62.52,28.76 -2.57,0.25 -5.09,0.37 -7.6,0.37 -23.6,0 -45.11,-10.48 -65.98,-20.65 l -9.64,-4.65 c -30.44,-14.4 -54.27,-16.83 -70.81,-7.29 -24.26,13.96 -27.84,49.82 -26.6,77.44 2.85,62.73 18.39,125.96 45.01,182.85 10.87,23.26 26.73,51.46 53.04,63.31 26.47,11.92 58.12,5.26 88.78,-1.18 l 2.23,-0.46 c 19.64,-4.14 42.21,-7.62 61.37,3.03 16.85,9.38 28.27,28.86 31.32,53.43 3,24.07 -1.49,47.69 -5.82,70.52 -2.32,12.22 -4.72,24.86 -5.85,37.15 -2.85,31.34 7.03,69.89 35.45,80.44 17,6.3 36.82,1.84 57.82,-2.93 26.66,-6.04 54.24,-12.29 77.49,4.75 9.11,6.65 15.25,15.58 21.18,24.21 5.93,8.6 11.51,16.73 19.27,21.22 9.7,5.64 21.68,4.7 31.93,2.04 -3.12,-6.91 -6.12,-13.87 -8.8,-20.99 -24.89,-66.29 -28.75,-141.38 -4.76,-208 -7.86,21.81 11.9,66.39 20.86,86.02 12.56,27.52 30.28,52.7 51.91,73.84 19.99,19.54 42.15,30.15 65.26,43.99 19.38,2.94 37.62,5.06 52.69,-3.28 25.38,-14.05 27.78,-52.16 14.05,-77.56 -11.27,-20.82 -36.65,-47.3 -57.99,-53.75 -5.4,-1.63 -11.91,-1.77 -18.8,-1.92 -15.58,-0.35 -34.95,-0.77 -46.04,-21.03 -7.42,-13.57 -4.64,-28.36 -2.18,-41.41 0.91,-4.81 1.84,-9.62 2.18,-14.34 1.36,-18.11 -6.35,-35.73 -14.51,-54.37 -8.62,-19.69 -17.52,-40.05 -16.11,-62.52 1.55,-24.37 14.87,-45.11 28.38,-64.26 l 1.64,-2.33 c 11.6,-16.42 23.6,-33.4 26.93,-52.1 3.01,-16.95 -3.88,-38.59 -20.26,-43.98 -9.89,-3.26 -21.23,-0.37 -33.23,2.7 -6.3,1.61 -12.62,3.2 -18.91,4.06 -38.05,5.28 -72.38,-15.73 -94.42,-34.3 -11.87,-10 -22.76,-21.12 -33.31,-31.88 z m 149.65,580.12 c 9,0 16.29,-7.3 16.29,-16.29 0,-8.99 -7.29,-16.28 -16.29,-16.28 -8.99,0 -16.28,7.29 -16.28,16.28 0,8.99 7.29,16.29 16.28,16.29 z m 58.15,61.69 c 8.99,0 16.28,-7.3 16.28,-16.29 0,-9 -7.29,-16.28 -16.28,-16.28 -9,0 -16.29,7.28 -16.29,16.28 0,8.99 7.29,16.29 16.29,16.29 z m 47.71,-611.97 c 16.36,46.93 40.07,91.63 63.37,134.9 25.7,-3.09 52.51,-0.21 77.71,8.48 12.9,4.45 22.82,14.43 27.24,27.37 4.42,13 2.64,27.01 -5.22,38.93 -0.02,0.03 0.82,2.28 0.8,2.31 7.55,3.88 11.71,11.84 10.62,20.26 -0.73,5.77 -3.82,10.71 -8.36,13.86 0.41,0.77 0.79,1.58 1.16,2.41 2.16,5.02 2.13,10.59 -0.11,15.65 -2.33,5.27 -6.8,9.36 -12.51,11.33 -4.83,1.71 -5.85,6.1 -6.07,7.89 -0.4,3.28 0.62,7.75 4.69,10.42 5.05,3.32 9.85,7.03 14.29,11.07 5.16,4.67 7.53,11.64 6.35,18.63 -1.21,7.06 -5.8,12.92 -12.29,15.67 -14.86,6.29 -29.31,19.93 -40.69,38.42 -3.67,5.96 -6.35,18.15 -9.17,31.05 -6.15,28.17 -14.5,66.12 -44.21,70.35 -1.1,22.99 -10.99,45.08 -31.52,56.44 -13.26,7.35 -27.32,8.75 -41.5,7.97 6.21,13.49 6.29,29.99 5.84,46.17 -1.05,37.93 -13.08,75.69 -35.25,106.58 -43.56,-36.61 -80.94,-81.19 -106.94,-131.64 -15.47,4.69 -33.65,6.38 -49.57,-2.88 -11.4,-6.58 -18.46,-16.85 -25.29,-26.78 -5.29,-7.69 -10.28,-14.95 -16.84,-19.75 -16.44,-12.04 -38.77,-6.96 -62.36,-1.6 -22.67,5.15 -46.17,10.48 -68.42,2.22 -37.79,-14.04 -51.11,-60.12 -47.53,-99.58 1.2,-13.19 3.69,-26.27 6.11,-38.94 4.26,-22.41 8.28,-43.57 5.64,-64.73 -1.09,-8.81 -5.43,-30.3 -21.91,-39.47 -13.58,-7.54 -31.38,-4.66 -48.49,-1.08 l -2.22,0.48 c -32,6.71 -68.29,14.33 -100.25,-0.08 -31.89,-14.37 -50.03,-46.23 -62.27,-72.38 -27.64,-59.11 -43.78,-124.77 -46.72,-189.93 -2.17,-47.67 9.9,-79.44 35.88,-94.4 22.51,-12.97 51.33,-10.81 88.08,6.58 l 9.83,4.75 c 20.75,10.1 42.22,20.6 63.6,18.49 19.27,-1.88 36.05,-13.4 53.82,-25.58 16.81,-11.54 34.2,-23.47 54.96,-27.86 5.96,-1.27 11.85,-1.83 17.63,-1.83 33.38,0 62.64,18.98 78.36,31.6 12.48,10.02 23.78,21.35 34.68,32.46 65.76,-2.11 144.09,-43.71 210.49,-112.13 1.78,-1.85 4.21,-2.82 6.67,-2.82 1.4,0 2.8,0.3 4.11,0.95 3.61,1.78 5.67,5.68 5.1,9.68 -6.49,45.33 -0.2,95.84 18.68,150.09 z m 230.25,537.89 c -3.96,0 -7.81,-0.44 -11.53,-1.24 24.63,-5.3 43.1,-27.17 43.1,-53.38 0,-26.22 -18.47,-48.1 -43.1,-53.39 3.72,-0.8 7.57,-1.24 11.53,-1.24 30.17,0 54.63,24.45 54.63,54.63 0,30.16 -24.46,54.62 -54.63,54.62 z m -907.59,-843.4 c 3.96,0 7.81,0.45 11.54,1.25 -24.63,5.29 -43.11,27.16 -43.11,53.38 0,26.22 18.48,48.09 43.11,53.38 -3.73,0.8 -7.58,1.25 -11.54,1.25 -30.17,0 -54.627,-24.46 -54.627,-54.63 0,-30.17 24.457,-54.63 54.627,-54.63 z m 10.23,932.01 c -1.06,-4.03 -2.18,-8.02 -3.06,-12.09 -0.93,-4.26 1.77,-8.46 6.02,-9.39 0.57,-0.12 1.12,-0.18 1.69,-0.18 3.63,0 6.89,2.52 7.7,6.21 0.97,4.49 2.18,8.92 3.38,13.37 4.1,-23.76 21.03,-44.42 45.65,-51.97 9.94,32.37 -6.26,66.5 -36.54,79.78 6.57,17.03 14.72,33.43 24.33,48.98 -2.49,-26.61 11.34,-53.16 36.78,-65.54 14.85,30.51 4.05,66.82 -23.95,84.58 7.61,10.46 15.88,20.43 24.74,29.85 -6.79,-24.62 1.08,-52.01 22.24,-69.03 21.07,26.18 18.85,63.5 -3.87,87.1 10.51,9.43 21.65,18.12 33.35,25.98 -12.68,-21.84 -12.22,-49.99 3.51,-71.79 27.4,19.76 35.1,56.62 19.12,85.46 13.53,7.4 27.57,13.86 42.16,18.96 4.11,1.44 6.28,5.94 4.84,10.05 -1.42,4.11 -5.91,6.3 -10.05,4.84 -16.03,-5.59 -31.44,-12.74 -46.25,-20.98 -22.33,24.21 -59.71,28.51 -87.09,8.76 v 0 c 13.82,-19.14 35.98,-28.63 57.91,-27.19 -10.38,-7.41 -20.33,-15.43 -29.76,-24.03 -28,17.77 -65.47,12.07 -86.75,-14.38 17.88,-14.38 40.96,-17.92 61.32,-11.49 -7.06,-8.07 -13.66,-16.53 -19.88,-25.25 -31,10.42 -65.64,-3.47 -80.33,-33.66 19.78,-9.62 41.97,-8.42 59.99,1.2 -6.67,-12.22 -12.54,-24.85 -17.49,-37.85 -32.37,5.74 -64.68,-13.38 -74.567,-45.6 23.607,-7.25 48.137,-0.57 64.857,15.3 z m -10.23,-197.86 c 3.96,0 7.81,0.44 11.54,1.24 -24.63,5.29 -43.11,27.17 -43.11,53.39 0,26.21 18.48,48.08 43.11,53.38 -3.73,0.8 -7.58,1.24 -11.54,1.24 -30.17,0 -54.627,-24.46 -54.627,-54.62 0,-30.18 24.457,-54.63 54.627,-54.63 z m 429.44,399.04 -12.7,-22.62 21.52,12.09 15.54,-55.35 15.53,55.35 21.53,-12.09 -12.71,22.62 30.98,14.44 -30.98,14.46 12.71,22.6 -21.53,-12.09 -15.53,55.36 -15.54,-55.36 -21.52,12.09 12.7,-22.6 -30.98,-14.46 z M 1256.31,758.832 c -14.59,5.098 -28.63,11.547 -42.16,18.957 15.98,28.832 8.28,65.703 -19.12,85.461 -15.73,-21.801 -16.19,-49.949 -3.51,-71.789 -11.7,7.859 -22.84,16.551 -33.35,25.98 22.72,23.59 24.94,60.911 3.87,87.09 -21.16,-17.019 -29.03,-44.41 -22.24,-69.019 -8.86,9.418 -17.13,19.379 -24.74,29.84 28,17.769 38.8,54.07 23.95,84.589 -25.44,-12.382 -39.27,-38.941 -36.78,-65.55 -9.61,15.55 -17.76,31.961 -24.33,48.988 30.28,13.281 46.48,47.402 36.54,79.771 -24.62,-7.55 -41.55,-28.209 -45.65,-51.959 -1.2,4.43 -2.41,8.868 -3.38,13.36 -0.81,3.687 -4.07,6.211 -7.7,6.211 -0.57,0 -1.12,-0.051 -1.69,-0.172 -4.25,-0.93 -6.95,-5.141 -6.02,-9.399 0.88,-4.062 2,-8.07 3.06,-12.089 -16.72,15.878 -41.25,22.546 -64.857,15.296 9.887,-32.218 42.197,-51.328 74.567,-45.597 4.95,-13 10.82,-25.629 17.49,-37.84 -18.02,9.609 -40.21,10.82 -59.99,1.187 14.69,-30.179 49.33,-44.066 80.33,-33.656 6.22,-8.722 12.82,-17.183 19.88,-25.25 -20.36,6.43 -43.44,2.887 -61.32,-11.492 21.28,-26.449 58.75,-32.141 86.75,-14.371 9.43,-8.609 19.38,-16.629 29.76,-24.027 -21.93,1.429 -44.09,-8.051 -57.91,-27.192 v 0 c 27.38,-19.75 64.76,-15.461 87.09,8.75 14.81,-8.238 30.22,-15.379 46.25,-20.98 4.14,-1.45 8.63,0.73 10.05,4.84 1.44,4.121 -0.73,8.609 -4.84,10.062 z m 264.67,-0.902 12.71,22.609 -21.53,-12.09 -15.53,55.352 -15.54,-55.352 -21.52,12.09 12.7,-22.609 -30.98,-14.45 30.98,-14.449 -12.7,-22.609 21.52,12.09 15.54,-55.364 15.53,55.364 21.53,-12.09 -12.71,22.609 30.98,14.449 z m 429.44,400.66 c -3.96,0 -7.81,-0.45 -11.53,-1.25 24.63,-5.29 43.1,-27.16 43.1,-53.38 0,-26.22 -18.47,-48.09 -43.1,-53.38 3.72,-0.8 7.57,-1.25 11.53,-1.25 30.17,0 54.63,24.46 54.63,54.63 0,30.17 -24.46,54.63 -54.63,54.63 z m -22.2,-199.481 c 1.06,4.02 2.18,8.02 3.06,12.082 0.93,4.258 -1.77,8.469 -6.02,9.399 -0.57,0.121 -1.12,0.172 -1.68,0.172 -3.63,0 -6.9,-2.524 -7.7,-6.211 -0.98,-4.5 -2.19,-8.93 -3.4,-13.379 -4.09,23.758 -21.03,44.428 -45.65,51.978 v 0 c -9.94,-32.369 6.27,-66.49 36.54,-79.771 -6.57,-17.027 -14.72,-33.43 -24.33,-48.981 2.49,26.614 -11.34,53.161 -36.78,65.543 -14.85,-30.519 -4.04,-66.82 23.95,-84.589 -7.61,-10.454 -15.87,-20.422 -24.74,-29.832 6.79,24.609 -1.08,51.992 -22.24,69.011 v 0 c -21.07,-26.179 -18.84,-63.492 3.87,-87.09 -10.51,-9.429 -21.64,-18.121 -33.35,-25.98 12.68,21.84 12.22,49.988 -3.51,71.789 -27.4,-19.758 -35.09,-56.629 -19.12,-85.461 -13.53,-7.41 -27.57,-13.859 -42.16,-18.957 -4.12,-1.453 -6.29,-5.941 -4.84,-10.062 1.43,-4.11 5.93,-6.282 10.05,-4.84 16.03,5.601 31.44,12.742 46.25,20.992 22.33,-24.223 59.71,-28.512 87.09,-8.762 v 0 c -13.81,19.141 -35.98,28.629 -57.92,27.192 10.39,7.398 20.33,15.418 29.77,24.027 27.99,-17.77 65.47,-12.078 86.75,14.371 -17.88,14.391 -40.96,17.922 -61.32,11.492 7.06,8.067 13.66,16.528 19.88,25.258 31,-10.418 65.64,3.469 80.33,33.648 -19.77,9.633 -41.97,8.422 -59.99,-1.187 6.67,12.211 12.54,24.84 17.5,37.84 32.36,-5.731 64.67,13.39 74.56,45.597 -23.61,7.25 -48.13,0.582 -64.85,-15.289 z"
         id="path176" /></clipPath><linearGradient
       x1="0"
       y1="0"
       x2="1"
       y2="0"
       gradientUnits="userSpaceOnUse"
       gradientTransform="matrix(1300.55,0,0,-1300.55,837.054,1467.57)"
       spreadMethod="pad"
       id="linearGradient192"><stop
         style="stop-opacity:1;stop-color:#e8bf6a"
         offset="0"
         id="stop180" /><stop
         style="stop-opacity:1;stop-color:#e8bf6a"
         offset="0.005618"
         id="stop182" /><stop
         style="stop-opacity:1;stop-color:#ecd177"
         offset="0.291895"
         id="stop184" /><stop
         style="stop-opacity:1;stop-color:#f5ebd9"
         offset="0.705065"
         id="stop186" /><stop
         style="stop-opacity:1;stop-color:#e9bb70"
         offset="0.949438"
         id="stop188" /><stop
         style="stop-opacity:1;stop-color:#e9bb70"
         offset="1"
         id="stop190" /></linearGradient><clipPath
       clipPathUnits="userSpaceOnUse"
       id="clipPath2007"><ellipse
         style="fill:#f1e7b1;fill-opacity:1;stroke:#e0e0e0;stroke-width:11.4599;stroke-dasharray:11.4599, 11.4599"
         id="ellipse2009"
         ry="543.88501"
         rx="471.11282"
         cy="-1529.6971"
         cx="1372.0142"
         transform="scale(1,-1)" /></clipPath><clipPath
       clipPathUnits="userSpaceOnUse"
       id="clipPath2011"><ellipse
         style="fill:#f1e7b1;fill-opacity:1;stroke:#e0e0e0;stroke-width:11.0624;stroke-dasharray:11.0624, 11.0624"
         id="ellipse2013"
         ry="525.02069"
         rx="454.77255"
         cy="-4046.7749"
         cx="1044.723"
         transform="scale(1,-1)" /></clipPath><clipPath
       clipPathUnits="userSpaceOnUse"
       id="clipPath1811"><rect
         style="fill:#c8ae5b;fill-opacity:1;stroke:#fffafa;stroke-width:7.95816"
         id="rect1813"
         width="2212.0342"
         height="995.41541"
         x="-1685.8981"
         y="-5242.9771" /></clipPath></defs><sodipodi:namedview
     pagecolor="#ffffff"
     bordercolor="#666666"
     borderopacity="1"
     objecttolerance="10"
     gridtolerance="10"
     guidetolerance="10"
     inkscape:pageopacity="0"
     inkscape:pageshadow="2"
     inkscape:window-width="1440"
     inkscape:window-height="872"
     id="namedview4"
     inkscape:pagecheckerboard="0"
     showgrid="false"
     inkscape:zoom="1.4119921"
     inkscape:cx="27.974661"
     inkscape:cy="96.317822"
     inkscape:window-x="0"
     inkscape:window-y="0"
     inkscape:window-maximized="0"
     inkscape:current-layer="g1984"
     units="cm"
     width="10cm"
     inkscape:document-units="cm" /><g
     id="g10"
     inkscape:groupmode="layer"
     inkscape:label="ink_ext_XXXXXX"
     transform="matrix(1.3333333,0,0,-1.3333333,0,666.66667)"><g
       id="g12"
       transform="scale(0.1)"><g
         id="g2490"
         style="fill:#000000;fill-opacity:1;stroke-width:0;stroke-miterlimit:4;stroke-dasharray:none"><g
           id="g3719"
           transform="matrix(1.5078867,0,0,1.5078867,-27.705769,-2504.0394)"><g
             id="g1984"
             transform="matrix(0.3846816,0,0,0.3846816,32.332373,3013.9624)"><g
               id="g2552"
               transform="matrix(1.3584517,0,0,1.3584517,-1052.965,1867.9341)"
               clip-path="url(#clipPath2007)"
               style="opacity:1;fill:#ffffff;fill-opacity:1;stroke:#fffafa;stroke-width:0;stroke-miterlimit:4;stroke-dasharray:none;stroke-opacity:1"><g
                 id="g2466"
                 transform="translate(-94.090013,-31.363338)"
                 style="fill:#ffffff;fill-opacity:1;stroke:#fffafa;stroke-width:0;stroke-miterlimit:4;stroke-dasharray:none;stroke-opacity:1"><g
                   id="g172"
                   transform="translate(0,-15.53896)"
                   style="fill:#ffffff;fill-opacity:1;stroke:#fffafa;stroke-width:0;stroke-miterlimit:4;stroke-dasharray:none;stroke-opacity:1"><g
                     id="g174"
                     clip-path="url(#clipPath178)"
                     transform="translate(-2.9431827e-6,15.538953)"
                     style="fill:#ffffff;fill-opacity:1;stroke:#fffafa;stroke-width:0;stroke-miterlimit:4;stroke-dasharray:none;stroke-opacity:1"><path
                       d="m 2097.6,1180.57 c 0,-336.511 -273.77,-610.281 -610.27,-610.281 -336.5,0 -610.275,273.77 -610.275,610.281 v 574 c 0,336.5 273.775,610.27 610.275,610.27 336.5,0 610.27,-273.77 610.27,-610.27 z m -610.27,1224.27 c -358.56,0 -650.275,-291.7 -650.275,-650.27 v -574 c 0,-358.57 291.715,-650.281 650.275,-650.281 358.56,0 650.27,291.711 650.27,650.281 v 574 c 0,358.57 -291.71,650.27 -650.27,650.27 z m 24.17,-937.83 c 35.42,5.45 55.38,41.98 56.16,73.58 0.82,32 -13.02,61.48 -25.2,87.5 -2.22,4.66 -7.78,6.65 -12.38,4.47 -4.66,-2.18 -6.67,-7.73 -4.49,-12.38 11.33,-24.14 24.16,-51.51 23.45,-79.12 -0.6,-24.4 -15.87,-51.88 -40.38,-55.65 -5.29,-0.81 -11.07,-0.6 -17.16,-0.34 -10.62,0.42 -22.69,0.91 -33.78,-4.77 -19.53,-9.99 -24,-31.25 -27.94,-50.01 -2.95,-14.04 -5.75,-27.3 -13.74,-35.83 -15.63,-16.71 -46.5,-9.58 -68.35,-2.79 -28.92,8.96 -64.93,16.21 -87.51,-7.62 -3.53,-3.72 -3.36,-9.61 0.36,-13.14 3.73,-3.56 9.62,-3.4 13.17,0.35 15.48,16.38 44.72,10.02 68.45,2.63 13.4,-4.17 29.67,-8.3 45.43,-8.3 15.6,0 30.73,4.05 42.06,16.15 11.52,12.31 14.99,28.79 18.34,44.72 3.55,16.8 6.6,31.32 18.2,37.26 6.74,3.44 15.4,3.09 24.56,2.74 6.71,-0.27 13.68,-0.53 20.75,0.55 z m -215.4,70.81 c 8.15,-0.2 16.31,-0.64 24.5,-1.07 23.65,-1.26 48.19,-2.56 72.39,1.87 30.69,5.64 67.77,24.47 79.84,60.46 8.54,25.43 2.18,52.58 -3.44,76.54 l -0.47,2.06 c -5.15,21.97 -9.84,47.07 -0.17,66.95 4.86,10.02 15.84,17.98 27.31,19.83 5.42,0.88 13.18,0.66 18.98,-5.33 3.59,-3.69 9.48,-3.8 13.17,-0.19 3.69,3.57 3.78,9.46 0.22,13.15 -8.89,9.16 -21.46,13.01 -35.31,10.75 -17.46,-2.8 -33.6,-14.61 -41.13,-30.09 -12.31,-25.36 -7.07,-54.23 -1.22,-79.31 l 0.49,-2.08 c 5.31,-22.58 10.79,-45.93 3.93,-66.35 -9.51,-28.32 -40.09,-43.4 -65.56,-48.08 -22.04,-4.03 -44.38,-2.83 -68.05,-1.6 -8.35,0.45 -16.69,0.9 -25,1.11 -26.84,0.62 -66.35,-0.98 -96.73,-23.04 -28.38,-20.6 -45.07,-64.08 -24.69,-95.97 1.76,-2.77 4.79,-4.3 7.84,-4.3 1.73,0 3.46,0.48 5.02,1.47 4.32,2.77 5.6,8.52 2.81,12.86 -14.5,22.71 -1.12,55.57 19.97,70.87 19.62,14.26 46.7,20.42 85.3,19.49 z m 626.01,580.87 c -21.28,26.45 -58.76,32.15 -86.75,14.38 -9.44,8.6 -19.38,16.62 -29.77,24.03 21.94,-1.44 44.11,8.04 57.92,27.19 v 0 c -27.38,19.75 -64.76,15.45 -87.09,-8.76 -14.81,8.24 -30.22,15.39 -46.25,20.98 -4.12,1.45 -8.62,-0.73 -10.05,-4.84 -1.45,-4.11 0.72,-8.61 4.84,-10.05 14.59,-5.1 28.63,-11.56 42.16,-18.96 -15.97,-28.84 -8.28,-65.7 19.12,-85.46 15.73,21.8 16.19,49.95 3.51,71.78 11.71,-7.85 22.84,-16.55 33.35,-25.97 -22.71,-23.6 -24.94,-60.92 -3.87,-87.1 v 0 c 21.16,17.02 29.03,44.41 22.24,69.02 8.87,-9.42 17.13,-19.38 24.74,-29.84 -27.99,-17.77 -38.8,-54.07 -23.95,-84.58 25.44,12.37 39.27,38.93 36.78,65.53 9.61,-15.55 17.76,-31.95 24.33,-48.97 -30.27,-13.28 -46.48,-47.41 -36.54,-79.78 v 0 c 24.62,7.55 41.56,28.22 45.65,51.98 1.21,-4.45 2.42,-8.88 3.4,-13.38 0.8,-3.69 4.07,-6.21 7.7,-6.21 0.56,0 1.11,0.06 1.68,0.18 4.25,0.93 6.95,5.13 6.02,9.39 -0.88,4.06 -2,8.06 -3.06,12.08 16.72,-15.86 41.24,-22.54 64.85,-15.29 -9.89,32.22 -42.2,51.33 -74.56,45.6 -4.96,13 -10.83,25.63 -17.5,37.85 18.02,-9.62 40.22,-10.82 59.99,-1.2 -14.69,30.19 -49.33,44.08 -80.33,33.66 -6.22,8.72 -12.82,17.18 -19.88,25.26 20.36,-6.44 43.44,-2.9 61.32,11.48 z m -241.43,-890.87 c -60.04,55.93 -127.87,91.37 -188.34,98.6 5.73,5.62 11.58,11.13 17.63,16.23 19.13,16.11 48.45,34.42 79.87,30.1 5.62,-0.79 11.24,-2.23 16.86,-3.68 14.07,-3.58 28.63,-7.28 43.65,-2.34 26.2,8.63 37.24,39.79 32.77,64.93 -4.06,22.79 -17.28,41.49 -30.06,59.59 l -1.64,2.3 c -11.96,16.99 -23.76,35.2 -24.99,54.71 -1.13,17.98 6.5,35.42 14.58,53.89 8.7,19.9 17.72,40.5 16.03,63.23 -0.42,5.39 -1.43,10.89 -2.46,16.38 -2.16,11.42 -4.01,21.31 0.21,29.02 2.99,5.47 6.96,8.2 12.29,9.64 1.73,-36.33 0.95,-73.08 -2.64,-110.54 -1.42,-14.61 -3.02,-31.17 3.36,-46.38 4.33,-10.31 13.01,-18.87 23.21,-22.91 4.03,-1.6 8.17,-2.4 12.23,-2.4 4.14,0 8.18,0.83 11.93,2.51 11.47,5.11 19.11,16.93 22.73,35.12 1.9,9.52 3.32,21.84 -2.75,32.66 -3.88,6.89 -11.19,11.98 -19.09,13.29 -6.86,1.1 -13.14,-0.63 -17.89,-4.9 -3.82,-3.43 -4.15,-9.32 -0.71,-13.14 3.43,-3.82 9.31,-4.14 13.15,-0.71 0.6,0.54 1.65,0.48 2.41,0.38 2.31,-0.38 4.8,-2.08 5.89,-4.03 3.08,-5.49 2,-13.52 0.73,-19.91 -2.38,-11.93 -6.44,-19.25 -12.06,-21.76 -3.56,-1.63 -7.25,-0.81 -9.74,0.2 -5.45,2.16 -10.51,7.19 -12.87,12.79 -4.56,10.89 -3.26,24.36 -1.85,38.8 3.55,37.32 4.35,75.18 2.52,112.67 7.61,0.17 15.44,0.4 23.04,2.7 27.23,8.23 55.87,38.45 68.98,62.72 4.49,8.3 7.57,17.69 9.12,27.41 14.51,-3.91 20.69,-26.58 27.02,-55.49 1.54,-7.02 3,-13.53 4.63,-19.43 -2.55,0.75 -5.19,1.23 -7.9,1.23 h -0.09 c -16.25,-0.05 -27.8,-13.12 -35.09,-22.94 l -1.55,-2.1 c -6.15,-8.36 -12.52,-17 -21,-19.62 -3.76,-1.16 -5.99,-5.02 -5.1,-8.86 0.79,-3.44 3.86,-5.81 7.3,-5.81 0.38,0 0.77,0.03 1.16,0.09 16.39,2.56 27.89,13.42 35.11,21.38 1.23,1.35 2.42,2.78 3.6,4.21 2.9,3.48 5.64,6.78 8.83,8.44 9.65,5.05 19.19,-0.97 22.84,-3.8 1.94,-1.49 4.43,-1.91 6.69,-1.25 9.7,-12.89 23.39,-26.56 41.34,-34.17 0.9,-0.38 1.14,-1.27 0.7,-3.37 -3.73,-3.37 -7.76,-6.51 -12,-9.28 -9.34,-6.14 -14.32,-16.96 -12.96,-28.22 1.1,-9.01 6.35,-16.5 14.13,-20.95 l -33.31,-23.22 35.58,-17.12 c -0.71,-1.35 -1.3,-2.77 -1.69,-4.26 -1.44,-5.49 -0.46,-11.35 3.02,-16.65 4.36,-6.6 5.38,-14.7 2.81,-22.2 -2.52,-7.47 -8.25,-13.23 -15.67,-15.78 -24.45,-8.43 -50.47,-10.78 -75.27,-6.78 -4,0.69 -7.8,-1.28 -9.69,-4.76 -24.62,-45.69 -50.07,-92.92 -67.64,-143.31 -16.39,-47.16 -23.74,-91.81 -21.9,-133.15 z M 1464.66,1325 c -11.38,-11.64 -23.16,-23.67 -35.85,-33.86 -15.91,-12.74 -47.53,-33.07 -80.51,-26.09 -17.14,3.63 -32.27,14.01 -48.29,25 -18.92,12.99 -38.49,26.41 -62.52,28.76 -2.57,0.25 -5.09,0.37 -7.6,0.37 -23.6,0 -45.11,-10.48 -65.98,-20.65 l -9.64,-4.65 c -30.44,-14.4 -54.27,-16.83 -70.81,-7.29 -24.26,13.96 -27.84,49.82 -26.6,77.44 2.85,62.73 18.39,125.96 45.01,182.85 10.87,23.26 26.73,51.46 53.04,63.31 26.47,11.92 58.12,5.26 88.78,-1.18 l 2.23,-0.46 c 19.64,-4.14 42.21,-7.62 61.37,3.03 16.85,9.38 28.27,28.86 31.32,53.43 3,24.07 -1.49,47.69 -5.82,70.52 -2.32,12.22 -4.72,24.86 -5.85,37.15 -2.85,31.34 7.03,69.89 35.45,80.44 17,6.3 36.82,1.84 57.82,-2.93 26.66,-6.04 54.24,-12.29 77.49,4.75 9.11,6.65 15.25,15.58 21.18,24.21 5.93,8.6 11.51,16.73 19.27,21.22 9.7,5.64 21.68,4.7 31.93,2.04 -3.12,-6.91 -6.12,-13.87 -8.8,-20.99 -24.89,-66.29 -28.75,-141.38 -4.76,-208 -7.86,21.81 11.9,66.39 20.86,86.02 12.56,27.52 30.28,52.7 51.91,73.84 19.99,19.54 42.15,30.15 65.26,43.99 19.38,2.94 37.62,5.06 52.69,-3.28 25.38,-14.05 27.78,-52.16 14.05,-77.56 -11.27,-20.82 -36.65,-47.3 -57.99,-53.75 -5.4,-1.63 -11.91,-1.77 -18.8,-1.92 -15.58,-0.35 -34.95,-0.77 -46.04,-21.03 -7.42,-13.57 -4.64,-28.36 -2.18,-41.41 0.91,-4.81 1.84,-9.62 2.18,-14.34 1.36,-18.11 -6.35,-35.73 -14.51,-54.37 -8.62,-19.69 -17.52,-40.05 -16.11,-62.52 1.55,-24.37 14.87,-45.11 28.38,-64.26 l 1.64,-2.33 c 11.6,-16.42 23.6,-33.4 26.93,-52.1 3.01,-16.95 -3.88,-38.59 -20.26,-43.98 -9.89,-3.26 -21.23,-0.37 -33.23,2.7 -6.3,1.61 -12.62,3.2 -18.91,4.06 -38.05,5.28 -72.38,-15.73 -94.42,-34.3 -11.87,-10 -22.76,-21.12 -33.31,-31.88 z m 149.65,580.12 c 9,0 16.29,-7.3 16.29,-16.29 0,-8.99 -7.29,-16.28 -16.29,-16.28 -8.99,0 -16.28,7.29 -16.28,16.28 0,8.99 7.29,16.29 16.28,16.29 z m 58.15,61.69 c 8.99,0 16.28,-7.3 16.28,-16.29 0,-9 -7.29,-16.28 -16.28,-16.28 -9,0 -16.29,7.28 -16.29,16.28 0,8.99 7.29,16.29 16.29,16.29 z m 47.71,-611.97 c 16.36,46.93 40.07,91.63 63.37,134.9 25.7,-3.09 52.51,-0.21 77.71,8.48 12.9,4.45 22.82,14.43 27.24,27.37 4.42,13 2.64,27.01 -5.22,38.93 -0.02,0.03 0.82,2.28 0.8,2.31 7.55,3.88 11.71,11.84 10.62,20.26 -0.73,5.77 -3.82,10.71 -8.36,13.86 0.41,0.77 0.79,1.58 1.16,2.41 2.16,5.02 2.13,10.59 -0.11,15.65 -2.33,5.27 -6.8,9.36 -12.51,11.33 -4.83,1.71 -5.85,6.1 -6.07,7.89 -0.4,3.28 0.62,7.75 4.69,10.42 5.05,3.32 9.85,7.03 14.29,11.07 5.16,4.67 7.53,11.64 6.35,18.63 -1.21,7.06 -5.8,12.92 -12.29,15.67 -14.86,6.29 -29.31,19.93 -40.69,38.42 -3.67,5.96 -6.35,18.15 -9.17,31.05 -6.15,28.17 -14.5,66.12 -44.21,70.35 -1.1,22.99 -10.99,45.08 -31.52,56.44 -13.26,7.35 -27.32,8.75 -41.5,7.97 6.21,13.49 6.29,29.99 5.84,46.17 -1.05,37.93 -13.08,75.69 -35.25,106.58 -43.56,-36.61 -80.94,-81.19 -106.94,-131.64 -15.47,4.69 -33.65,6.38 -49.57,-2.88 -11.4,-6.58 -18.46,-16.85 -25.29,-26.78 -5.29,-7.69 -10.28,-14.95 -16.84,-19.75 -16.44,-12.04 -38.77,-6.96 -62.36,-1.6 -22.67,5.15 -46.17,10.48 -68.42,2.22 -37.79,-14.04 -51.11,-60.12 -47.53,-99.58 1.2,-13.19 3.69,-26.27 6.11,-38.94 4.26,-22.41 8.28,-43.57 5.64,-64.73 -1.09,-8.81 -5.43,-30.3 -21.91,-39.47 -13.58,-7.54 -31.38,-4.66 -48.49,-1.08 l -2.22,0.48 c -32,6.71 -68.29,14.33 -100.25,-0.08 -31.89,-14.37 -50.03,-46.23 -62.27,-72.38 -27.64,-59.11 -43.78,-124.77 -46.72,-189.93 -2.17,-47.67 9.9,-79.44 35.88,-94.4 22.51,-12.97 51.33,-10.81 88.08,6.58 l 9.83,4.75 c 20.75,10.1 42.22,20.6 63.6,18.49 19.27,-1.88 36.05,-13.4 53.82,-25.58 16.81,-11.54 34.2,-23.47 54.96,-27.86 5.96,-1.27 11.85,-1.83 17.63,-1.83 33.38,0 62.64,18.98 78.36,31.6 12.48,10.02 23.78,21.35 34.68,32.46 65.76,-2.11 144.09,-43.71 210.49,-112.13 1.78,-1.85 4.21,-2.82 6.67,-2.82 1.4,0 2.8,0.3 4.11,0.95 3.61,1.78 5.67,5.68 5.1,9.68 -6.49,45.33 -0.2,95.84 18.68,150.09 z m 230.25,537.89 c -3.96,0 -7.81,-0.44 -11.53,-1.24 24.63,-5.3 43.1,-27.17 43.1,-53.38 0,-26.22 -18.47,-48.1 -43.1,-53.39 3.72,-0.8 7.57,-1.24 11.53,-1.24 30.17,0 54.63,24.45 54.63,54.63 0,30.16 -24.46,54.62 -54.63,54.62 z m -907.59,-843.4 c 3.96,0 7.81,0.45 11.54,1.25 -24.63,5.29 -43.11,27.16 -43.11,53.38 0,26.22 18.48,48.09 43.11,53.38 -3.73,0.8 -7.58,1.25 -11.54,1.25 -30.17,0 -54.627,-24.46 -54.627,-54.63 0,-30.17 24.457,-54.63 54.627,-54.63 z m 10.23,932.01 c -1.06,-4.03 -2.18,-8.02 -3.06,-12.09 -0.93,-4.26 1.77,-8.46 6.02,-9.39 0.57,-0.12 1.12,-0.18 1.69,-0.18 3.63,0 6.89,2.52 7.7,6.21 0.97,4.49 2.18,8.92 3.38,13.37 4.1,-23.76 21.03,-44.42 45.65,-51.97 9.94,32.37 -6.26,66.5 -36.54,79.78 6.57,17.03 14.72,33.43 24.33,48.98 -2.49,-26.61 11.34,-53.16 36.78,-65.54 14.85,30.51 4.05,66.82 -23.95,84.58 7.61,10.46 15.88,20.43 24.74,29.85 -6.79,-24.62 1.08,-52.01 22.24,-69.03 21.07,26.18 18.85,63.5 -3.87,87.1 10.51,9.43 21.65,18.12 33.35,25.98 -12.68,-21.84 -12.22,-49.99 3.51,-71.79 27.4,19.76 35.1,56.62 19.12,85.46 13.53,7.4 27.57,13.86 42.16,18.96 4.11,1.44 6.28,5.94 4.84,10.05 -1.42,4.11 -5.91,6.3 -10.05,4.84 -16.03,-5.59 -31.44,-12.74 -46.25,-20.98 -22.33,24.21 -59.71,28.51 -87.09,8.76 v 0 c 13.82,-19.14 35.98,-28.63 57.91,-27.19 -10.38,-7.41 -20.33,-15.43 -29.76,-24.03 -28,17.77 -65.47,12.07 -86.75,-14.38 17.88,-14.38 40.96,-17.92 61.32,-11.49 -7.06,-8.07 -13.66,-16.53 -19.88,-25.25 -31,10.42 -65.64,-3.47 -80.33,-33.66 19.78,-9.62 41.97,-8.42 59.99,1.2 -6.67,-12.22 -12.54,-24.85 -17.49,-37.85 -32.37,5.74 -64.68,-13.38 -74.567,-45.6 23.607,-7.25 48.137,-0.57 64.857,15.3 z m -10.23,-197.86 c 3.96,0 7.81,0.44 11.54,1.24 -24.63,5.29 -43.11,27.17 -43.11,53.39 0,26.21 18.48,48.08 43.11,53.38 -3.73,0.8 -7.58,1.24 -11.54,1.24 -30.17,0 -54.627,-24.46 -54.627,-54.62 0,-30.18 24.457,-54.63 54.627,-54.63 z m 429.44,399.04 -12.7,-22.62 21.52,12.09 15.54,-55.35 15.53,55.35 21.53,-12.09 -12.71,22.62 30.98,14.44 -30.98,14.46 12.71,22.6 -21.53,-12.09 -15.53,55.36 -15.54,-55.36 -21.52,12.09 12.7,-22.6 -30.98,-14.46 z M 1256.31,758.832 c -14.59,5.098 -28.63,11.547 -42.16,18.957 15.98,28.832 8.28,65.703 -19.12,85.461 -15.73,-21.801 -16.19,-49.949 -3.51,-71.789 -11.7,7.859 -22.84,16.551 -33.35,25.98 22.72,23.59 24.94,60.911 3.87,87.09 -21.16,-17.019 -29.03,-44.41 -22.24,-69.019 -8.86,9.418 -17.13,19.379 -24.74,29.84 28,17.769 38.8,54.07 23.95,84.589 -25.44,-12.382 -39.27,-38.941 -36.78,-65.55 -9.61,15.55 -17.76,31.961 -24.33,48.988 30.28,13.281 46.48,47.402 36.54,79.771 -24.62,-7.55 -41.55,-28.209 -45.65,-51.959 -1.2,4.43 -2.41,8.868 -3.38,13.36 -0.81,3.687 -4.07,6.211 -7.7,6.211 -0.57,0 -1.12,-0.051 -1.69,-0.172 -4.25,-0.93 -6.95,-5.141 -6.02,-9.399 0.88,-4.062 2,-8.07 3.06,-12.089 -16.72,15.878 -41.25,22.546 -64.857,15.296 9.887,-32.218 42.197,-51.328 74.567,-45.597 4.95,-13 10.82,-25.629 17.49,-37.84 -18.02,9.609 -40.21,10.82 -59.99,1.187 14.69,-30.179 49.33,-44.066 80.33,-33.656 6.22,-8.722 12.82,-17.183 19.88,-25.25 -20.36,6.43 -43.44,2.887 -61.32,-11.492 21.28,-26.449 58.75,-32.141 86.75,-14.371 9.43,-8.609 19.38,-16.629 29.76,-24.027 -21.93,1.429 -44.09,-8.051 -57.91,-27.192 v 0 c 27.38,-19.75 64.76,-15.461 87.09,8.75 14.81,-8.238 30.22,-15.379 46.25,-20.98 4.14,-1.45 8.63,0.73 10.05,4.84 1.44,4.121 -0.73,8.609 -4.84,10.062 z m 264.67,-0.902 12.71,22.609 -21.53,-12.09 -15.53,55.352 -15.54,-55.352 -21.52,12.09 12.7,-22.609 -30.98,-14.45 30.98,-14.449 -12.7,-22.609 21.52,12.09 15.54,-55.364 15.53,55.364 21.53,-12.09 -12.71,22.609 30.98,14.449 z m 429.44,400.66 c -3.96,0 -7.81,-0.45 -11.53,-1.25 24.63,-5.29 43.1,-27.16 43.1,-53.38 0,-26.22 -18.47,-48.09 -43.1,-53.38 3.72,-0.8 7.57,-1.25 11.53,-1.25 30.17,0 54.63,24.46 54.63,54.63 0,30.17 -24.46,54.63 -54.63,54.63 z m -22.2,-199.481 c 1.06,4.02 2.18,8.02 3.06,12.082 0.93,4.258 -1.77,8.469 -6.02,9.399 -0.57,0.121 -1.12,0.172 -1.68,0.172 -3.63,0 -6.9,-2.524 -7.7,-6.211 -0.98,-4.5 -2.19,-8.93 -3.4,-13.379 -4.09,23.758 -21.03,44.428 -45.65,51.978 v 0 c -9.94,-32.369 6.27,-66.49 36.54,-79.771 -6.57,-17.027 -14.72,-33.43 -24.33,-48.981 2.49,26.614 -11.34,53.161 -36.78,65.543 -14.85,-30.519 -4.04,-66.82 23.95,-84.589 -7.61,-10.454 -15.87,-20.422 -24.74,-29.832 6.79,24.609 -1.08,51.992 -22.24,69.011 v 0 c -21.07,-26.179 -18.84,-63.492 3.87,-87.09 -10.51,-9.429 -21.64,-18.121 -33.35,-25.98 12.68,21.84 12.22,49.988 -3.51,71.789 -27.4,-19.758 -35.09,-56.629 -19.12,-85.461 -13.53,-7.41 -27.57,-13.859 -42.16,-18.957 -4.12,-1.453 -6.29,-5.941 -4.84,-10.062 1.43,-4.11 5.93,-6.282 10.05,-4.84 16.03,5.601 31.44,12.742 46.25,20.992 22.33,-24.223 59.71,-28.512 87.09,-8.762 v 0 c -13.81,19.141 -35.98,28.629 -57.92,27.192 10.39,7.398 20.33,15.418 29.77,24.027 27.99,-17.77 65.47,-12.078 86.75,14.371 -17.88,14.391 -40.96,17.922 -61.32,11.492 7.06,8.067 13.66,16.528 19.88,25.258 31,-10.418 65.64,3.469 80.33,33.648 -19.77,9.633 -41.97,8.422 -59.99,-1.187 6.67,12.211 12.54,24.84 17.5,37.84 32.36,-5.731 64.67,13.39 74.56,45.597 -23.61,7.25 -48.13,0.582 -64.85,-15.289"
                       style="fill:#ffffff;fill-opacity:1;fill-rule:nonzero;stroke:#fffafa;stroke-width:0;stroke-miterlimit:4;stroke-dasharray:none;stroke-opacity:1"
                       id="path194" /></g></g></g></g><circle
               style="opacity:1;fill:none;fill-opacity:1;stroke:#ffffff;stroke-width:12;stroke-miterlimit:4;stroke-dasharray:none;stroke-opacity:1"
               id="path2775"
               cx="-548.20038"
               cy="-5176.1211"
               r="904.48108"
               transform="matrix(-1,0,0,1,414.82646,9163.856)"
               clip-path="url(#clipPath1811)" /></g></g></g></g></g></svg>
