<svg xmlns="http://www.w3.org/2000/svg" version="1.1" xmlns:xlink="http://www.w3.org/1999/xlink" xmlns:svgjs="http://svgjs.dev/svgjs" viewBox="0 0 800 800"><defs><linearGradient x1="50%" y1="0%" x2="50%" y2="100%" id="wwwhirl-grad"><stop stop-color="hsl(162, 100%, 58%)" stop-opacity="1" offset="45%"></stop><stop stop-color="hsl(270, 73%, 53%)" stop-opacity="1" offset="100%"></stop></linearGradient></defs><g stroke-width="2" stroke="url(#wwwhirl-grad)" fill="none" stroke-linecap="round"><path d="M37.00000251770027 411.6769103210902C50.75000289917 395.1769098633265 75.50000358581553 325.87690794071904 103.000004348755 332.4769081238245C130.50000511169446 339.07690830692997 141.5000054168703 433.66316093106036 169.00000617980973 443.3569111999965C196.5000069427492 453.0506614689326 207.50000724792503 378.1819093918299 235.00000801086446 379.0069094147181C262.500008773804 379.8319094376063 273.5000090789798 454.5356615101314 301.0000098419193 447.31691130985973C328.50001060485874 440.0981611095882 339.5000109100345 340.2319083389734 367.000011672974 344.35690845341435C394.50001243591345 348.48190856785527 405.5000127410893 457.42316159024006 433.0000135040287 467.1169118591762C460.5000142669682 476.8106621281124 471.50001457214404 400.3744100075221 499.0000153350834 390.88690974430796C526.5000160980228 381.3994094810938 537.5000164031987 420.1331605556941 565.0000171661382 421.5769105957484C592.5000179290777 423.02066063580276 603.5000182342535 388.3294096733546 631.000018997193 397.8169099365687C658.5000197601325 407.30441019978286 669.5000200653083 468.3544118935085 697.0000208282477 467.1169118591762C724.5000215911871 465.87941182484394 749.2500222778326 407.55191020664927 763.0000226593024 391.8769097717738 " transform="rotate(99, 400, 400)"></path><path d="M48.00000244140632 411.3230749575042C61.33333614464971 395.3230745136122 85.3333368104878 328.12307264926557 112.00000421697456 334.5230728268224C138.6666716234613 340.9230730043792 149.33333858605602 432.64307554899045 176.00000599254278 442.043075809777C202.66667339902952 451.44307607056356 213.33334036162427 378.8430740564034 240.000007768111 379.643074078598C266.6666751745978 380.44307410079256 277.3333421371925 452.8830761105139 304.00000954367925 445.8830759163111C330.66667695016605 438.88307572210834 341.3333439127607 342.04307303545164 368.00001131924745 346.04307314642466C394.66667872573424 350.0430732573977 405.33334568832896 455.683076188195 432.00001309481576 465.08307644898156C458.66668050130244 474.48307670976817 469.3333474638972 400.36307465343816 496.0000148703839 391.16307439820025C522.6666822768707 381.96307414296234 533.3333492394653 419.5230751849989 560.0000166459522 420.9230752238395C586.666684052439 422.32307526268005 597.3333510150337 388.683074329397 624.0000184215204 397.8830745846349C650.6666858280073 407.0830748398729 661.3333527906019 466.2830764822735 688.0000201970887 465.08307644898156C714.6666876035754 463.8830764156897 738.6666882694134 407.3230748465312 752.0000219726569 392.1230744248338 " transform="rotate(96, 400, 400)"></path><path d="M59.00000236511238 410.969220520432C71.9166693901294 395.46922009041157 95.16667003516005 330.3692182843257 121.00000408519412 336.5692184563339C146.83333813522813 342.76921862834206 157.1666717552418 431.6229710934342 183.0000058052758 440.7292213460712C208.83333985530987 449.8354715987082 219.1666734753235 379.5042196474905 245.00000752535757 380.2792196689915C270.8333415753916 381.0542196904926 281.1666751954052 451.23047163741006 307.0000092454393 444.44922144927614C332.83334329547336 437.66797126114216 343.16667691548696 343.85421865844353 369.00001096552097 347.72921876594864C394.83334501555504 351.6042188734537 405.1666786355687 453.9429717126636 431.0000126856027 463.0492219653006C456.8333467356368 472.15547221793764 467.16668035565044 400.351720225868 493.0000144056845 391.4392199786062C518.8333484557185 382.5267197313445 529.1666820757321 418.91297074081746 555.0000161257661 420.26922077844426C580.8333501758003 421.625470816071 591.1666837958139 389.03671991195307 617.000017845848 397.9492201592148C642.8333518958821 406.8617204064766 653.1666855158957 464.21172199755216 679.0000195659296 463.0492219653006C704.8333536159636 461.8867219330491 728.0833542609943 407.09422041292686 741.0000212860114 392.36922000440745 " transform="rotate(93, 400, 400)"></path><path d="M70.00000228881842 410.6153813421488C82.50000263560909 395.61538092599994 105.00000325983231 332.615379178175 130.00000395341365 338.6153793446345C155.00000464699497 344.61537951109403 165.00000492442751 430.60288189666704 190.00000561800886 439.41538214115445C215.0000063115902 448.22788238564186 225.00000658902275 380.1653804973667 250.00000728260406 380.9153805181741C275.00000797618543 381.6653805389816 285.000008253618 449.5778824230953 310.0000089471993 443.0153822410302C335.00000964078066 436.4528820589651 345.00000991821315 345.6653795402244 370.0000106117945 349.41537964426163C395.00001130537584 353.16537974829885 405.0000115828084 452.2028824959213 430.0000122763897 461.01538274040877C455.000012969971 469.8278829848962 465.0000132474036 400.3403810570868 490.00001394098496 391.71538081780125C515.0000146345662 383.0903805785157 525.0000149119987 418.302881555425 550.0000156055801 419.61538159183806C575.0000162991615 420.92788162825104 585.000016576594 389.3903807532982 610.0000172701755 398.01538099258374C635.0000179637568 406.64038123186936 645.0000182411893 462.1403827716199 670.0000189347705 461.01538274040877C695.0000196283519 459.8903827091976 717.5000202525752 406.8653812381116 730.0000205993658 392.6153808427702 " transform="rotate(90, 400, 400)"></path><path d="M81.00000221252448 410.2615269050765C93.08333588108879 395.7615265027993 114.83333648450457 334.8615248132352 139.0000038216332 340.661524974146C163.1666711587618 346.4615251350569 172.83333809361326 429.5827774411108 197.0000054307419 438.10152767744864C221.16667276787052 446.6202779137865 230.833339702722 380.8265260884538 255.00000703985063 381.55152610856766C279.16667437697924 382.27652612868155 288.83334131183074 447.9252779499915 313.00000864895935 441.58152777399516C337.16667598608797 435.23777759799896 346.8333429209394 347.4765251632163 371.000010258068 351.1015252637856C395.16667759519663 354.72652536435487 404.8333445300481 450.46277802039 429.00001186717674 458.9815282567278C453.16667920430535 467.50027849306565 462.8333461391569 400.32902662951665 487.00001347628546 391.99152639820727C511.1666808134141 383.6540261668979 520.8333477482655 417.6927771112436 545.0000150853941 418.9615271464428C569.1666824225229 420.23027718164207 578.8333493573742 389.7440263358543 603.000016694503 398.0815265671637C627.1666840316316 406.41902679847306 636.8333509664831 460.06902828689863 661.0000183036116 458.9815282567278C685.1666856407402 457.894028226557 706.9166862441559 406.6365268045072 719.0000199127203 392.8615264223439 " transform="rotate(87, 400, 400)"></path><path d="M92.00000213623053 409.907683912096C103.6666691265685 395.9076835236905 124.66666970917683 337.1076818923871 148.00000368985275 342.70768204774936C171.33333767052864 348.3076822031116 180.666671262799 428.5626844296464 204.00000524347493 436.7876846578347C227.33333922415085 445.01268488602295 236.66667281642125 381.48768312363273 260.00000679709717 382.187683143053C283.33334077777306 382.8876831624733 292.66667437004344 446.27268492097943 316.0000083507193 440.147684751052C339.3333423313953 434.02268458112457 348.66667592366565 349.2876822303 372.00000990434154 352.78768232740134C395.3333438850174 356.28768242450275 404.6666774772878 448.7226849889504 428.00001145796375 456.94768521713866C451.3333454386397 465.1726854453269 460.6666790309101 400.3176836460382 484.000013011586 392.26768342270503C507.33334699226185 384.21768319937183 516.6666805845323 417.08268411115387 540.0000145652082 418.3076841451393C563.3333485458841 419.53268417912483 572.6666821381544 390.09768336250215 596.0000161188304 398.14768358583535C619.3333500995063 406.19768380916855 628.6666836917767 457.9976852462691 652.0000176724526 456.94768521713866C675.3333516531285 455.89768518800827 696.3333522357368 406.4076838149946 708.0000192260748 393.10768344600933 " transform="rotate(84, 400, 400)"></path><path d="M103.00000205993659 409.55384091911554C114.25000237204819 396.0538405445816 134.5000029338491 339.3538389715391 157.00000355807228 344.7538391213527C179.50000418229547 350.15383927116625 188.5000044319848 427.542591418182 211.00000505620795 435.4738416382206C233.50000568043117 443.4050918582593 242.50000593012047 382.14884015881165 265.0000065543437 382.82384017753833C287.5000071785669 383.49884019626506 296.5000074282562 444.6200918919674 319.0000080524794 438.71384172810883C341.5000086767026 432.80759156425023 350.50000892639184 351.0988392973836 373.00000955061506 354.4738393910171C395.5000101748383 357.8488394846506 404.5000104245276 446.98259195751086 427.00001104875076 454.9138421775495C449.500011672974 462.8450923975882 458.5000119226633 400.30634066255976 481.00001254688647 392.5438404472028C503.50001317110963 384.7813402318458 512.5000134207988 416.47259111106416 535.0000140450221 417.65384114383585C557.5000146692455 418.8350911766076 566.5000149189347 390.45134038915 589.0000155431579 398.213840604507C611.5000161673811 405.97634081986405 620.5000164170704 455.92634220563957 643.0000170412935 454.9138421775495C665.5000176655168 453.9013421494595 685.7500182273176 406.17884082548204 697.0000185394292 393.3538404696748 " transform="rotate(81, 400, 400)"></path><path d="M114.00000198364263 409.1999941114378C124.83333561752788 396.1999937507755 144.33333615852135 341.59999223599385 166.0000034262918 346.79999238025874C187.6666706940623 351.9999925245237 196.3333376011705 426.5224945920203 218.000004868941 434.1599948039094C239.6666721367115 441.79749501579846 248.3333390438197 382.8099933792933 270.0000063115902 383.45999339732646C291.6666735793607 384.10999341535955 300.33334048646896 442.9674950482581 322.0000077542394 437.27999489046834C343.6666750220099 431.5924947326786 352.3333419291181 352.90999254977004 374.0000091968886 356.1599926399356C395.6666764646591 359.4099927301012 404.3333433717673 445.242495111374 426.0000106395378 452.8799953232631C447.66667790730827 460.5174955351522 456.3333448144165 400.2949938643841 478.00001208218697 392.8199936570033C499.66667934995746 385.34499344962245 508.33334625706556 415.8624942962772 530.0000135248362 416.99999432783517C551.6666807926067 418.13749435939314 560.3333476997147 390.80499360110065 582.0000149674854 398.27999380848144C603.6666822352558 405.7549940158623 612.3333491423641 453.8549953503128 634.0000164101345 452.8799953232631C655.666683677905 451.90499529621343 675.1666842188985 405.94999402127223 686.0000178527837 393.59999367864305 " transform="rotate(78, 400, 400)"></path><path d="M125.00000190734869 408.8461511184573C135.41666886300757 396.34615077166666 154.1666693831936 343.8461493151458 175.00000329451137 348.8461494538621C195.83333720582914 353.84614959257834 204.16667077035626 425.5024015805559 225.00000468167406 432.8461517842954C245.83333859299182 440.1899019880349 254.16667215751897 383.4711504144722 275.00000606883674 384.0961504318118C295.8333399801545 384.7211504491513 304.16667354468166 441.31490201924606 325.0000074559994 435.8461518675251C345.8333413673172 430.37740171580424 354.16667493184434 354.7211496168537 375.00000884316205 357.84614970355136C395.8333427544799 360.971149790249 404.166676319007 443.5024020799344 425.0000102303248 450.846152283674C445.83334414164256 458.1899024874135 454.1666777061697 400.28365088090567 475.0000116174875 393.09615068150106C495.83334552880524 385.9086504820964 504.1666790933323 415.25240129618754 525.0000130046501 416.3461513265317C545.8333469159679 417.4399013568759 554.166680480495 391.1586506277485 575.0000143918128 398.34615082715317C595.8333483031306 405.5336510265578 604.1666818676579 451.78365230968325 625.0000157789755 450.846152283674C645.8333496902933 449.9086522576647 664.5833502104794 405.72115103175963 675.0000171661382 393.8461507023085 " transform="rotate(75, 400, 400)"></path><path d="M136.00000183105476 408.492296681385C146.00000210848728 396.49229634846597 164.00000260786584 346.092294950206 184.00000316273093 350.8922950833736C204.00000371759597 355.69229521654125 212.000003939542 424.48229712499966 232.00000449440708 431.5322973205896C252.00000504927215 438.5822975161795 260.0000052712182 384.13229600555934 280.0000058260833 384.73229602220533C300.0000063809483 385.33229603885127 308.00000660289436 439.6622975461422 328.00000715775946 434.41229740049016C348.00000771262455 429.1622972548381 356.00000793457053 356.53229523984555 376.0000084894356 359.53229532307535C396.00000904430067 362.5322954063051 404.0000092662467 441.76229760440305 424.0000098211118 448.812297799993C444.0000103759769 455.86229799558294 452.0000105979229 400.27229645333546 472.000011152788 393.372296261907C492.000011707653 386.4722960704786 500.00001192959905 414.64229685200604 520.0000124844642 415.6922968811365C540.0000130393292 416.7422969102669 548.0000132612753 391.51229621030456 568.0000138161404 398.41229640173304C588.0000143710055 405.3122965931615 596.0000145929514 449.7122978249619 616.0000151478165 448.812297799993C636.0000157026815 447.91229777502406 654.00001620206 405.49229659815524 664.0000164794926 394.09229628188217 " transform="rotate(72, 400, 400)"></path><path d="M146.9999864959717 408.1384575031018C156.5833200951779 396.6384571840544 173.83332057374906 348.33845584405526 192.9999877721614 352.9384559716742C212.16665497057375 357.53845609929317 219.8333218499387 423.4622079282325 238.99998904835104 430.21845811567283C258.1666562467634 436.9747083031132 265.8333231261284 384.7934568554356 284.9999903245407 385.36845687138793C304.1666575229531 385.9434568873403 311.83332440231806 438.0097083318275 330.9999916007304 432.97845819224426C350.1666587991428 427.947208052661 357.83332567850766 358.3434561216265 376.99999287692003 361.21845620138834C396.1666600753324 364.0934562811502 403.8333269546974 440.0222083876608 422.99999415310975 446.7784585751011C442.1666613515221 453.5347087625415 449.83332823088705 400.2609572845543 468.9999954292994 393.64845710110205C488.16666262771173 387.0359569176498 495.83332950707666 414.0322076666136 514.9999967054891 415.0384576945303C534.1666639039015 416.0447077224469 541.8333307832664 391.86595705164973 560.9999979816788 398.478457235102C580.1666651800912 405.09095741855424 587.8333320594561 447.64095859902966 606.9999992578685 446.7784585751011C626.1666664562807 445.9159585511726 643.4166669348518 405.26345742333996 653.000000534058 394.3384571202449 " transform="rotate(69, 400, 400)"></path><path d="M157.99998641967778 407.7846106954241C167.1666533406576 396.7846103902483 183.6666537984213 350.58460910850994 201.99998764038094 354.9846092305803C220.33332148234058 359.3846093526506 227.66665501912445 422.44211110207084 245.9999888610841 428.9046112813616C264.33332270304373 435.3671114606524 271.6666562398276 385.45461007591723 289.99999008178725 386.004610091176C308.3333239237469 386.5546101064348 315.6666574605308 436.3571114881182 333.99999130249046 431.5446113546038C352.3333251444501 426.7321112210894 359.6666586812339 360.1546093740129 377.99999252319355 362.90460945030685C396.3333263651532 365.6546095266008 403.6666599019371 438.28211154152393 421.99999374389677 444.7446117208147C440.3333275858564 451.20711190010553 447.6666611226403 400.24961048637863 465.9999949645999 393.92461031090255C484.3333288065595 387.5996101354265 491.6666623433434 413.4221108518267 509.9999961853031 414.38461087852954C528.3333300272627 415.3471109052324 535.6666635640465 392.2196102636003 553.9999974060063 398.5446104390764C572.3333312479659 404.86961061455247 579.6666647847499 445.5696117437029 597.9999986267094 444.7446117208147C616.3333324686689 443.91961169792654 632.8333329264326 405.03461061913015 641.9999998474125 394.5846103292131 " transform="rotate(66, 400, 400)"></path><path d="M168.99998634338385 407.4307638877463C177.7499865861373 396.93076359644215 193.49998702309355 352.83076237296467 210.9999875086005 357.03076248948634C228.4999879941074 361.230762606008 235.49998818831023 421.42201427590913 252.99998867381714 427.59076444705033C270.49998915932406 433.7595146181915 277.49998935352687 386.1157632963989 294.9999898390338 386.6407633109641C312.4999903245407 387.16576332552927 319.4999905187435 434.70451464440885 336.99999100425043 430.1107645169633C354.49999148975735 425.5170143895177 361.49999168396016 361.9657626263993 378.9999921694671 364.59076269922537C396.49999265497405 367.2157627720514 403.4999928491768 436.54201469538714 420.9999933346837 442.7107648665283C438.4999938201907 448.87951503766953 445.4999940143935 400.23826368820295 462.9999944999004 394.20076352070305C480.4999949854073 388.1632633532032 487.4999951796101 412.8120140370397 504.99999566511707 413.7307640625288C522.4999961506239 414.64951408801795 529.4999963448267 392.5732634755509 546.9999968303338 398.6107636430508C564.4999973158407 404.6482638105507 571.4999975100434 443.4982648883761 588.9999979955503 442.7107648665283C606.4999984810572 441.9232648446805 622.2499989180135 404.8057638149203 630.999999160767 394.8307635381813 " transform="rotate(63, 400, 400)"></path><path d="M179.9999862670899 407.0769247094631C188.33331983161702 397.0769244320306 203.3333202477658 355.07692326681394 219.99998737682003 359.07692337778695C236.66665450587425 363.0769234887599 243.33332135749595 420.40192507914196 259.9999884865502 426.2769252421336C276.6666556156044 432.1519254051252 283.33332246722614 386.77692414627506 299.99998959628033 387.2769241601467C316.6666567253345 387.7769241740183 323.3333235769563 433.0519254300941 339.9999907060105 428.6769253087174C356.6666578350647 424.30192518734066 363.3333246866864 363.77692350818023 379.9999918157406 366.27692357753835C396.6666589447948 368.7769236468965 403.33332579641655 434.8019254786448 419.9999929254708 440.67692564163644C436.666660054525 446.55192580462807 443.3333269061467 400.2269245194218 459.9999940352009 394.47692435989813C476.6666611642551 388.7269242003744 483.33332801587676 412.2019248516473 499.99999514493106 413.0769248759226C516.6666622739854 413.951924900198 523.333329125607 392.9269243168961 539.9999962546613 398.6769244764198C556.6666633837156 404.42692463594346 563.3333302353371 441.42692566244386 579.9999973643913 440.67692564163644C596.6666644934455 439.926925620829 611.6666649095944 404.57692464010495 619.9999984741214 395.07692437654407 " transform="rotate(60, 400, 400)"></path><path d="M190.99998619079594 406.7230702723908C198.9166530770967 397.22307000882995 213.16665347243807 357.3230689018741 228.99998724503956 361.12306900729845C244.83332101764108 364.9230691127228 251.1666545266817 419.3818206235857 266.99998829928325 424.9630707784278C282.8333220718847 430.5443209332698 289.16665558092535 387.4380697373622 304.99998935352687 387.9130697505402C320.83332312612833 388.38806976371825 327.166656635169 431.3993209569903 342.9999904077705 427.2430708416824C358.833324180372 423.0868207263745 365.1666576894126 365.5880691311721 380.9999914620141 367.96306919706234C396.8333252346156 370.33806926295256 403.1666587436563 433.06182100311344 418.99999251625775 438.6430711579555C434.83332628885927 444.22432131279754 441.1666597978999 400.2155700918516 456.99999357050143 394.7530699403041C472.8333273431029 389.29056978875656 479.1666608521435 411.5918204074658 494.99999462474506 412.4230704305274C510.8333283973466 413.25432045358895 517.1666619063872 393.28056989945213 532.9999956789886 398.7430700509997C548.8333294515903 404.2055702025472 555.1666629606309 439.35557117772254 570.9999967332324 438.6430711579555C586.8333305058338 437.9305711381884 601.0833309011753 404.3480702065006 608.9999977874759 395.32306995611776 " transform="rotate(57, 400, 400)"></path><path d="M201.999986114502 406.3692234647131C209.49998632257638 397.3692232150238 222.99998669711033 359.5692221663288 237.99998711325912 363.16922226620454C252.99998752940792 366.76922236608027 258.99998769586745 418.3617237974241 273.99998811201624 423.6492239441165C288.9999885281651 428.936724090809 294.99998869462456 388.09922295784384 309.9999891107734 388.5492229703283C324.9999895269222 388.9992229828128 330.99998969338174 429.746724113281 345.99999010953053 425.80922400404194C360.9999905256793 421.87172389480287 366.9999906921388 367.3992223835585 381.99999110828765 369.6492224459808C396.99999152443644 371.8992225084031 402.99999169089597 431.32172415697664 417.99999210704476 436.60922430366907C432.99999252319355 441.89672445036155 438.99999268965314 400.2042232936759 453.99999310580193 395.0292231501046C468.9999935219507 389.85422300653323 474.9999936884102 410.98172359267886 489.99999410455905 411.76922361452665C504.9999945207079 412.5567236363745 510.9999946871674 393.6342231114028 525.9999951033162 398.8092232549741C540.9999955194651 403.98422339854545 546.9999956859245 437.2842243223958 561.9999961020733 436.60922430366907C576.9999965182221 435.9342242849424 590.499996892756 404.11922340229074 597.9999971008303 395.56922316508593 " transform="rotate(54, 400, 400)"></path><path d="M212.99998603820805 406.0153804717326C220.08331956805608 397.51538023591496 232.8333199217826 361.8153792454808 246.99998698147868 365.21537933980784C261.16665404117475 368.6153794341349 266.8333208650532 417.34163078595964 280.9999879247493 422.3353809245025C295.16665498444536 427.32913106304534 300.83332180832383 388.76037999302275 314.99998886801995 389.1853800048136C329.166655927716 389.61038001660455 334.83332275159444 428.09413108426895 348.99998981129056 424.3753809810987C363.1666568709866 420.65663087792854 368.83332369486504 369.21037945064217 382.99999075456117 371.3353795095966C397.16665781425723 373.460379568551 402.8333246381357 429.58163112553706 416.9999916978318 434.5753812640799C431.1666587575279 439.5691314026228 436.8333255814063 400.1928803101975 450.99999264110244 395.30538017460236C465.1666597007985 390.4178800390072 470.8333265246769 410.37163059258916 484.99999358437304 411.1153806132232C499.16666064406917 411.85913063385726 504.8333274679476 393.9878801380506 518.9999945276437 398.87538027364576C533.1666615873398 403.76288040924095 538.8333284112182 435.2128812817663 552.9999954709143 434.5753812640799C567.1666625306103 433.9378812463936 579.9166628843368 403.8903804127782 586.9999964141849 395.8153801887514 " transform="rotate(51, 400, 400)"></path><path d="M223.9999859619141 405.66153366405484C230.6666528135358 397.6615334421088 242.66665314645485 364.0615325099355 255.99998684969822 367.2615325987139C269.3333205529416 370.4615326874923 274.66665403423895 416.32153395979793 287.99998773748234 421.02153409019127C301.3333214407257 425.72153422058454 306.6666549220231 389.4215332135044 319.99998862526644 389.8215332246017C333.33332232850984 390.22153323569904 338.6666558098072 426.4415342405597 351.99998951305054 422.9415341434583C365.33332321629393 419.4415340463569 370.6666566975913 371.0215327030286 383.9999904008347 373.02153275851504C397.3333241040781 375.02153281400155 402.66665758537545 427.8415342794002 415.99999128861884 432.5415344097935C429.3333249918621 437.2415345401868 434.66665847315954 400.1815335120218 447.9999921764029 395.58153338440286C461.3333258796463 390.9815332567839 466.6666593609436 409.7615337778022 479.99999306418704 410.4615337972225C493.33332676743044 411.16153381664276 498.6666602487278 394.3415333500012 511.99999395197113 398.94153347762017C525.3333276552146 403.5415336052392 530.666661136512 433.1415344264395 543.9999948397553 432.5415344097935C557.3333285429986 431.94153439314755 569.3333288759177 403.66153360856833 575.9999957275394 396.06153339771964 " transform="rotate(48, 400, 400)"></path><path d="M234.99998588562016 405.30768876372576C241.2499860590155 397.80768855565134 252.49998637112708 366.30768768173886 264.99998671791775 369.3076877649686C277.4999870647084 372.3076878481984 282.49998720342467 415.3014390409849 294.99998755021534 419.7076891632286C307.499987897006 424.1139392854723 312.4999880357223 390.0826883413347 324.999988382513 390.45768835173845C337.49998872930365 390.83268836214216 342.49998886801995 424.788939304199 354.9999892148106 421.5076892131665C367.4999895616013 418.2264391221339 372.49998970031754 372.8326878627636 384.9999900471082 374.7076879147822C397.4999903938989 376.5826879668008 402.49999053261513 426.10143934061205 414.9999908794058 430.50768946285575C427.49999122619647 434.91393958509946 432.4999913649127 400.17018862119477 444.9999917117034 395.857688501552C457.49999205849406 391.5451883819092 462.4999921972103 409.1514388703639 474.999992544001 409.8076888885704C487.4999928907917 410.4639389067769 492.49999302950795 394.6951884693005 504.9999933762987 399.00768858894327C517.4999937230893 403.32018870858604 522.4999938618056 431.0701894784613 534.9999942085963 430.50768946285575C547.4999945553868 429.9451894472502 558.7499948674986 403.43268871170716 564.9999950408939 396.30768851403644 " transform="rotate(45, 400, 400)"></path><path d="M245.9999858093262 404.95384004869936C251.83331930449518 397.9538398544966 262.33331959579937 368.55383903884496 273.9999865861373 371.35383911652605C285.66665357647526 374.15383919420714 290.33332037261044 414.2813403074746 301.9999873629484 418.3938404215687C313.6666543532864 422.50634053566284 318.3333211494216 390.7438396544677 329.9999881397595 391.0938396641779C341.66665513009747 391.443839673888 346.33332192623266 423.13634055314105 357.9999889165706 420.07384046817737C369.66665590690855 417.0113403832137 374.3333227030438 374.64383920780136 385.99998969338174 376.39383925635207C397.6666566837197 378.1438393049027 402.3333234798548 424.36134058712656 413.9999904701928 428.4738407012207C425.6666574605308 432.5863408153148 430.33332425666595 400.15883991567046 441.99999124700395 396.13383980400386C453.66665823734184 392.10883969233726 458.3333250334771 408.5413401482283 469.999992023815 409.153840165221C481.66665901415297 409.7663401822138 486.33332581028816 395.04883977390244 497.99999280062616 399.07383988556904C509.6666597909641 403.09883999723564 514.3333265870992 428.9988407157859 525.9999935774372 428.4738407012207C537.6666605677751 427.9488406866555 548.1666608590793 403.20384000014866 553.9999943542483 396.55383981565603 " transform="rotate(42, 400, 400)"></path><path d="M256.99998573303225 404.5999970557189C262.41665254997486 398.0999968753877 272.1666528204716 370.7999961179969 282.9999864543569 373.3999961901294C293.8333200882421 375.99999626226185 298.1666535417962 413.26124729601014 308.99998717568144 417.0799974019547C319.83332080956666 420.89874750789926 324.1666542631208 391.4049966896467 334.999987897006 391.72999669866323C345.8333215308913 392.0549967076798 350.1666549844454 421.48374752412906 360.99998861833063 418.63999744523414C371.8333222522159 415.7962473663393 376.16665570577 376.45499627488505 386.99998933965526 378.0799963199678C397.8333229735405 379.7049963650506 402.1666564270946 422.621247555687 412.9999900609798 426.43999766163154C423.83332369486504 430.2587477675761 428.1666571484192 400.14749693219204 438.9999907823044 396.4099968285017C449.83332441618967 392.67249672481125 454.16665786974374 407.9312471481386 464.999991503629 408.49999716391756C475.8333251375143 409.0687471796966 480.1666585910683 395.4024968005503 490.99999222495364 399.1399969042407C501.83332585883886 402.87749700793114 506.166659312393 426.92749767515636 516.9999929462782 426.43999766163154C527.8333265801634 425.9524976481067 537.5833268506601 402.9749970106361 542.9999936676028 396.7999968393215 " transform="rotate(39, 400, 400)"></path><path d="M267.9999856567383 404.24615024804115C272.99998579545456 398.2461500815816 281.9999860451438 373.04614938245163 291.99998632257643 375.44614944903543C301.9999866000089 377.84614951561923 305.99998671098194 412.24115046984844 315.9999869884145 415.7661505676434C325.99998726584704 419.2911506654384 329.99998737682006 392.06614991012833 339.99998765425255 392.3661499184513C349.9999879316851 392.66614992677427 353.9999880426581 419.83115068041974 363.99998832009067 417.2061506075937C373.9999885975232 414.5811505347677 377.9999887084962 378.2661495272714 387.9999889859287 379.7661495688863C397.9999892633613 381.2661496105012 401.9999893743343 420.8811507095502 411.99998965176684 424.4061508073451C421.9999899291994 427.9311509051401 425.9999900401724 400.13615013401636 435.9999903176049 396.6861500383021C445.99999059503745 393.23614994258793 449.99999070601046 407.3211503333516 459.999990983443 407.8461503479169C469.99999126087556 408.37115036248207 473.9999913718486 395.75615001250094 483.9999916492811 399.2061501082151C493.9999919267137 402.65615020392937 497.99999203768664 424.8561508198296 507.9999923151192 424.4061508073451C517.9999925925517 423.95615079486066 526.999992842241 402.74615020642625 531.9999929809572 397.04615004828975 " transform="rotate(36, 400, 400)"></path><path d="M279.0000008392334 403.8923072550607C283.58333429972333 398.3923071024728 291.8333345286052 375.29230646160363 301.000001449585 377.4923065226388C310.1666683705648 379.69230658367394 313.8333351389567 411.22105745838405 323.0000020599366 414.4523075480294C332.16666898091637 417.6835576376748 335.83333574930833 392.72730694530725 345.00000267028815 393.00230695293664C354.166669591268 393.277306960566 357.83333635965994 418.17855765140774 367.00000328063976 415.77230758465055C376.1666702016196 413.3660575178933 379.8333369700115 380.0773065943551 389.0000038909913 381.4523066325021C398.16667081197113 382.827306670649 401.8333375803631 419.1410576781106 411.0000045013429 422.372307767756C420.16667142232274 425.60355785740137 423.8333381907147 400.12480715053795 433.00000511169446 396.96230706279994C442.1666720326743 393.79980697506187 445.83333880106625 406.711057333262 455.00000572204607 407.1923073466134C464.1666726430259 407.67355735996483 467.8333394114178 396.1098070391488 477.0000063323977 399.27230712688686C486.1666732533775 402.43480721462487 489.83334002176946 422.7848077792001 499.0000069427492 422.372307767756C508.166673863729 421.9598077563119 516.4166740926108 402.5173072169137 521.0000075531008 397.2923070719552 " transform="rotate(33, 400, 400)"></path><path d="M290.00000076293946 403.53846044738293C294.16666754520304 398.53846030866663 301.66666775327747 377.5384597260583 310.00000131780456 379.5384597815448C318.33333488233166 381.5384598370313 321.6666683081425 410.20096063222235 330.0000018726696 413.13846071371813C338.33333543719675 416.075960795214 341.6666688630076 393.3884601657889 350.0000024275347 393.6384601727247C358.3333359920618 393.8884601796605 361.66666941787264 416.5259608076984 370.0000029823998 414.33846074701006C378.3333365469269 412.1509606863217 381.66666997273774 381.8884598467415 390.00000353726483 383.13845988142054C398.3333371017919 384.38845991609963 401.66667052760283 417.40096083197375 410.0000040921299 420.3384609134696C418.333337656657 423.2759609949654 421.6666710824679 400.11346035236227 430.00000464699497 397.23846027260043C438.3333382115221 394.36346019283855 441.6666716373329 406.100960518475 450.00000520186006 406.53846053061267C458.3333387663872 406.9759605427504 461.666672192198 396.4634602510994 470.00000575672516 399.33846033086127C478.3333393212523 402.2134604106231 481.6666727470631 420.7134609238733 490.0000063115902 420.3384609134696C498.3333398761173 419.9634609030659 505.8333400841917 402.28846041270384 510.00000686645524 397.5384602809234 " transform="rotate(30, 400, 400)"></path><path d="M301.00000068664554 403.1846098250079C304.75000079068275 398.68460970016326 311.5000009779497 379.7846091758158 319.00000118602406 381.58460922575364C326.5000013940985 383.3846092756915 329.5000014773283 409.1808599913634 337.00000168540265 411.82461006470965C344.5000018934771 414.46836013805586 347.5000019767068 394.0496095715733 355.00000218478124 394.2746095778155C362.50000239285566 394.49960958405774 365.5000024760854 414.8733601492919 373.00000268415977 412.90461009467236C380.5000028922342 410.93586004005283 383.50000297546393 383.6996092844306 391.00000318353835 384.8246093156418C398.5000033916127 385.9496093468529 401.5000034748425 415.6608601711397 409.00000368291694 418.3046102444859C416.5000038909913 420.9483603178321 419.5000039742211 400.1021097394893 427.00000418229547 397.51460966770367C434.5000043903699 394.927109595918 437.50000447359963 405.49085988899077 445.00000468167406 405.8846098999147C452.5000048897485 406.2783599108386 455.5000049729782 396.81710964835275 463.00000518105264 399.4046097201384C470.50000538912707 401.99210979192407 473.5000054723568 418.64211025384924 481.0000056804312 418.3046102444859C488.5000058885056 417.96711023512256 495.25000607577255 402.05960979379677 499.0000061798097 397.78460967519436 " transform="rotate(27, 400, 400)"></path><path d="M312.00000061035155 402.8307649246788C315.33333403616246 398.8307648137058 321.3333342026219 382.03076434761914 328.0000010542436 383.63076439200836C334.6666679058653 385.2307644363975 337.333334646514 408.16076507255036 344.0000014981357 410.510765137747C350.6666683497574 412.86076520294364 353.3333350904061 394.71076469940357 360.0000019420278 394.9107647049522C366.6666687936495 395.11076471050086 369.33333553429816 413.2207652129312 376.0000023859198 411.4707651643805C382.6666692375415 409.7207651158298 385.3333359781902 385.51076444416566 392.0000028298119 386.5107644719089C398.6666696814336 387.51076449965217 401.33333642208225 413.92076523235147 408.00000327370395 416.2707652975481C414.6666701253256 418.6207653627448 417.3333368659743 400.0907648486623 424.000003717596 397.7907647848528C430.6666705692177 395.4907647210433 433.33333730986635 404.8807649815525 440.00000416148805 405.2307649912626C446.66667101310975 405.58076500097275 449.3333377537584 397.170764767652 456.0000046053801 399.47076483146145C462.6666714570018 401.77076489527093 465.3333381976505 416.5707653058711 472.0000050492722 416.2707652975481C478.66667190089385 415.97076528922514 484.6666720673534 401.83076489693553 488.0000054931642 398.03076479151116 " transform="rotate(24, 400, 400)"></path><path d="M323.0000005340576 402.476920978024C325.9166672816421 398.9769208809226 331.1666674272942 384.27692047309677 337.0000009224632 385.67692051193734C342.83333441763216 387.0769205507779 345.1666678156997 407.1406711074116 351.0000013108687 409.1969211644587C356.8333348060377 411.25317122150574 359.16666820410535 395.37192078090817 365.0000016992743 395.54692078576323C370.8333351944433 395.72192079061836 373.16666859251086 411.56817123024484 379.00000208767983 410.036921187763C384.8333355828488 408.50567114528116 387.1666689809164 387.32192055757497 393.0000024760854 388.19692058185035C398.83333597125437 389.0719206061257 401.16666936932194 412.18067124723757 407.00000286449097 414.2369213042847C412.83333635965994 416.29317136133176 415.1666697577275 400.07942091150954 421.0000032528965 398.06692085567624C426.83333674806545 396.05442079984294 429.1666701461331 404.27067102778847 435.00000364130204 404.57692103628483C440.833337136471 404.8831710447812 443.16667053453864 397.52442084062557 449.0000040297076 399.5369208964588C454.8333375248766 401.54942095229217 457.16667092294415 414.4994213115673 463.0000044181131 414.2369213042847C468.8333379132821 413.97442129700204 474.0833380589342 401.6019209537487 477.0000048065187 398.27692086150233 " transform="rotate(21, 400, 400)"></path><path d="M334.0000004577637 402.12307703136923C336.5000005271218 399.12307694813944 341.00000065196645 386.52307659857445 346.00000079068275 387.7230766318664C351.000000929399 388.92307666515825 353.0000009848855 406.12057714227285 358.0000011236018 407.88307719117034C363.00000126231805 409.64557724006784 365.00000131780456 396.03307686241277 370.0000014565208 396.1830768665743C375.0000015952371 396.3330768707358 377.00000165072356 409.91557724755853 382.00000178943986 408.6030772111455C387.00000192815617 407.29057717473245 389.0000019836426 389.13307667098434 394.00000212235886 389.88307669179176C399.00000226107517 390.63307671259923 401.0000023165617 410.4405772621237 406.0000024552779 412.2030773110212C411.0000025939942 413.9655773599187 413.00000264948073 400.0680769743568 418.000002788197 398.3430769264997C423.0000029269132 396.61807687864257 425.0000029823998 403.66057707402445 430.00000312111604 403.92307708130704C435.0000032598323 404.18557708858964 437.00000331531885 397.8780769135991 442.0000034540351 399.6030769614562C447.00000359275134 401.32807700931335 449.00000364823785 412.42807731726344 454.00000378695415 412.2030773110212C459.0000039256704 411.978077304779 463.50000405051503 401.37307701056176 466.00000411987315 398.5230769314935 " transform="rotate(18, 400, 400)"></path><path d="M344.99999656677244 401.76923022369147C347.08332995790425 399.26923015433334 350.83333006194147 388.7692298630292 354.99999684420504 389.7692298907724C359.16666362646856 390.7692299185157 360.833330339374 405.1004803161112 364.99999712163753 406.56923035685907C369.1666639039011 408.037980397607 370.8333306168065 396.6942300828945 374.9999973990701 396.8192300863624C379.16666418133366 396.9442300898303 380.83333089423905 408.2629804038492 384.99999767650263 407.169230373505C389.16666445876615 406.07548034316085 390.8333311716716 390.94422992337076 394.9999979539351 391.5692299407103C399.1666647361987 392.1942299580498 400.83333144910415 408.7004804159869 404.9999982313677 410.1692304567348C409.16666501363125 411.6379804974827 410.8333317265367 400.05673017618113 414.9999985088002 398.6192301363002C419.1666652910638 397.1817300964193 420.8333320039692 403.0504802592375 424.99999878623277 403.26923026530636C429.16666556849634 403.4879802713752 430.83333228140174 398.2317301255497 434.9999990636653 399.66923016543063C439.1666658459289 401.1067302053116 440.8333325588343 410.35673046193665 444.9999993410978 410.1692304567348C449.1666661233614 409.98173045153294 452.9166662273986 401.14423020635195 454.99999961853035 398.7692301404617 " transform="rotate(15, 400, 400)"></path><path d="M355.9999964904785 401.4153834160137C357.66666320338396 399.4153833605272 360.6666632866137 391.01538312748386 363.99999671242455 391.8153831496785C367.3333301382354 392.6153831718731 368.66666350855974 404.0803834899495 371.9999969343706 405.2553835225478C375.33333036018144 406.43038355514614 376.6666637305058 397.35538330337613 379.9999971563166 397.45538330615045C383.3333305821275 397.5553833089248 384.6666639524518 406.6103835601399 387.9999973782626 405.73538353586457C391.3333308040735 404.86038351158925 392.66666417439785 392.7553831757571 395.99999760020864 393.2553831896288C399.33333102601955 393.7553832035004 400.6666643963439 406.9603835698501 403.9999978221547 408.13538360244837C407.33333124796553 409.3103836350467 408.6666646182899 400.04538337800545 411.9999980441007 398.89538334610074C415.33333146991157 397.745383314196 416.6666648402359 402.44038344445056 419.99999826604676 402.6153834493056C423.3333316918576 402.7903834541607 424.66666506218195 398.58538333750033 427.9999984879928 399.73538336940504C431.33333191380365 400.8853834013098 432.666665284128 408.28538360660986 435.99999870993884 408.13538360244837C439.33333213574963 407.9853835982869 442.3333322189794 400.9153834021421 443.9999989318849 399.0153833494299 " transform="rotate(12, 400, 400)"></path><path d="M366.9999964141846 401.061536608336C368.2499964488636 399.5615365667211 370.499996511286 393.2615363919386 372.9999965806441 393.8615364085845C375.49999665000223 394.4615364252305 376.49999667774546 403.0602866637878 378.99999674710364 403.9415366882365C381.49999681646176 404.8227867126853 382.49999684420504 398.0165365238578 384.9999969135631 398.0915365259385C387.4999969829213 398.16653652801926 388.4999970106645 404.95778671643063 390.9999970800227 404.30153669822414C393.4999971493808 403.6452866800176 394.49999717712404 394.56653642814354 396.99999724648217 394.94153643854725C399.49999731584035 395.31653644895096 400.4999973435836 405.22028672371323 402.9999974129417 406.10153674816195C405.4999974822998 406.9827867726107 406.4999975100431 400.0340365798298 408.9999975794012 399.17153655590124C411.49999764875935 398.30903653197265 412.49999767650263 401.8302866296636 414.99999774586075 401.9615366333049C417.4999978152189 402.0927866369462 418.49999784296216 398.9390365494509 420.9999979123203 399.80153657337945C423.4999979816784 400.66403659730804 424.4999980094217 406.21403675128306 426.9999980787798 406.10153674816195C429.49999814813793 405.98903674504083 431.74999821056025 400.6865365979322 432.99999824523934 399.2615365583981 " transform="rotate(9, 400, 400)"></path><path d="M378.0000001525879 400.7076898006582C378.8333335090406 399.707689772915 380.3333335506555 395.5076896563933 382.0000002635609 395.9076896674906C383.66666697646633 396.3076896785879 384.3333336616285 402.0401898376261 386.0000003745339 402.6276898539253C387.66666708743935 403.21518987022444 388.3333337726015 398.67768974433943 390.0000004855069 398.7276897457266C391.66666719841237 398.77768974711375 392.33333388357454 403.3051898727213 394.00000059647994 402.86768986058365C395.6666673093854 402.430189848446 396.33333399454756 396.37768968052995 398.00000070745295 396.62768968746576C399.6666674203584 396.87768969440157 400.3333341055206 403.4801898775764 402.000000818426 404.0676898938756C403.6666675313314 404.6551899101747 404.33333421649354 400.0226897816541 406.000000929399 399.44768976570174C407.66666764230445 398.8726897497494 408.33333432746656 401.2201898148766 410.000001040372 401.3076898173042C411.66666775327747 401.39518981973174 412.3333344384396 399.2926897614015 414.00000115134503 399.8676897773539C415.6666678642505 400.4426897933063 416.3333345494126 404.1426898959563 418.00000126231805 404.0676898938756C419.66666797522345 403.99268989179484 421.16666801683834 400.4576897937224 422.00000137329107 399.50768976736634 " transform="rotate(6, 400, 400)"></path><path d="M389.00000007629393 400.35384490032914C389.4166667545203 399.85384488645747 390.1666667753277 397.75384482819663 391.00000013178044 397.9538448337453C391.83333348823317 398.1538448392939 392.1666668308143 401.0200949188131 393.00000018726695 401.31384492696264C393.8333335437197 401.6075949351122 394.16666688630073 399.3388448721697 395.00000024275346 399.3638448728633C395.8333335992062 399.3888448735569 396.1666669417873 401.6525949363607 397.00000029823997 401.4338449302918C397.8333336546927 401.21509492422297 398.16666699727375 398.18884484026495 399.0000003537265 398.31384484373285C399.8333337101792 398.4388448472008 400.16666705276026 401.7400949387882 401.000000409213 402.0338449469378C401.8333337656657 402.32759495508736 402.16666710824677 400.01134489082705 403.0000004646995 399.72384488285087C403.8333338211522 399.4363448748747 404.1666671637333 400.61009490743834 405.000000520186 400.6538449086521C405.83333387663873 400.69759490986587 406.1666672192198 399.6463448807008 407.0000005756725 399.93384488867696C407.83333393212524 400.22134489665314 408.1666672747063 402.07134494797816 409.000000631159 402.0338449469378C409.8333339876117 401.9963449458974 410.5833340084192 400.22884489686123 411.00000068664554 399.75384488368314 " transform="rotate(3, 400, 400)"></path></g></svg>