<?xml version="1.0" encoding="UTF-8" standalone="no"?>
<svg
   version="1.1"
   id="svg2"
   xml:space="preserve"
   width="666.66669"
   height="666.66669"
   viewBox="0 0 666.66669 666.66669"
   sodipodi:docname="ap1.svg"
   inkscape:version="1.1.1 (c3084ef, 2021-09-22)"
   xmlns:inkscape="http://www.inkscape.org/namespaces/inkscape"
   xmlns:sodipodi="http://sodipodi.sourceforge.net/DTD/sodipodi-0.dtd"
   xmlns="http://www.w3.org/2000/svg"
   xmlns:svg="http://www.w3.org/2000/svg"
   xmlns:rdf="http://www.w3.org/1999/02/22-rdf-syntax-ns#"
   xmlns:cc="http://creativecommons.org/ns#"
   xmlns:dc="http://purl.org/dc/elements/1.1/"><metadata
     id="metadata8"><rdf:RDF><cc:Work
         rdf:about=""><dc:format>image/svg+xml</dc:format><dc:type
           rdf:resource="http://purl.org/dc/dcmitype/StillImage" /></cc:Work></rdf:RDF></metadata><defs
     id="defs6"><linearGradient
       id="linearGradient6526"
       inkscape:swatch="solid"><stop
         style="stop-color:#fff073;stop-opacity:1;"
         offset="0"
         id="stop6524" /></linearGradient><clipPath
       clipPathUnits="userSpaceOnUse"
       id="clipPath72"><path
         d="m 4085.3,3245.43 c 0,-336.5 -273.77,-610.27 -610.27,-610.27 -336.5,0 -610.27,273.77 -610.27,610.27 v 574.01 c 0,336.5 273.77,610.27 610.27,610.27 336.5,0 610.27,-273.77 610.27,-610.27 z m -610.27,1224.28 c -358.57,0 -650.27,-291.72 -650.27,-650.27 v -574.01 c 0,-358.55 291.7,-650.27 650.27,-650.27 358.56,0 650.27,291.72 650.27,650.27 v 574.01 c 0,358.55 -291.71,650.27 -650.27,650.27 z m -425.12,-745.15 c -3.72,0.8 -7.58,1.25 -11.53,1.25 -30.18,0 -54.63,-24.47 -54.63,-54.64 0,-30.17 24.45,-54.63 54.63,-54.63 3.95,0 7.81,0.45 11.53,1.25 -24.63,5.29 -43.1,27.17 -43.1,53.38 0,26.22 18.47,48.09 43.1,53.39 z m 71.67,246.77 -155.12,20.46 c -5.58,0.76 -10.38,-3.1 -11.1,-8.51 -0.71,-5.42 3.1,-10.38 8.52,-11.1 l 155.11,-20.45 c 0.45,-0.06 0.88,-0.09 1.31,-0.09 4.89,0 9.13,3.62 9.79,8.59 0.72,5.42 -3.09,10.39 -8.51,11.1 z m 868.5,-458.89 -21.53,-12.09 -15.53,55.36 -15.54,-55.36 -21.52,12.09 12.7,-22.61 -30.97,-14.45 30.97,-14.45 -12.7,-22.61 21.52,12.1 15.54,-55.36 15.53,55.36 21.53,-12.1 -12.71,22.61 30.98,14.45 -30.98,14.45 z m -150.32,447.79 c 0.65,-4.97 4.9,-8.59 9.79,-8.59 0.42,0 0.86,0.03 1.3,0.09 l 155.13,20.45 c 5.41,0.72 9.22,5.68 8.5,11.1 -0.71,5.41 -5.57,9.29 -11.09,8.51 l -155.13,-20.46 c -5.42,-0.71 -9.22,-5.68 -8.5,-11.1 z m 80.18,-726.4 c 3.71,-0.8 7.57,-1.24 11.52,-1.24 30.18,0 54.63,24.46 54.63,54.63 0,30.17 -24.45,54.63 -54.63,54.63 -3.95,0 -7.81,-0.44 -11.52,-1.24 24.63,-5.3 43.1,-27.18 43.1,-53.39 0,-26.21 -18.47,-48.09 -43.1,-53.39 z m -140.65,487.46 c -1.86,-16.61 -9.71,-31.43 -21.54,-40.66 -7.24,-5.64 -16.39,-9.4 -26.49,-10.84 l -23.59,-3.38 19.05,-14.32 c 3.62,-2.72 7.17,-5.56 10.59,-8.55 25.42,-22.2 46.03,-59.29 34.72,-92.07 -3.8,-11.02 -10.9,-21.29 -18.42,-32.18 -12.54,-18.15 -25.5,-36.92 -23.22,-60.54 1.32,-13.73 7.72,-25.76 13.9,-37.4 7.26,-13.66 13.53,-25.47 10.22,-36.94 -5.08,-17.59 -29.36,-19.48 -44.06,-15.27 -10.63,3.05 -20.14,9.19 -28.59,16.3 -8.61,7.24 -16.25,15.53 -23.87,23.79 -28.13,30.5 -55.16,59.52 -70.89,98.65 -6.55,16.29 -14.84,30.27 -24.53,42.64 -4.65,9.78 -11.06,19.09 -21.62,27.01 -4.64,3.49 -9.6,6.75 -14.73,9.93 7.87,25.67 1.71,54.72 -18.6,75.02 -14,-14.02 -21.12,-32.2 -21.69,-50.56 -6.67,3.81 -13.49,7.59 -20.49,11.31 17.77,28.9 14.22,67.21 -10.81,92.24 -19.6,-19.64 -25.99,-47.44 -19.28,-72.46 -9.24,9.2 -18.33,18.25 -27.13,27 22.43,29.41 20.29,71.59 -6.59,98.46 -19.71,-19.75 -26.05,-47.75 -19.18,-72.87 -9.99,9.9 -19.24,19.07 -27.41,27.15 22.64,29.42 20.55,71.77 -6.4,98.71 -18.23,-18.27 -24.91,-43.59 -20.39,-67.17 l -4.94,-0.19 c -2.6,2.56 -4.2,4.14 -4.33,4.26 -3.91,3.85 -10.15,3.78 -13.99,-0.1 -1.15,-1.18 -1.84,-2.59 -2.28,-4.07 -9.77,0.42 -18.9,1.38 -27.25,2.99 -8.83,2.42 -17.15,5.65 -24.64,10.17 l -27.07,16.33 c -1.29,1.45 -2.71,2.8 -3.87,4.36 -12.72,17.12 -16.73,42.01 -10.41,64.95 5.77,21 19.92,41.28 39.84,57.12 33.8,26.86 80.97,37.71 123.06,28.34 27.46,-6.11 52.2,-19.61 78.38,-33.91 12.32,-6.72 25.04,-13.66 38.02,-19.74 l 22.92,-10.71 -9.58,23.42 c -9.22,22.52 -1.27,50.69 18.09,64.13 21.17,14.67 54.16,10.16 70.59,-9.71 1.95,-2.35 3.77,-4.91 5.59,-7.46 5.79,-8.15 12.36,-17.38 23.41,-21.76 12.29,-4.86 26.96,-2.32 41.33,7.13 4.28,2.82 8.3,6.01 12.31,9.21 4.96,3.96 9.64,7.69 14.65,10.44 15.17,8.29 35.6,7.1 49.69,-2.88 14.11,-9.98 22.04,-28.9 19.28,-45.98 -1.7,-10.54 -6.88,-21.05 -12.38,-32.17 -9.4,-19.07 -19.12,-38.77 -11.56,-60.57 4.47,-12.92 13.75,-21.8 22.7,-30.39 3.98,-3.8 7.98,-7.6 11.41,-11.79 9.52,-11.61 13.91,-27.8 12.07,-44.42 z m -534.77,24.54 c 6.85,-2.82 14.22,-5.15 22.2,-6.94 4.44,-1.36 9.06,-2.41 13.77,-3.3 -11.45,-2.37 -22.41,-7.4 -31.95,-15.18 z m 476.89,-626.36 c -55.49,-16.53 -113.28,-24.89 -171.76,-24.89 -6.51,0 -12.95,0.22 -20.06,0.48 v 0.89 c -3.31,19.56 -5.95,40.4 -8.52,60.58 -7.34,57.7 -14.94,117.37 -39.41,172.8 l -5.83,10.21 -9.83,-6.76 c -4.51,-3.08 -12.02,-7.89 -16.78,-10.53 -48.21,-26.8 -101.9,-43.53 -130.01,-51.21 -14.69,-3.98 -30.26,0.79 -40.18,12.03 -13.23,14.98 -17.06,35.92 -9.33,56.43 l 0.54,2.24 c 0.42,3.34 -0.85,10.38 -2.24,16.66 -1.77,7.91 -0.48,16.19 3.71,23.13 l 21.97,36.51 -33.15,33.38 c -5.25,5.27 -11.93,8.88 -19.22,10.37 v 0 c -27.96,5.67 -41.86,22.09 -48.6,34.87 -4.9,9.29 -2.68,21 5.28,27.83 11.15,9.57 21.3,21.83 30.14,36.45 4.17,6.9 7.73,14.17 10.97,21.6 2.17,0.62 4.14,1.9 5.48,3.86 3.76,5.45 14.16,17.85 29.67,15.16 5.11,-0.9 10.23,-4.18 15.66,-7.65 2.21,-1.41 4.42,-2.83 6.66,-4.12 11.14,-6.44 27.31,-14.37 46.04,-14.37 3.25,0 6.57,0.23 9.96,0.75 5.18,0.81 8.86,5.49 8.44,10.71 -0.43,5.19 -4.77,9.18 -9.97,9.18 h -0.36 c -12.62,0 -24.89,8.89 -36.75,17.48 l -2.99,2.17 c -13.93,10.01 -34.96,22.5 -56.51,15.7 -0.52,-0.17 -0.99,-0.44 -1.51,-0.63 2.8,18.48 3.22,37.59 0.81,56.81 l -3.35,21.21 c 23.09,-17.63 54.01,-20.04 79.24,-7.17 3.56,-6.29 7.48,-12.2 11.7,-17.78 -16.63,-1.63 -32.81,-8.72 -45.55,-21.49 22.46,-22.46 55.58,-27.55 82.99,-15.49 7.34,-5.6 14.98,-10.75 22.82,-15.61 -19.12,-0.02 -38.23,-7.27 -52.82,-21.89 26.94,-26.94 69.23,-28.99 98.59,-6.3 9.21,-9.22 18.39,-18.42 27.38,-27.46 -25.16,6.95 -53.22,0.57 -72.98,-19.23 26.89,-26.89 69.07,-28.98 98.43,-6.43 0.15,-0.16 0.31,-0.32 0.46,-0.47 1.94,-1.95 4.49,-2.94 7.04,-2.94 2.51,0 5.02,0.95 6.95,2.86 3.88,3.84 3.91,10.11 0.08,13.98 -0.19,0.19 -0.37,0.38 -0.56,0.57 0.96,1.25 1.81,2.55 2.67,3.85 10.57,-8.36 20.25,-17.42 28.65,-27.76 -4.41,-2.04 -8.36,-4.85 -11.64,-8.56 -8.1,-9.13 -11.6,-22.22 -9.88,-36.89 2.88,-24.35 18.7,-43.85 31.41,-59.54 11.75,-14.47 25.06,-30.88 27.41,-49.38 2.83,-22.11 -13.11,-45.6 -34.81,-51.31 -21.84,-5.74 -47.01,6.51 -56.26,27.25 -3.8,8.55 -4.51,17.38 -1.92,24.24 2.53,6.74 8.94,11.75 14.99,11.75 h 0.19 c 5.01,0.5 9.96,4.27 10.06,9.72 0.1,5.45 -4.25,9.97 -9.71,10.06 -14.48,0.19 -28.52,-9.85 -34.04,-24.57 -4.47,-11.84 -3.63,-25.78 2.36,-39.25 10.97,-24.62 36.79,-40.41 63.11,-40.41 5.43,0 10.89,0.68 16.24,2.09 31.33,8.23 53.49,40.96 49.42,72.94 -3.07,24.08 -18.93,43.63 -31.69,59.33 -11.1,13.7 -24.92,30.74 -27.11,49.4 -1.04,8.85 0.79,16.67 5.02,21.45 1.09,1.22 2.39,2.18 3.78,3 2.86,-8.87 5.81,-18.04 10.54,-27.21 11.89,-23.1 30.12,-44.75 48.94,-64.79 8.03,-9.87 16.98,-19.81 26.87,-29.89 1.16,-95.79 32.65,-202.51 82.66,-280 z m 48.09,672.32 c -7.62,7.28 -14.79,14.16 -17.7,22.57 -4.86,14 2.3,28.52 10.61,45.34 5.89,11.94 11.98,24.3 14.16,37.79 3.99,24.63 -7.01,50.85 -27.36,65.26 -20.34,14.42 -48.73,16.04 -70.62,4.08 -6.52,-3.56 -12.11,-8.01 -17.5,-12.32 -3.53,-2.82 -7.06,-5.66 -10.82,-8.13 -4.13,-2.71 -14.65,-8.65 -23.19,-5.29 -5.63,2.24 -9.98,8.36 -14.6,14.84 -2.09,2.95 -4.2,5.89 -6.45,8.61 -22.98,27.77 -67.44,33.91 -97.1,13.35 -20.61,-14.29 -31.89,-40.59 -30.14,-66 -6.22,3.28 -12.39,6.65 -18.56,10.02 -26.24,14.32 -53.37,29.13 -83.55,35.85 -48.53,10.78 -100.74,-1.22 -139.68,-32.17 -23.17,-18.43 -39.72,-42.35 -46.59,-67.35 -8.02,-29.13 -2.93,-59.78 13.6,-82 5.22,-7.01 11.44,-13.11 18.59,-18.37 l 11.56,-73.06 c 5.06,-40.48 -3.09,-80.84 -22.95,-113.63 -7.75,-12.82 -16.54,-23.47 -26.1,-31.68 -14.9,-12.79 -19.06,-34.7 -9.89,-52.07 7.81,-14.81 22.92,-33.38 51.49,-42.3 -2.11,-7.48 -2.99,-13.39 -2.7,-17.92 0.42,-6.08 3.36,-11.01 7.69,-16.72 -0.06,-0.2 -0.14,-0.4 -0.22,-0.61 -1.4,-3.84 -3.51,-9.64 -3.51,-16.54 0,-12.51 9.04,-21.22 15.69,-27.61 1.01,-0.96 2.02,-1.94 2.89,-2.82 2.52,-9.51 3.97,-17.63 3.98,-18.2 -9.66,-25.61 -4.41,-54.25 13.68,-74.72 14.79,-16.81 38.26,-23.98 60.19,-18.04 29.77,8.14 87.31,26.11 138.34,55.2 1.82,1.04 3.59,2.12 5.38,3.27 19.77,-49.84 26.66,-103.95 33.34,-156.43 2.59,-20.4 5.28,-41.51 8.48,-59.62 l -0.13,-18.37 19.15,-0.71 c 6.89,-0.25 13.76,-0.49 20.69,-0.49 61.29,0 121.81,8.9 179.93,26.47 l 22.82,6.92 -13.05,19.97 v 0.01 c -45.39,69.33 -75.16,163.74 -80.1,251.41 0.57,-0.52 1.07,-1.03 1.65,-1.55 14.63,-13.37 32.56,-27.5 54.67,-31.1 2.9,-0.47 5.88,-0.7 8.9,-0.7 3.98,0 7.97,0.53 11.92,1.34 -0.1,-0.48 -0.26,-1.03 -0.58,-1.6 -1.27,-2.32 -3.83,-4.61 -7.04,-7.5 -5.33,-4.78 -11.28,-10.54 -14.44,-18.46 -4.21,-10.53 -1.72,-22.4 6.06,-28.88 6.35,-5.26 13.78,-5.65 19.75,-5.95 2.7,-0.14 5.25,-0.27 7.1,-0.82 6.68,-1.99 9.53,-12.27 7.54,-19.79 -2.73,-10.26 -11.44,-19.19 -19.13,-27.08 -3.81,-3.91 -3.74,-10.17 0.17,-13.98 1.92,-1.88 4.41,-2.82 6.9,-2.82 2.58,0 5.15,1 7.08,2.99 8.93,9.15 20.03,20.54 24.1,35.82 4.44,16.82 -2.93,38.44 -21.03,43.82 -4.11,1.22 -8.15,1.43 -11.72,1.61 -3.36,0.17 -6.83,0.35 -8.11,1.41 -1,0.83 -1.37,3.78 -0.34,6.33 1.58,3.96 5.45,7.65 9.77,11.53 3.65,3.27 7.79,6.97 10.68,12.27 3.32,6.06 3.94,12.76 2,18.53 8.53,5.47 15.34,13.43 18.37,23.93 5.53,19.16 -3.67,36.45 -11.77,51.71 -5.52,10.38 -10.73,20.19 -11.68,29.99 -1.57,16.44 8.82,31.49 19.81,47.42 7.95,11.51 16.16,23.4 20.84,36.97 14.7,42.64 -10.16,85.4 -37.17,110.51 5.94,2.48 11.46,5.68 16.37,9.52 16.01,12.47 26.59,32.18 29.03,54.05 2.43,21.88 -3.56,43.43 -16.43,59.15 -3.93,4.79 -8.48,9.18 -13.02,13.54 z m 207.87,-685.92 12.71,22.62 -21.53,-12.1 -15.53,55.36 -15.54,-55.36 -21.52,12.1 12.7,-22.62 -30.97,-14.44 30.97,-14.45 -12.7,-22.61 21.52,12.09 15.54,-55.36 15.53,55.36 21.53,-12.09 -12.71,22.61 30.98,14.45 z m -927.46,234.74 c -3.72,0.8 -7.58,1.24 -11.53,1.24 -30.18,0 -54.63,-24.46 -54.63,-54.63 0,-30.17 24.45,-54.63 54.63,-54.63 3.95,0 7.81,0.44 11.53,1.24 -24.63,5.3 -43.1,27.18 -43.1,53.39 0,26.21 18.47,48.09 43.1,53.39 z m 3.98,171.83 -21.53,-12.09 -15.53,55.36 -15.53,-55.36 -21.53,12.09 12.7,-22.61 -30.98,-14.45 30.98,-14.45 -12.7,-22.61 21.53,12.1 15.53,-55.36 15.53,55.36 21.53,-12.1 -12.7,22.61 30.97,14.45 -30.97,14.45 z m 277.36,623.34 c 1.71,-3.51 5.23,-5.55 8.9,-5.55 1.45,0 2.93,0.32 4.32,1 4.91,2.4 6.95,8.32 4.55,13.22 l -73.6,150.75 c -2.39,4.91 -8.32,6.95 -13.22,4.54 -4.91,-2.4 -6.95,-8.31 -4.54,-13.22 z m 427.57,-75.93 c 2.07,0 4.15,0.64 5.93,1.99 l 128.99,96.98 c 4.37,3.28 5.24,9.48 1.95,13.84 -3.28,4.37 -9.46,5.23 -13.83,1.97 l -128.99,-96.99 c -4.36,-3.28 -5.24,-9.48 -1.96,-13.84 1.94,-2.59 4.9,-3.95 7.91,-3.95 z m -110.42,70.91 c 1.06,-0.35 2.14,-0.53 3.2,-0.53 4.11,0 7.95,2.58 9.36,6.68 l 51.71,150.74 c 1.76,5.17 -0.99,10.79 -6.16,12.56 -5.15,1.74 -10.78,-0.98 -12.56,-6.15 l -51.7,-150.74 c -1.77,-5.16 0.98,-10.78 6.15,-12.56 z m -163.48,49.4 c 5.47,0 9.89,4.42 9.89,9.88 v 143.41 c 0,5.47 -4.42,9.89 -9.89,9.89 -5.47,0 -9.89,-4.42 -9.89,-9.89 v -143.41 c 0,-5.46 4.42,-9.88 9.89,-9.88 z m 435.02,-562.37 c 3.71,-0.8 7.57,-1.25 11.52,-1.25 30.18,0 54.63,24.46 54.63,54.63 0,30.17 -24.45,54.64 -54.63,54.64 -3.95,0 -7.81,-0.45 -11.52,-1.25 24.63,-5.3 43.1,-27.17 43.1,-53.39 0,-26.21 -18.47,-48.09 -43.1,-53.38 z m -715.52,444.06 c 1.78,-1.36 3.87,-2 5.95,-2 3,0 5.96,1.35 7.9,3.93 3.29,4.36 2.43,10.56 -1.93,13.85 l -128.33,96.98 c -4.36,3.3 -10.57,2.44 -13.85,-1.93 -3.29,-4.36 -2.43,-10.55 1.93,-13.85 z m -163.23,-955.98 12.7,22.62 -21.53,-12.1 -15.53,55.36 -15.53,-55.36 -21.53,12.1 12.7,-22.62 -30.98,-14.44 30.98,-14.45 -12.7,-22.61 21.53,12.09 15.53,-55.36 15.53,55.36 21.53,-12.09 -12.7,22.61 30.97,14.45 z"
         id="path70" /></clipPath><linearGradient
       x1="0"
       y1="0"
       x2="1"
       y2="0"
       gradientUnits="userSpaceOnUse"
       gradientTransform="matrix(134.703,0,0,-134.703,3226.34,3532.43)"
       spreadMethod="pad"
       id="linearGradient86"><stop
         style="stop-opacity:1;stop-color:#e8bf6a"
         offset="0"
         id="stop74" /><stop
         style="stop-opacity:1;stop-color:#e8bf6a"
         offset="0.005618"
         id="stop76" /><stop
         style="stop-opacity:1;stop-color:#ecd177"
         offset="0.291895"
         id="stop78" /><stop
         style="stop-opacity:1;stop-color:#f5ebd9"
         offset="0.705065"
         id="stop80" /><stop
         style="stop-opacity:1;stop-color:#e9bb70"
         offset="0.949438"
         id="stop82" /><stop
         style="stop-opacity:1;stop-color:#e9bb70"
         offset="1"
         id="stop84" /></linearGradient><clipPath
       clipPathUnits="userSpaceOnUse"
       id="clipPath146"><path
         d="m 1510.11,3982.76 c -6.92,0 -12.52,-5.61 -12.52,-12.52 0,-6.91 5.6,-12.52 12.52,-12.52 6.91,0 12.52,5.61 12.52,12.52 0,6.91 -5.61,12.52 -12.52,12.52 z m 88.34,-6.59 c -6.92,0 -12.52,-5.61 -12.52,-12.53 0,-6.91 5.6,-12.52 12.52,-12.52 6.91,0 12.52,5.61 12.52,12.52 0,6.92 -5.61,12.53 -12.52,12.53 z m -293.36,-129.25 c -6.91,0 -12.52,-5.6 -12.52,-12.51 0,-6.91 5.61,-12.52 12.52,-12.52 6.92,0 12.52,5.61 12.52,12.52 0,6.91 -5.6,12.51 -12.52,12.51 z m 49.16,67.31 c -6.92,0 -12.52,-5.61 -12.52,-12.52 0,-6.92 5.6,-12.52 12.52,-12.52 6.91,0 12.52,5.6 12.52,12.52 0,6.91 -5.61,12.52 -12.52,12.52 z m 384.34,-74.82 c 6.91,0 12.52,5.6 12.52,12.52 0,6.91 -5.61,12.52 -12.52,12.52 -6.92,0 -12.52,-5.61 -12.52,-12.52 0,-6.92 5.6,-12.52 12.52,-12.52 z m 33.7,-62.3 c 6.92,0 12.52,5.6 12.52,12.52 0,6.91 -5.6,12.52 -12.52,12.52 -6.91,0 -12.51,-5.61 -12.51,-12.52 0,-6.92 5.6,-12.52 12.51,-12.52 z m -100.26,162.16 c -6.91,0 -12.52,-5.61 -12.52,-12.52 0,-6.92 5.61,-12.52 12.52,-12.52 6.91,0 12.52,5.6 12.52,12.52 0,6.91 -5.61,12.52 -12.52,12.52 z m -244.2,18.45 c -6.91,0 -12.52,-5.61 -12.52,-12.52 0,-6.91 5.61,-12.51 12.52,-12.51 6.92,0 12.52,5.6 12.52,12.51 0,6.91 -5.6,12.52 -12.52,12.52 z m 78.6,-603.65 c -53.57,10.12 -110.67,3.89 -160.76,-17.61 -4.54,-1.95 -6.65,-7.22 -4.7,-11.76 1.94,-4.55 7.22,-6.65 11.77,-4.7 46.84,20.11 100.23,25.96 150.37,16.47 21.48,-4.07 34.65,-11.73 39.14,-22.79 1.41,-3.48 4.76,-5.59 8.3,-5.59 1.12,0 2.26,0.21 3.37,0.66 4.58,1.86 6.79,7.08 4.93,11.67 -6.93,17.06 -24.56,28.38 -52.42,33.65 z m 1.94,-39.84 c -27.92,13.35 -59.47,-0.05 -80.8,-11.27 l -4.77,-2.51 c -20.13,-10.68 -40.95,-21.67 -61.47,-18.63 -4.54,0.67 -9.03,-2.31 -10.07,-6.89 -1.04,-4.58 1.65,-9.19 6.14,-10.55 31.1,-9.4 61.1,0.19 80.96,8.24 3.49,1.41 6.94,2.98 10.39,4.56 9.22,4.22 17.94,8.2 26.76,8.51 18.94,0.42 35.44,-10.89 45.76,-31.55 1.54,-3.07 4.66,-4.96 8.02,-4.96 0.43,0 0.87,0.04 1.3,0.1 3.82,0.56 6.86,3.51 7.53,7.32 3.98,22.86 -8.8,47.64 -29.75,57.63 z m -445.61,586.17 -3.83,13.83 -3.84,-13.83 c -6.02,-21.68 -22.96,-38.62 -44.63,-44.63 l -13.835,-3.84 13.835,-3.84 c 21.67,-6.01 38.61,-22.95 44.63,-44.63 l 3.84,-13.83 3.83,13.83 c 6.02,21.68 22.96,38.62 44.64,44.63 l 13.83,3.84 -13.83,3.84 c -21.68,6.01 -38.62,22.95 -44.64,44.63 z m 810.67,-48.47 13.83,-3.84 c 21.68,-6.01 38.61,-22.95 44.63,-44.63 l 3.84,-13.83 3.84,13.83 c 6.01,21.68 22.95,38.62 44.63,44.63 l 13.83,3.84 -13.83,3.84 c -21.68,6.01 -38.62,22.95 -44.63,44.63 l -3.84,13.83 -3.84,-13.83 c -6.02,-21.68 -22.95,-38.62 -44.63,-44.63 z m 196.14,-302.2 c -36.38,6.4 -73.98,24.78 -114.29,56.17 -19.12,14.89 -37.58,31.49 -55.43,47.55 -20.76,18.67 -42.24,37.99 -65.19,55.05 -1.38,1.02 -2.75,1.88 -4.12,2.88 1.77,1.63 2.92,3.93 2.92,6.53 0,170.23 -139.45,308.72 -310.84,308.72 -144.06,0 -269.81,-100.2 -302.53,-239.51 -14.48,-1.86 -29.09,-4.47 -43.82,-8.09 -86.76,-21.29 -156.67,-78.28 -182.438,-148.72 -9.422,-25.75 -13.488,-52.68 -17.422,-78.72 -3.172,-21.01 -6.453,-42.75 -12.543,-63.19 -7.719,-25.93 -27.207,-80.71 -58.765,-103.01 v 366.04 c 0,321.04 261.188,582.23 582.238,582.23 321.04,0 582.23,-261.19 582.23,-582.23 z m 0,-279.79 c -16.09,13.55 -34.38,23.49 -49.71,30.9 -6.1,2.95 -12.28,5.8 -18.48,8.67 -27.51,12.68 -55.95,25.81 -75.88,47.52 -25.55,27.83 -34.92,65.83 -44.83,106.06 -10.87,44.13 -22.12,89.76 -56.89,120.48 -37.03,32.73 -87.14,36.85 -135.82,30.98 -19.53,28.92 -49.92,49.31 -96.63,53.11 v 46.77 c 23.81,20.3 60.08,30.82 92.88,32.03 43.73,1.48 90.86,-16 139.75,-52.34 22.29,-16.56 43.45,-35.59 63.91,-53.99 18.08,-16.27 36.79,-33.08 56.41,-48.37 43.8,-34.1 85,-53.83 125.29,-60.23 z m 0,-359.24 c -37.53,68.63 -94.75,128.94 -167.08,174.69 -51.82,32.76 -80.18,93.01 -101.08,147.64 -3.15,8.23 -6.24,16.55 -9.34,24.88 -18.93,50.91 -38.5,103.55 -74.89,145.33 -0.22,0.25 -0.47,0.48 -0.69,0.72 1.08,1.52 1.92,3.25 2.07,5.41 3.91,55.74 6.58,132.68 -20.77,188.19 41.97,4.03 83.8,-0.61 114.13,-27.4 30.58,-27.04 40.67,-67.99 51.35,-111.36 10.02,-40.65 20.38,-82.68 49.03,-113.9 22.36,-24.35 52.46,-38.23 81.57,-51.66 6.11,-2.82 12.19,-5.64 18.2,-8.53 25.67,-12.41 44.49,-25.4 57.5,-39.62 z m 0,-179.49 H 1731.5 c -13.53,23.6 -12.55,54.86 -8.6,78.81 1.53,9.24 3.47,18.47 5.42,27.7 5.34,25.4 10.87,51.66 7.85,78.43 -3.49,30.92 -17.89,58.48 -31.8,85.11 -5.1,9.74 -10.18,19.47 -14.73,29.36 -12.63,27.47 -9.86,55.14 -6.02,93.44 0.95,9.4 1.94,19.39 2.79,30.1 0.12,1.44 -0.2,2.79 -0.72,4.05 6.91,22.28 12.75,45.27 17.36,68.96 2.42,12.41 4.47,24.21 6.37,35.74 0.99,-0.05 1.97,-0.14 2.96,-0.14 9.31,0 18.62,1.92 27.21,5.77 4.22,1.88 6.31,6.67 4.83,11.04 -1.49,4.38 -6.07,6.87 -10.55,5.85 -5.48,-1.31 -12.23,0.36 -20.35,4.65 4.15,30.48 6.21,57.33 6.17,80.37 24.5,-35.65 40.33,-77.75 55.58,-118.79 3.12,-8.37 6.23,-16.74 9.41,-25.04 21.96,-57.37 51.99,-120.82 108.24,-156.38 80.78,-51.09 142.01,-120.87 176.65,-200.03 z m -358.27,0 h -218.43 c 0,0.8 0.05,1.6 -0.16,2.42 -15.37,56.68 -20.11,115 -14.26,173.42 16.45,-4.81 32.24,-7.58 46.67,-7.58 14.3,0 27.28,2.7 38.26,8.71 39.07,21.43 50.2,56.63 63.08,97.39 6.45,20.37 13.75,43.46 25.47,67.23 3.96,8.06 7.69,16.31 11.31,24.65 -1.86,-26.91 -0.85,-50.43 10.13,-74.32 4.66,-10.15 9.89,-20.16 15.12,-30.16 13.76,-26.35 26.75,-51.23 29.87,-78.83 2.7,-23.89 -2.29,-47.61 -7.57,-72.74 -2,-9.48 -3.99,-18.96 -5.56,-28.46 -4.01,-24.23 -5.27,-55.33 6.07,-81.73 z m -695.09,0 c 12.78,67.8 0.34,139.55 -34.925,199 -5.93,9.98 -12.547,19.82 -19.176,29.67 -20.066,29.79 -39.011,57.94 -39.636,90.64 -0.875,46.03 33.488,79.87 69.863,115.69 22.644,22.3 46.044,45.35 61.754,72.4 25.76,44.41 28.84,96.77 31.81,147.4 3.15,53.71 6.14,104.44 34,145.81 20.1,29.82 54.29,50.25 93.81,56.06 36.62,5.44 72.3,-2.69 99.51,-21.97 -57.85,-73.12 -87.94,-169.35 -101.39,-231.5 -0.38,-1.76 -0.06,-3.28 0.55,-4.61 -0.86,-1.07 -1.55,-2.29 -1.84,-3.72 -0.49,-2.34 -0.83,-4.54 -1.26,-6.82 -8.58,-10.53 -16.58,-21.78 -23.83,-33.73 -26.28,-43.26 -33.58,-92.22 -20.04,-134.34 12.72,-39.61 14.52,-56.18 -15.25,-86.37 -16.12,-16.35 -26.05,-34.75 -28.73,-53.21 -3.34,-22.98 5.32,-45.85 22.06,-58.28 8.49,-6.29 18.71,-9.36 28.75,-9.36 13.03,0 25.74,5.17 33.91,15.09 8.97,10.91 11.25,26.28 5.7,38.24 -6.32,13.65 -22.58,21.2 -36.3,16.74 -7.42,-2.4 -13.64,-8.44 -16.64,-16.17 -2.86,-7.34 -2.43,-15.19 1.18,-21.52 2.44,-4.31 7.91,-5.78 12.21,-3.36 4.3,2.44 5.81,7.92 3.36,12.21 -0.93,1.64 -0.95,3.89 -0.05,6.19 1.05,2.71 3.14,4.86 5.44,5.61 5.08,1.64 12.03,-1.8 14.55,-7.23 2.67,-5.78 1.32,-13.72 -3.29,-19.33 -8.3,-10.09 -26.48,-11.39 -38.15,-2.73 -11.34,8.43 -17.38,25.03 -15,41.33 2.69,18.51 14.4,33.71 23.76,43.2 36.09,36.62 33.48,61.05 19.55,104.43 -11.95,37.17 -5.28,80.75 18.29,119.57 1.12,1.84 2.35,3.56 3.5,5.38 -1.83,-25.47 -0.55,-50.77 2.44,-84.22 0.25,-1.54 2.88,-17.18 9.53,-39.48 -0.58,-1.55 -0.88,-3.2 -0.51,-4.93 29.39,-137.87 29.82,-271.99 1.31,-410.06 -1,-4.84 2.12,-9.58 6.96,-10.58 0.61,-0.12 1.22,-0.18 1.82,-0.18 4.17,0 7.89,2.91 8.77,7.14 24.11,116.77 27.81,230.79 11.23,346.52 9.27,-17.09 20.5,-34.27 34.2,-50 36.41,-41.8 112.25,-97.77 180.96,-123.01 -6.61,-61.15 -1.91,-122.24 13.89,-181.61 z m -18.284,0 h -92.824 v 312.63 c 2.828,-35.17 22.691,-65.07 42.144,-93.97 6.442,-9.57 12.871,-19.11 18.629,-28.82 33.637,-56.69 45.085,-125.31 32.051,-189.84 z m 552.614,1064.02 c -23.68,0 -42.88,19.2 -42.88,42.89 0,23.69 19.2,42.89 42.88,42.89 23.69,0 42.89,-19.2 42.89,-42.89 0,-23.69 -19.2,-42.89 -42.89,-42.89 z m 112.2,-341.73 c -14.09,11.63 -28.66,23.66 -41.58,36.65 -15.7,15.79 -50.48,56.57 -44.96,102.01 28.41,-8.83 53.65,-26.48 70.74,-51.62 18.32,-26.95 36.47,-64.14 46.29,-113.17 -9.98,9.1 -20.31,17.72 -30.49,26.13 z m -127.87,145.14 h 0.1 c 7.57,0 15.04,-0.83 22.42,-2.03 -24.51,-58.91 -55.51,-105.67 -92.3,-138.82 -29.48,-26.57 -64.42,-36.14 -101.42,-46.26 -23.15,-6.34 -47.1,-12.9 -70.17,-23.94 -21.55,-10.32 -42.13,-24.98 -60.85,-42.94 69.83,149.7 191.6,218.09 247.54,242.61 17.25,7.56 35.85,11.38 54.68,11.38 z m 165.19,-267.66 c -0.81,-9.77 -1.85,-19.96 -3.22,-30.76 -5.92,3.59 -12.19,6.84 -19.41,8.53 -15.93,3.84 -30.91,-1.24 -40.65,-6.12 -3.23,-1.61 -6.27,-3.43 -9.28,-5.37 -4.26,-1.83 -8,-4.5 -11.21,-7.76 4.47,9.96 11.26,19.32 20.32,27.27 16.93,14.82 41.79,20.16 63.45,14.21 z m 1.21,18.27 c -26.67,6.13 -55.71,-0.82 -76.47,-19.01 -24.52,-21.5 -36.25,-51.64 -31.36,-80.61 4.39,-26.09 12.29,-73.07 28.84,-119.65 -28.48,-2.83 -57.11,-1.32 -85.26,4.51 -4.88,0.97 -9.59,-2.11 -10.59,-6.96 -1,-4.84 2.11,-9.59 6.95,-10.59 20.17,-4.18 40.58,-6.27 61.01,-6.27 13.83,0 27.68,0.97 41.48,2.88 2.71,0.38 5.1,1.97 6.48,4.33 1.39,2.36 1.62,5.22 0.64,7.77 -18.65,48.29 -27.26,99.46 -31.88,126.95 -1.56,9.28 -0.81,18.74 1.85,27.88 0.39,-1.52 1.07,-3 2.25,-4.25 3.08,-3.3 8.55,-3.46 12.2,-0.84 2.87,2.06 5.66,4.07 8.46,5.93 6.84,2.43 15.78,2.3 22.63,0.2 5.06,-1.55 9.99,-4.25 15.2,-7.12 4.67,-2.56 9.36,-5.11 14.31,-7.05 1.24,-0.48 2.52,-0.87 3.78,-1.28 -1.88,-11.42 -3.92,-23.14 -6.32,-35.47 -10.5,-53.92 -27.19,-104.34 -49.62,-149.87 -2.07,-4.19 -3.82,-8.29 -5.63,-12.4 -0.16,0.43 -0.16,0.9 -0.35,1.33 -2.16,4.71 -6.2,8.36 -11.38,10.27 -5.96,2.22 -12.96,1.95 -18.74,-0.74 -4.04,-1.87 -7.32,-4.56 -10.01,-7.52 -6.93,5.86 -16.56,8.56 -25.15,7.68 -13.44,-1.32 -24.24,-9.2 -32.16,-15.92 -1.92,-1.62 -3.81,-3.3 -5.7,-4.98 -5.33,-4.76 -10.37,-9.26 -16,-12.34 -2.81,-1.52 -6.08,-2.09 -9.86,-2.73 -3.44,-0.58 -7.33,-1.24 -11.27,-2.78 -3.23,-1.25 -5.43,-4.26 -5.68,-7.7 -0.25,-3.45 1.5,-6.73 4.52,-8.44 12.85,-7.28 27.26,-12.53 41.2,-17.62 5.82,-2.12 11.6,-4.23 17.15,-6.45 8.72,-3.48 18.6,-7.43 29.39,-8.33 1.44,-0.12 2.87,-0.18 4.28,-0.18 9.87,0 18.74,3.06 25.52,8.44 -10.83,-33.54 -21.54,-60.15 -51.21,-76.42 -60.01,-32.97 -207.39,61.86 -261.25,123.7 -54.13,62.16 -68.98,151.73 -69.05,152.01 -4.03,45.26 -4.8,75.15 1.56,111.67 21.98,26.14 47.77,47 75.2,60.15 21.62,10.36 44.78,16.69 67.16,22.81 37.4,10.24 76.05,20.81 108.7,50.23 32.18,29.01 60,67.71 83.16,115.07 6.04,-27.72 22.52,-56.2 48.21,-82.03 13.53,-13.6 28.45,-25.92 42.87,-37.83 17.13,-14.15 34.72,-28.82 49.65,-45.35 0.01,-0.09 -0.03,-0.16 -0.03,-0.25 1.09,-13.12 1.14,-28.18 0.32,-44.83 z m -7.7,483.51 c -3.35,24.96 -17.14,47.78 -35.47,65.05 -13.97,13.17 -30.57,23.48 -47.97,31.48 26.34,-15.96 41.08,-57.17 43.35,-86.13 1.5,-19.04 -2.17,-40.11 -16.55,-52.68 -5.78,-5.05 -12.65,-8.21 -19.89,-10.79 13.2,15.01 21.47,34.47 22.08,55.88 1.37,48.18 -37.99,89.85 -86.18,91.13 -50.03,1.32 -91.01,-38.84 -91.01,-88.58 0,-26.05 11.31,-49.4 29.21,-65.61 -14.43,5.31 -30.23,7.93 -41.72,17.97 -14.38,12.57 -18.05,33.64 -16.55,52.68 2.27,28.96 17.01,70.17 43.35,86.13 -17.41,-8 -33.99,-18.31 -47.97,-31.48 -18.33,-17.27 -32.12,-40.09 -35.47,-65.05 -3.18,-23.71 4.08,-49.12 20.96,-65.93 -51.43,16.97 -111.35,27.34 -174.75,22.29 33.03,128.09 149.98,219.59 283.63,219.59 160.17,0 290.65,-128.29 292.82,-286.8 -45.45,29.75 -89.56,44.11 -131.9,42.45 -4.87,-0.19 -9.83,-0.61 -14.81,-1.18 0.4,0.35 0.85,0.6 1.25,0.96 18.85,16.7 26.93,43.66 23.59,68.62 z m -788.468,-468.3 c 40.898,20.31 64.734,81.2 75.929,118.83 6.449,21.64 9.832,44 13.094,65.63 3.977,26.32 7.735,51.17 16.535,75.23 23.74,64.91 88.84,117.59 169.88,137.49 13.73,3.37 27.53,5.72 41.31,7.43 0.94,-0.64 2.02,-1.12 3.21,-1.36 3.06,-0.61 5.96,0.52 8.02,2.57 106.91,9.91 211.59,-26.29 276.68,-67.79 v -34.83 c -79.9,0 -140.13,-36.81 -185.1,-87.97 -31.09,22.52 -71.93,32.03 -113.56,25.93 -44.49,-6.56 -83.15,-29.8 -106.06,-63.8 -30.61,-45.42 -33.87,-101 -37.03,-154.76 -2.85,-48.54 -5.8,-98.74 -29.43,-139.45 -14.48,-24.98 -37.03,-47.17 -58.814,-68.64 -34.563,-34.02 -70.125,-69.16 -74.664,-116.54 z m 582.228,1009.2 c -343.1,0 -622.228,-279.13 -622.228,-622.23 V 2691.21 H 2109.57 v 1060.22 c 0,343.1 -279.14,622.23 -622.24,622.23 z"
         id="path144" /></clipPath><linearGradient
       x1="0"
       y1="0"
       x2="1"
       y2="0"
       gradientUnits="userSpaceOnUse"
       gradientTransform="matrix(615.564,0,0,-615.564,1217.9,3532.43)"
       spreadMethod="pad"
       id="linearGradient160"><stop
         style="stop-opacity:1;stop-color:#e8bf6a"
         offset="0"
         id="stop148" /><stop
         style="stop-opacity:1;stop-color:#e8bf6a"
         offset="0.005618"
         id="stop150" /><stop
         style="stop-opacity:1;stop-color:#ecd177"
         offset="0.291895"
         id="stop152" /><stop
         style="stop-opacity:1;stop-color:#f5ebd9"
         offset="0.705065"
         id="stop154" /><stop
         style="stop-opacity:1;stop-color:#e9bb70"
         offset="0.949438"
         id="stop156" /><stop
         style="stop-opacity:1;stop-color:#e9bb70"
         offset="1"
         id="stop158" /></linearGradient><clipPath
       clipPathUnits="userSpaceOnUse"
       id="clipPath178"><path
         d="m 2097.6,1180.57 c 0,-336.511 -273.77,-610.281 -610.27,-610.281 -336.5,0 -610.275,273.77 -610.275,610.281 v 574 c 0,336.5 273.775,610.27 610.275,610.27 336.5,0 610.27,-273.77 610.27,-610.27 z m -610.27,1224.27 c -358.56,0 -650.275,-291.7 -650.275,-650.27 v -574 c 0,-358.57 291.715,-650.281 650.275,-650.281 358.56,0 650.27,291.711 650.27,650.281 v 574 c 0,358.57 -291.71,650.27 -650.27,650.27 z m 24.17,-937.83 c 35.42,5.45 55.38,41.98 56.16,73.58 0.82,32 -13.02,61.48 -25.2,87.5 -2.22,4.66 -7.78,6.65 -12.38,4.47 -4.66,-2.18 -6.67,-7.73 -4.49,-12.38 11.33,-24.14 24.16,-51.51 23.45,-79.12 -0.6,-24.4 -15.87,-51.88 -40.38,-55.65 -5.29,-0.81 -11.07,-0.6 -17.16,-0.34 -10.62,0.42 -22.69,0.91 -33.78,-4.77 -19.53,-9.99 -24,-31.25 -27.94,-50.01 -2.95,-14.04 -5.75,-27.3 -13.74,-35.83 -15.63,-16.71 -46.5,-9.58 -68.35,-2.79 -28.92,8.96 -64.93,16.21 -87.51,-7.62 -3.53,-3.72 -3.36,-9.61 0.36,-13.14 3.73,-3.56 9.62,-3.4 13.17,0.35 15.48,16.38 44.72,10.02 68.45,2.63 13.4,-4.17 29.67,-8.3 45.43,-8.3 15.6,0 30.73,4.05 42.06,16.15 11.52,12.31 14.99,28.79 18.34,44.72 3.55,16.8 6.6,31.32 18.2,37.26 6.74,3.44 15.4,3.09 24.56,2.74 6.71,-0.27 13.68,-0.53 20.75,0.55 z m -215.4,70.81 c 8.15,-0.2 16.31,-0.64 24.5,-1.07 23.65,-1.26 48.19,-2.56 72.39,1.87 30.69,5.64 67.77,24.47 79.84,60.46 8.54,25.43 2.18,52.58 -3.44,76.54 l -0.47,2.06 c -5.15,21.97 -9.84,47.07 -0.17,66.95 4.86,10.02 15.84,17.98 27.31,19.83 5.42,0.88 13.18,0.66 18.98,-5.33 3.59,-3.69 9.48,-3.8 13.17,-0.19 3.69,3.57 3.78,9.46 0.22,13.15 -8.89,9.16 -21.46,13.01 -35.31,10.75 -17.46,-2.8 -33.6,-14.61 -41.13,-30.09 -12.31,-25.36 -7.07,-54.23 -1.22,-79.31 l 0.49,-2.08 c 5.31,-22.58 10.79,-45.93 3.93,-66.35 -9.51,-28.32 -40.09,-43.4 -65.56,-48.08 -22.04,-4.03 -44.38,-2.83 -68.05,-1.6 -8.35,0.45 -16.69,0.9 -25,1.11 -26.84,0.62 -66.35,-0.98 -96.73,-23.04 -28.38,-20.6 -45.07,-64.08 -24.69,-95.97 1.76,-2.77 4.79,-4.3 7.84,-4.3 1.73,0 3.46,0.48 5.02,1.47 4.32,2.77 5.6,8.52 2.81,12.86 -14.5,22.71 -1.12,55.57 19.97,70.87 19.62,14.26 46.7,20.42 85.3,19.49 z m 626.01,580.87 c -21.28,26.45 -58.76,32.15 -86.75,14.38 -9.44,8.6 -19.38,16.62 -29.77,24.03 21.94,-1.44 44.11,8.04 57.92,27.19 v 0 c -27.38,19.75 -64.76,15.45 -87.09,-8.76 -14.81,8.24 -30.22,15.39 -46.25,20.98 -4.12,1.45 -8.62,-0.73 -10.05,-4.84 -1.45,-4.11 0.72,-8.61 4.84,-10.05 14.59,-5.1 28.63,-11.56 42.16,-18.96 -15.97,-28.84 -8.28,-65.7 19.12,-85.46 15.73,21.8 16.19,49.95 3.51,71.78 11.71,-7.85 22.84,-16.55 33.35,-25.97 -22.71,-23.6 -24.94,-60.92 -3.87,-87.1 v 0 c 21.16,17.02 29.03,44.41 22.24,69.02 8.87,-9.42 17.13,-19.38 24.74,-29.84 -27.99,-17.77 -38.8,-54.07 -23.95,-84.58 25.44,12.37 39.27,38.93 36.78,65.53 9.61,-15.55 17.76,-31.95 24.33,-48.97 -30.27,-13.28 -46.48,-47.41 -36.54,-79.78 v 0 c 24.62,7.55 41.56,28.22 45.65,51.98 1.21,-4.45 2.42,-8.88 3.4,-13.38 0.8,-3.69 4.07,-6.21 7.7,-6.21 0.56,0 1.11,0.06 1.68,0.18 4.25,0.93 6.95,5.13 6.02,9.39 -0.88,4.06 -2,8.06 -3.06,12.08 16.72,-15.86 41.24,-22.54 64.85,-15.29 -9.89,32.22 -42.2,51.33 -74.56,45.6 -4.96,13 -10.83,25.63 -17.5,37.85 18.02,-9.62 40.22,-10.82 59.99,-1.2 -14.69,30.19 -49.33,44.08 -80.33,33.66 -6.22,8.72 -12.82,17.18 -19.88,25.26 20.36,-6.44 43.44,-2.9 61.32,11.48 z m -241.43,-890.87 c -60.04,55.93 -127.87,91.37 -188.34,98.6 5.73,5.62 11.58,11.13 17.63,16.23 19.13,16.11 48.45,34.42 79.87,30.1 5.62,-0.79 11.24,-2.23 16.86,-3.68 14.07,-3.58 28.63,-7.28 43.65,-2.34 26.2,8.63 37.24,39.79 32.77,64.93 -4.06,22.79 -17.28,41.49 -30.06,59.59 l -1.64,2.3 c -11.96,16.99 -23.76,35.2 -24.99,54.71 -1.13,17.98 6.5,35.42 14.58,53.89 8.7,19.9 17.72,40.5 16.03,63.23 -0.42,5.39 -1.43,10.89 -2.46,16.38 -2.16,11.42 -4.01,21.31 0.21,29.02 2.99,5.47 6.96,8.2 12.29,9.64 1.73,-36.33 0.95,-73.08 -2.64,-110.54 -1.42,-14.61 -3.02,-31.17 3.36,-46.38 4.33,-10.31 13.01,-18.87 23.21,-22.91 4.03,-1.6 8.17,-2.4 12.23,-2.4 4.14,0 8.18,0.83 11.93,2.51 11.47,5.11 19.11,16.93 22.73,35.12 1.9,9.52 3.32,21.84 -2.75,32.66 -3.88,6.89 -11.19,11.98 -19.09,13.29 -6.86,1.1 -13.14,-0.63 -17.89,-4.9 -3.82,-3.43 -4.15,-9.32 -0.71,-13.14 3.43,-3.82 9.31,-4.14 13.15,-0.71 0.6,0.54 1.65,0.48 2.41,0.38 2.31,-0.38 4.8,-2.08 5.89,-4.03 3.08,-5.49 2,-13.52 0.73,-19.91 -2.38,-11.93 -6.44,-19.25 -12.06,-21.76 -3.56,-1.63 -7.25,-0.81 -9.74,0.2 -5.45,2.16 -10.51,7.19 -12.87,12.79 -4.56,10.89 -3.26,24.36 -1.85,38.8 3.55,37.32 4.35,75.18 2.52,112.67 7.61,0.17 15.44,0.4 23.04,2.7 27.23,8.23 55.87,38.45 68.98,62.72 4.49,8.3 7.57,17.69 9.12,27.41 14.51,-3.91 20.69,-26.58 27.02,-55.49 1.54,-7.02 3,-13.53 4.63,-19.43 -2.55,0.75 -5.19,1.23 -7.9,1.23 h -0.09 c -16.25,-0.05 -27.8,-13.12 -35.09,-22.94 l -1.55,-2.1 c -6.15,-8.36 -12.52,-17 -21,-19.62 -3.76,-1.16 -5.99,-5.02 -5.1,-8.86 0.79,-3.44 3.86,-5.81 7.3,-5.81 0.38,0 0.77,0.03 1.16,0.09 16.39,2.56 27.89,13.42 35.11,21.38 1.23,1.35 2.42,2.78 3.6,4.21 2.9,3.48 5.64,6.78 8.83,8.44 9.65,5.05 19.19,-0.97 22.84,-3.8 1.94,-1.49 4.43,-1.91 6.69,-1.25 9.7,-12.89 23.39,-26.56 41.34,-34.17 0.9,-0.38 1.14,-1.27 0.7,-3.37 -3.73,-3.37 -7.76,-6.51 -12,-9.28 -9.34,-6.14 -14.32,-16.96 -12.96,-28.22 1.1,-9.01 6.35,-16.5 14.13,-20.95 l -33.31,-23.22 35.58,-17.12 c -0.71,-1.35 -1.3,-2.77 -1.69,-4.26 -1.44,-5.49 -0.46,-11.35 3.02,-16.65 4.36,-6.6 5.38,-14.7 2.81,-22.2 -2.52,-7.47 -8.25,-13.23 -15.67,-15.78 -24.45,-8.43 -50.47,-10.78 -75.27,-6.78 -4,0.69 -7.8,-1.28 -9.69,-4.76 -24.62,-45.69 -50.07,-92.92 -67.64,-143.31 -16.39,-47.16 -23.74,-91.81 -21.9,-133.15 z M 1464.66,1325 c -11.38,-11.64 -23.16,-23.67 -35.85,-33.86 -15.91,-12.74 -47.53,-33.07 -80.51,-26.09 -17.14,3.63 -32.27,14.01 -48.29,25 -18.92,12.99 -38.49,26.41 -62.52,28.76 -2.57,0.25 -5.09,0.37 -7.6,0.37 -23.6,0 -45.11,-10.48 -65.98,-20.65 l -9.64,-4.65 c -30.44,-14.4 -54.27,-16.83 -70.81,-7.29 -24.26,13.96 -27.84,49.82 -26.6,77.44 2.85,62.73 18.39,125.96 45.01,182.85 10.87,23.26 26.73,51.46 53.04,63.31 26.47,11.92 58.12,5.26 88.78,-1.18 l 2.23,-0.46 c 19.64,-4.14 42.21,-7.62 61.37,3.03 16.85,9.38 28.27,28.86 31.32,53.43 3,24.07 -1.49,47.69 -5.82,70.52 -2.32,12.22 -4.72,24.86 -5.85,37.15 -2.85,31.34 7.03,69.89 35.45,80.44 17,6.3 36.82,1.84 57.82,-2.93 26.66,-6.04 54.24,-12.29 77.49,4.75 9.11,6.65 15.25,15.58 21.18,24.21 5.93,8.6 11.51,16.73 19.27,21.22 9.7,5.64 21.68,4.7 31.93,2.04 -3.12,-6.91 -6.12,-13.87 -8.8,-20.99 -24.89,-66.29 -28.75,-141.38 -4.76,-208 -7.86,21.81 11.9,66.39 20.86,86.02 12.56,27.52 30.28,52.7 51.91,73.84 19.99,19.54 42.15,30.15 65.26,43.99 19.38,2.94 37.62,5.06 52.69,-3.28 25.38,-14.05 27.78,-52.16 14.05,-77.56 -11.27,-20.82 -36.65,-47.3 -57.99,-53.75 -5.4,-1.63 -11.91,-1.77 -18.8,-1.92 -15.58,-0.35 -34.95,-0.77 -46.04,-21.03 -7.42,-13.57 -4.64,-28.36 -2.18,-41.41 0.91,-4.81 1.84,-9.62 2.18,-14.34 1.36,-18.11 -6.35,-35.73 -14.51,-54.37 -8.62,-19.69 -17.52,-40.05 -16.11,-62.52 1.55,-24.37 14.87,-45.11 28.38,-64.26 l 1.64,-2.33 c 11.6,-16.42 23.6,-33.4 26.93,-52.1 3.01,-16.95 -3.88,-38.59 -20.26,-43.98 -9.89,-3.26 -21.23,-0.37 -33.23,2.7 -6.3,1.61 -12.62,3.2 -18.91,4.06 -38.05,5.28 -72.38,-15.73 -94.42,-34.3 -11.87,-10 -22.76,-21.12 -33.31,-31.88 z m 149.65,580.12 c 9,0 16.29,-7.3 16.29,-16.29 0,-8.99 -7.29,-16.28 -16.29,-16.28 -8.99,0 -16.28,7.29 -16.28,16.28 0,8.99 7.29,16.29 16.28,16.29 z m 58.15,61.69 c 8.99,0 16.28,-7.3 16.28,-16.29 0,-9 -7.29,-16.28 -16.28,-16.28 -9,0 -16.29,7.28 -16.29,16.28 0,8.99 7.29,16.29 16.29,16.29 z m 47.71,-611.97 c 16.36,46.93 40.07,91.63 63.37,134.9 25.7,-3.09 52.51,-0.21 77.71,8.48 12.9,4.45 22.82,14.43 27.24,27.37 4.42,13 2.64,27.01 -5.22,38.93 -0.02,0.03 0.82,2.28 0.8,2.31 7.55,3.88 11.71,11.84 10.62,20.26 -0.73,5.77 -3.82,10.71 -8.36,13.86 0.41,0.77 0.79,1.58 1.16,2.41 2.16,5.02 2.13,10.59 -0.11,15.65 -2.33,5.27 -6.8,9.36 -12.51,11.33 -4.83,1.71 -5.85,6.1 -6.07,7.89 -0.4,3.28 0.62,7.75 4.69,10.42 5.05,3.32 9.85,7.03 14.29,11.07 5.16,4.67 7.53,11.64 6.35,18.63 -1.21,7.06 -5.8,12.92 -12.29,15.67 -14.86,6.29 -29.31,19.93 -40.69,38.42 -3.67,5.96 -6.35,18.15 -9.17,31.05 -6.15,28.17 -14.5,66.12 -44.21,70.35 -1.1,22.99 -10.99,45.08 -31.52,56.44 -13.26,7.35 -27.32,8.75 -41.5,7.97 6.21,13.49 6.29,29.99 5.84,46.17 -1.05,37.93 -13.08,75.69 -35.25,106.58 -43.56,-36.61 -80.94,-81.19 -106.94,-131.64 -15.47,4.69 -33.65,6.38 -49.57,-2.88 -11.4,-6.58 -18.46,-16.85 -25.29,-26.78 -5.29,-7.69 -10.28,-14.95 -16.84,-19.75 -16.44,-12.04 -38.77,-6.96 -62.36,-1.6 -22.67,5.15 -46.17,10.48 -68.42,2.22 -37.79,-14.04 -51.11,-60.12 -47.53,-99.58 1.2,-13.19 3.69,-26.27 6.11,-38.94 4.26,-22.41 8.28,-43.57 5.64,-64.73 -1.09,-8.81 -5.43,-30.3 -21.91,-39.47 -13.58,-7.54 -31.38,-4.66 -48.49,-1.08 l -2.22,0.48 c -32,6.71 -68.29,14.33 -100.25,-0.08 -31.89,-14.37 -50.03,-46.23 -62.27,-72.38 -27.64,-59.11 -43.78,-124.77 -46.72,-189.93 -2.17,-47.67 9.9,-79.44 35.88,-94.4 22.51,-12.97 51.33,-10.81 88.08,6.58 l 9.83,4.75 c 20.75,10.1 42.22,20.6 63.6,18.49 19.27,-1.88 36.05,-13.4 53.82,-25.58 16.81,-11.54 34.2,-23.47 54.96,-27.86 5.96,-1.27 11.85,-1.83 17.63,-1.83 33.38,0 62.64,18.98 78.36,31.6 12.48,10.02 23.78,21.35 34.68,32.46 65.76,-2.11 144.09,-43.71 210.49,-112.13 1.78,-1.85 4.21,-2.82 6.67,-2.82 1.4,0 2.8,0.3 4.11,0.95 3.61,1.78 5.67,5.68 5.1,9.68 -6.49,45.33 -0.2,95.84 18.68,150.09 z m 230.25,537.89 c -3.96,0 -7.81,-0.44 -11.53,-1.24 24.63,-5.3 43.1,-27.17 43.1,-53.38 0,-26.22 -18.47,-48.1 -43.1,-53.39 3.72,-0.8 7.57,-1.24 11.53,-1.24 30.17,0 54.63,24.45 54.63,54.63 0,30.16 -24.46,54.62 -54.63,54.62 z m -907.59,-843.4 c 3.96,0 7.81,0.45 11.54,1.25 -24.63,5.29 -43.11,27.16 -43.11,53.38 0,26.22 18.48,48.09 43.11,53.38 -3.73,0.8 -7.58,1.25 -11.54,1.25 -30.17,0 -54.627,-24.46 -54.627,-54.63 0,-30.17 24.457,-54.63 54.627,-54.63 z m 10.23,932.01 c -1.06,-4.03 -2.18,-8.02 -3.06,-12.09 -0.93,-4.26 1.77,-8.46 6.02,-9.39 0.57,-0.12 1.12,-0.18 1.69,-0.18 3.63,0 6.89,2.52 7.7,6.21 0.97,4.49 2.18,8.92 3.38,13.37 4.1,-23.76 21.03,-44.42 45.65,-51.97 9.94,32.37 -6.26,66.5 -36.54,79.78 6.57,17.03 14.72,33.43 24.33,48.98 -2.49,-26.61 11.34,-53.16 36.78,-65.54 14.85,30.51 4.05,66.82 -23.95,84.58 7.61,10.46 15.88,20.43 24.74,29.85 -6.79,-24.62 1.08,-52.01 22.24,-69.03 21.07,26.18 18.85,63.5 -3.87,87.1 10.51,9.43 21.65,18.12 33.35,25.98 -12.68,-21.84 -12.22,-49.99 3.51,-71.79 27.4,19.76 35.1,56.62 19.12,85.46 13.53,7.4 27.57,13.86 42.16,18.96 4.11,1.44 6.28,5.94 4.84,10.05 -1.42,4.11 -5.91,6.3 -10.05,4.84 -16.03,-5.59 -31.44,-12.74 -46.25,-20.98 -22.33,24.21 -59.71,28.51 -87.09,8.76 v 0 c 13.82,-19.14 35.98,-28.63 57.91,-27.19 -10.38,-7.41 -20.33,-15.43 -29.76,-24.03 -28,17.77 -65.47,12.07 -86.75,-14.38 17.88,-14.38 40.96,-17.92 61.32,-11.49 -7.06,-8.07 -13.66,-16.53 -19.88,-25.25 -31,10.42 -65.64,-3.47 -80.33,-33.66 19.78,-9.62 41.97,-8.42 59.99,1.2 -6.67,-12.22 -12.54,-24.85 -17.49,-37.85 -32.37,5.74 -64.68,-13.38 -74.567,-45.6 23.607,-7.25 48.137,-0.57 64.857,15.3 z m -10.23,-197.86 c 3.96,0 7.81,0.44 11.54,1.24 -24.63,5.29 -43.11,27.17 -43.11,53.39 0,26.21 18.48,48.08 43.11,53.38 -3.73,0.8 -7.58,1.24 -11.54,1.24 -30.17,0 -54.627,-24.46 -54.627,-54.62 0,-30.18 24.457,-54.63 54.627,-54.63 z m 429.44,399.04 -12.7,-22.62 21.52,12.09 15.54,-55.35 15.53,55.35 21.53,-12.09 -12.71,22.62 30.98,14.44 -30.98,14.46 12.71,22.6 -21.53,-12.09 -15.53,55.36 -15.54,-55.36 -21.52,12.09 12.7,-22.6 -30.98,-14.46 z M 1256.31,758.832 c -14.59,5.098 -28.63,11.547 -42.16,18.957 15.98,28.832 8.28,65.703 -19.12,85.461 -15.73,-21.801 -16.19,-49.949 -3.51,-71.789 -11.7,7.859 -22.84,16.551 -33.35,25.98 22.72,23.59 24.94,60.911 3.87,87.09 -21.16,-17.019 -29.03,-44.41 -22.24,-69.019 -8.86,9.418 -17.13,19.379 -24.74,29.84 28,17.769 38.8,54.07 23.95,84.589 -25.44,-12.382 -39.27,-38.941 -36.78,-65.55 -9.61,15.55 -17.76,31.961 -24.33,48.988 30.28,13.281 46.48,47.402 36.54,79.771 -24.62,-7.55 -41.55,-28.209 -45.65,-51.959 -1.2,4.43 -2.41,8.868 -3.38,13.36 -0.81,3.687 -4.07,6.211 -7.7,6.211 -0.57,0 -1.12,-0.051 -1.69,-0.172 -4.25,-0.93 -6.95,-5.141 -6.02,-9.399 0.88,-4.062 2,-8.07 3.06,-12.089 -16.72,15.878 -41.25,22.546 -64.857,15.296 9.887,-32.218 42.197,-51.328 74.567,-45.597 4.95,-13 10.82,-25.629 17.49,-37.84 -18.02,9.609 -40.21,10.82 -59.99,1.187 14.69,-30.179 49.33,-44.066 80.33,-33.656 6.22,-8.722 12.82,-17.183 19.88,-25.25 -20.36,6.43 -43.44,2.887 -61.32,-11.492 21.28,-26.449 58.75,-32.141 86.75,-14.371 9.43,-8.609 19.38,-16.629 29.76,-24.027 -21.93,1.429 -44.09,-8.051 -57.91,-27.192 v 0 c 27.38,-19.75 64.76,-15.461 87.09,8.75 14.81,-8.238 30.22,-15.379 46.25,-20.98 4.14,-1.45 8.63,0.73 10.05,4.84 1.44,4.121 -0.73,8.609 -4.84,10.062 z m 264.67,-0.902 12.71,22.609 -21.53,-12.09 -15.53,55.352 -15.54,-55.352 -21.52,12.09 12.7,-22.609 -30.98,-14.45 30.98,-14.449 -12.7,-22.609 21.52,12.09 15.54,-55.364 15.53,55.364 21.53,-12.09 -12.71,22.609 30.98,14.449 z m 429.44,400.66 c -3.96,0 -7.81,-0.45 -11.53,-1.25 24.63,-5.29 43.1,-27.16 43.1,-53.38 0,-26.22 -18.47,-48.09 -43.1,-53.38 3.72,-0.8 7.57,-1.25 11.53,-1.25 30.17,0 54.63,24.46 54.63,54.63 0,30.17 -24.46,54.63 -54.63,54.63 z m -22.2,-199.481 c 1.06,4.02 2.18,8.02 3.06,12.082 0.93,4.258 -1.77,8.469 -6.02,9.399 -0.57,0.121 -1.12,0.172 -1.68,0.172 -3.63,0 -6.9,-2.524 -7.7,-6.211 -0.98,-4.5 -2.19,-8.93 -3.4,-13.379 -4.09,23.758 -21.03,44.428 -45.65,51.978 v 0 c -9.94,-32.369 6.27,-66.49 36.54,-79.771 -6.57,-17.027 -14.72,-33.43 -24.33,-48.981 2.49,26.614 -11.34,53.161 -36.78,65.543 -14.85,-30.519 -4.04,-66.82 23.95,-84.589 -7.61,-10.454 -15.87,-20.422 -24.74,-29.832 6.79,24.609 -1.08,51.992 -22.24,69.011 v 0 c -21.07,-26.179 -18.84,-63.492 3.87,-87.09 -10.51,-9.429 -21.64,-18.121 -33.35,-25.98 12.68,21.84 12.22,49.988 -3.51,71.789 -27.4,-19.758 -35.09,-56.629 -19.12,-85.461 -13.53,-7.41 -27.57,-13.859 -42.16,-18.957 -4.12,-1.453 -6.29,-5.941 -4.84,-10.062 1.43,-4.11 5.93,-6.282 10.05,-4.84 16.03,5.601 31.44,12.742 46.25,20.992 22.33,-24.223 59.71,-28.512 87.09,-8.762 v 0 c -13.81,19.141 -35.98,28.629 -57.92,27.192 10.39,7.398 20.33,15.418 29.77,24.027 27.99,-17.77 65.47,-12.078 86.75,14.371 -17.88,14.391 -40.96,17.922 -61.32,11.492 7.06,8.067 13.66,16.528 19.88,25.258 31,-10.418 65.64,3.469 80.33,33.648 -19.77,9.633 -41.97,8.422 -59.99,-1.187 6.67,12.211 12.54,24.84 17.5,37.84 32.36,-5.731 64.67,13.39 74.56,45.597 -23.61,7.25 -48.13,0.582 -64.85,-15.289 z"
         id="path176" /></clipPath><linearGradient
       x1="0"
       y1="0"
       x2="1"
       y2="0"
       gradientUnits="userSpaceOnUse"
       gradientTransform="matrix(1300.55,0,0,-1300.55,837.054,1467.57)"
       spreadMethod="pad"
       id="linearGradient192"><stop
         style="stop-opacity:1;stop-color:#e8bf6a"
         offset="0"
         id="stop180" /><stop
         style="stop-opacity:1;stop-color:#e8bf6a"
         offset="0.005618"
         id="stop182" /><stop
         style="stop-opacity:1;stop-color:#ecd177"
         offset="0.291895"
         id="stop184" /><stop
         style="stop-opacity:1;stop-color:#f5ebd9"
         offset="0.705065"
         id="stop186" /><stop
         style="stop-opacity:1;stop-color:#e9bb70"
         offset="0.949438"
         id="stop188" /><stop
         style="stop-opacity:1;stop-color:#e9bb70"
         offset="1"
         id="stop190" /></linearGradient><clipPath
       clipPathUnits="userSpaceOnUse"
       id="clipPath210"><path
         d="m 3017.85,1369.51 c -7.45,0 -13.49,-6.04 -13.49,-13.5 0,-7.46 6.04,-13.5 13.49,-13.5 7.45,0 13.5,6.04 13.5,13.5 0,7.46 -6.05,13.5 -13.5,13.5 z m 0,117.8 c -7.45,0 -13.49,-6.04 -13.49,-13.49 0,-7.46 6.04,-13.51 13.49,-13.51 7.45,0 13.5,6.05 13.5,13.51 0,7.45 -6.05,13.49 -13.5,13.49 z m 0,117.81 c -7.45,0 -13.49,-6.05 -13.49,-13.5 0,-7.46 6.04,-13.5 13.49,-13.5 7.45,0 13.5,6.04 13.5,13.5 0,7.45 -6.05,13.5 -13.5,13.5 z m 0,-353.42 c -7.45,0 -13.49,-6.05 -13.49,-13.5 0,-7.45 6.04,-13.49 13.49,-13.49 7.45,0 13.5,6.04 13.5,13.49 0,7.45 -6.05,13.5 -13.5,13.5 z m 0,-235.61 c -7.45,0 -13.49,-6.04 -13.49,-13.5 0,-7.449 6.04,-13.5 13.49,-13.5 7.45,0 13.5,6.051 13.5,13.5 0,7.46 -6.05,13.5 -13.5,13.5 z m 0,117.81 c -7.45,0 -13.49,-6.05 -13.49,-13.5 0,-7.46 6.04,-13.51 13.49,-13.51 7.45,0 13.5,6.05 13.5,13.51 0,7.45 -6.05,13.5 -13.5,13.5 z m 163.08,865.47 -3.83,13.77 -3.82,-13.77 c -5.99,-21.61 -22.88,-38.48 -44.47,-44.48 l -13.79,-3.83 13.79,-3.81 c 21.59,-6 38.48,-22.87 44.47,-44.48 l 3.82,-13.78 3.83,13.78 c 5.99,21.61 22.87,38.48 44.47,44.48 l 13.78,3.81 -13.78,3.83 c -21.6,6 -38.48,22.87 -44.47,44.48 z m 890.17,-539.06 c 7.46,0 13.5,6.05 13.5,13.51 0,7.45 -6.04,13.49 -13.5,13.49 -7.45,0 -13.49,-6.04 -13.49,-13.49 0,-7.46 6.04,-13.51 13.49,-13.51 z m 0,117.81 c 7.46,0 13.5,6.04 13.5,13.5 0,7.45 -6.04,13.5 -13.5,13.5 -7.45,0 -13.49,-6.05 -13.49,-13.5 0,-7.46 6.04,-13.5 13.49,-13.5 z m -148.23,421.25 -3.82,13.77 -3.83,-13.77 c -5.99,-21.61 -22.87,-38.48 -44.47,-44.48 l -13.78,-3.83 13.78,-3.81 c 21.6,-6 38.48,-22.87 44.47,-44.48 l 3.83,-13.78 3.82,13.78 c 6,21.61 22.87,38.48 44.47,44.48 l 13.78,3.81 -13.78,3.83 c -21.6,6 -38.47,22.87 -44.47,44.48 z M 3017.85,898.281 c -7.45,0 -13.49,-6.039 -13.49,-13.492 0,-7.457 6.04,-13.5 13.49,-13.5 7.45,0 13.5,6.043 13.5,13.5 0,7.453 -6.05,13.492 -13.5,13.492 z M 4071.1,1695.93 c 7.46,0 13.5,6.04 13.5,13.49 0,7.46 -6.04,13.51 -13.5,13.51 -7.45,0 -13.49,-6.05 -13.49,-13.51 0,-7.45 6.04,-13.49 13.49,-13.49 z m -1053.25,27 c -7.45,0 -13.49,-6.05 -13.49,-13.51 0,-7.45 6.04,-13.49 13.49,-13.49 7.45,0 13.5,6.04 13.5,13.49 0,7.46 -6.05,13.51 -13.5,13.51 z m 468.08,-124.98 c 2.63,-0.5 36.93,-6.81 83.77,-6.81 41.89,0 93.82,5.05 142.09,23.79 5.14,2 7.69,7.8 5.7,12.95 -2,5.15 -7.81,7.68 -12.95,5.7 -96.8,-37.61 -213.73,-16.2 -214.9,-15.98 -5.44,1.02 -10.66,-2.55 -11.68,-7.97 -1.03,-5.43 2.54,-10.66 7.97,-11.68 z M 3017.85,780.48 c -7.45,0 -13.49,-6.05 -13.49,-13.5 0,-7.46 6.04,-13.488 13.49,-13.488 7.45,0 13.5,6.028 13.5,13.488 0,7.45 -6.05,13.5 -13.5,13.5 z M 4071.1,753.492 c 7.46,0 13.5,6.028 13.5,13.488 0,7.45 -6.04,13.5 -13.5,13.5 -7.45,0 -13.49,-6.05 -13.49,-13.5 0,-7.46 6.04,-13.488 13.49,-13.488 z m 51.85,-84.211 h -371.17 c -1.7,10.61 -0.8,6.25 -1.7,10.61 -10.21,49.398 -16.62,98.281 -19.38,147.019 17.41,-2.219 33.93,-1.289 50.03,-0.32 31.63,1.89 61.52,3.691 96.2,-19.141 14.2,-9.347 30.65,-13.32 47.16,-13.32 25.44,0 51.05,9.41 68.81,23.031 34.42,26.379 37.67,74.75 29.22,111.238 -6.43,27.762 -18.7,54 -30.57,79.382 -17.33,37.05 -33.7,72.04 -32.42,110.11 0.79,23.35 8.25,45.69 16.15,69.36 2.6,7.77 5.19,15.53 7.54,23.33 12.92,42.96 12.68,76.82 -0.76,103.54 -19.81,39.42 -61.78,54.82 -102.35,69.71 -11.38,4.18 -22.13,8.12 -32.45,12.59 -1.26,0.53 -2.47,1.21 -3.72,1.77 38.57,106.63 8.12,218.94 -78.98,290.35 4.25,14.58 9.21,28.33 15.01,40.45 1.8,3.76 1.07,8.24 -1.81,11.24 -2.88,3 -7.33,3.92 -11.15,2.27 -0.73,-0.31 -20.55,-8.53 -54.15,-17.55 -91.67,52.01 -205.07,46.42 -289.09,-14.33 -0.28,-0.21 -0.43,-0.52 -0.68,-0.75 -67.03,11.07 -138.74,33.8 -210.33,75.32 -1.61,1.01 -2.65,1.54 -2.98,1.69 -4.86,2.34 -10.65,0.43 -13.17,-4.29 -2.53,-4.74 -0.87,-10.63 3.77,-13.34 0.86,-0.51 1.74,-1.02 2.61,-1.52 11.22,-7.38 67.87,-53.7 62.17,-231.08 -56.65,-53.58 -116.07,-161.71 -115.32,-247.41 0.89,-101.83 44.23,-186.27 116.05,-227.07 0.25,-0.81 0.45,-1.62 0.71,-2.43 3.16,-9.67 6.55,-19.29 9.95,-28.91 9.42,-26.64 19.14,-54.189 22.92,-82.08 2.63,-19.352 1.49,-34.762 -3.49,-47.102 -5.82,-14.457 -17.8,-24.878 -30.49,-26.558 -6.62,-0.891 -13.95,1.262 -19.57,5.68 -4.54,3.582 -7.33,8.218 -7.84,13.07 -0.54,5.121 2.57,10.98 7.76,14.601 2.02,1.399 7.28,4.387 12.25,1.938 1.1,-0.547 1.97,-2.379 2.2,-4.68 0.38,-3.66 -0.91,-7.648 -2.99,-9.277 -4.34,-3.41 -5.1,-9.703 -1.69,-14.051 3.4,-4.332 9.67,-5.109 14.04,-1.699 7.49,5.879 11.63,16.519 10.54,27.09 -0.97,9.379 -5.8,16.867 -13.25,20.547 -10.1,5 -22.27,3.679 -32.55,-3.469 -11.15,-7.781 -17.51,-20.781 -16.2,-33.11 1.09,-10.261 6.54,-19.718 15.34,-26.671 8.29,-6.52 18.83,-10.149 29.1,-10.149 1.83,0 3.66,0.121 5.47,0.352 19.73,2.597 37.95,17.867 46.43,38.91 6.31,15.648 7.87,34.387 4.77,57.277 -4.07,29.91 -14.14,58.441 -23.89,86.051 -3.34,9.46 -6.69,18.92 -9.79,28.43 -4.83,14.83 -7.91,29.85 -9.38,44.79 10.11,-36.28 23.07,-70.73 38.88,-102.82 11.63,-23.619 18.89,-46.58 25.3,-66.849 12.91,-40.84 24.06,-76.11 63.38,-97.66 11.04,-6.059 24.09,-8.762 38.47,-8.762 14.15,0 29.6,2.68 45.69,7.301 5.63,-57.68 0.9,-115.27 -14.26,-171.258 -0.13,-0.461 -0.04,-0.922 -0.1,-1.391 H 2962.79 V 1685.78 c 0,319.86 260.23,580.08 580.08,580.08 319.85,0 580.08,-260.22 580.08,-580.08 z m -297.38,737.999 c -35.11,19.54 -65.56,47.66 -87.57,81.2 0.79,1.43 1.24,3.04 1.25,4.73 0,1.2 0.88,94.41 19.68,173.94 74.37,-65.6 99.96,-164.98 66.64,-259.87 z m 147.86,-407.971 c 11.43,-24.438 23.25,-49.707 29.2,-75.418 6.73,-29.032 5.03,-70.243 -21.9,-90.852 -24.15,-18.508 -65.45,-26.891 -92.8,-8.891 -40.23,26.493 -74.88,24.442 -108.4,22.403 -16.92,-1 -33.05,-1.762 -49.75,0.859 -2.81,79.949 4.33,159.64 21.6,240.63 0.38,1.81 0.09,3.55 -0.45,5.18 6.61,22.29 9.25,37.99 9.53,39.81 1.3,14.54 2.79,26.13 4.11,36.36 1.51,11.77 2.74,21.78 3.15,32.01 20.38,-36.8 25.89,-77.22 14.72,-112 -14.01,-43.63 -16.64,-68.23 19.74,-105.13 9.21,-9.34 20.73,-24.29 23.38,-42.45 2.31,-15.851 -3.54,-31.988 -14.54,-40.16 -11.21,-8.301 -28.62,-7.101 -36.55,2.539 -4.33,5.281 -5.62,12.731 -3.12,18.121 2.29,4.961 8.56,8.11 13.19,6.621 1.97,-0.64 3.84,-2.582 4.77,-4.961 0.75,-1.949 0.76,-3.898 0.01,-5.21 -2.74,-4.809 -1.06,-10.911 3.74,-13.641 4.79,-2.719 10.9,-1.051 13.64,3.742 3.75,6.59 4.21,14.738 1.25,22.359 -3.12,8 -9.57,14.262 -17.26,16.739 -14.13,4.59 -30.94,-3.149 -37.49,-17.239 -5.69,-12.289 -3.36,-28.05 5.82,-39.23 8.35,-10.148 21.33,-15.43 34.63,-15.43 10.23,0 20.64,3.121 29.28,9.539 17.01,12.61 25.81,35.813 22.41,59.09 -2.7,18.621 -12.7,37.172 -28.92,53.61 -29.38,29.811 -27.72,45.181 -14.94,84.981 13.59,42.27 6.26,91.38 -20.07,134.75 -5.36,8.81 -11.21,17.15 -17.3,25.21 -0.13,0.65 -0.2,1.21 -0.34,1.88 -0.77,3.67 -3.5,6.33 -6.84,7.38 -24.14,29.44 -52.91,52.9 -83.63,67.62 -23.08,11.06 -46.99,17.6 -70.11,23.93 -36.74,10.05 -71.43,19.55 -100.62,45.86 -46.38,41.78 -73.93,87.26 -84.43,138.5 90.01,-0.3 206.38,-8.55 299.35,-41.57 -0.09,-1.99 0.22,-4 1.37,-5.8 26.05,-41.18 63.95,-75.06 107.61,-96.85 0.32,-0.17 0.54,-0.44 0.88,-0.57 0.18,-0.07 0.35,-0.05 0.53,-0.1 3.8,-1.87 7.56,-3.8 11.44,-5.47 10.84,-4.69 22.36,-8.92 33.49,-13.01 38.64,-14.17 75.12,-27.56 91.38,-59.91 11.03,-21.94 10.86,-50.98 -0.53,-88.8 -2.28,-7.61 -4.81,-15.18 -7.34,-22.76 -8.01,-23.97 -16.29,-48.77 -17.17,-75.03 -1.45,-42.86 16.72,-81.68 34.28,-119.241 z m -521.1,706.371 c 69.24,41.53 155.64,45.94 230.22,11.99 -56.82,-12.5 -138.08,-22.83 -230.22,-11.99 z m 300.19,10.44 c -26.3,-71.56 -31.82,-171.89 -32.97,-208.72 -96.96,33.42 -214.9,41.37 -305.19,41.37 -60.27,0 -108.22,-3.55 -129.38,-5.42 0.57,24.9 -0.12,47.27 -1.73,67.49 19.12,-7.73 38.96,-8.03 59.24,-7.24 5.52,0.22 9.81,4.88 9.59,10.39 -0.22,5.52 -5.01,10.14 -10.39,9.59 -21.34,-0.84 -41.55,0.53 -60.82,10.41 -6.47,51.45 -19.35,86.37 -32.45,109.6 222,-105.73 436.36,-50.01 504.1,-27.47 z m -499.36,-490.95 c -7.47,-3.82 -13.65,-5.25 -18.67,-4.08 -4.97,1.2 -10.12,-1.62 -11.78,-6.52 -1.65,-4.88 0.69,-10.22 5.4,-12.33 8.7,-3.89 18.12,-5.84 27.55,-5.84 0.62,0 1.22,0.06 1.84,0.07 1.01,-6.06 2.03,-12.05 3.07,-17.82 -6.85,-28.37 -7.59,-58.34 -2.15,-88.2 -80.96,58.47 -88.69,165.55 -88.98,198.96 -0.68,78.1 55.72,182.65 109.65,233.3 12.22,1.14 56.66,4.94 116.13,5.61 -4.03,-32.64 -26.18,-79.74 -49.65,-103.35 -12.85,-12.91 -27.35,-24.89 -41.37,-36.47 -18.65,-15.41 -37.95,-31.34 -54.35,-50.17 -0.29,-0.34 -0.4,-0.75 -0.63,-1.11 -0.35,-0.51 -0.66,-1.02 -0.9,-1.59 -0.28,-0.65 -0.46,-1.3 -0.59,-1.99 -0.07,-0.37 -0.28,-0.68 -0.31,-1.06 -2.6,-31.46 0.64,-70.39 5.74,-107.41 z m 18.79,11.31 c -1.19,9.44 -2.41,18.89 -3.26,28.31 21.1,5.54 45.14,0.25 61.54,-14.14 7.4,-6.49 13.31,-13.92 17.63,-21.85 -2.19,1.54 -4.54,2.87 -7.04,3.94 -2.98,1.94 -6.08,3.77 -9.36,5.41 -9.84,4.95 -24.95,10.05 -41.23,6.2 -6.78,-1.62 -12.7,-4.56 -18.28,-7.87 z M 3477.8,977.289 c -4.02,1.57 -7.95,2.231 -11.42,2.82 -3.68,0.621 -6.86,1.161 -9.51,2.602 -5.47,2.988 -10.43,7.418 -15.69,12.098 -1.9,1.703 -3.81,3.402 -5.74,5.031 -8,6.79 -18.95,14.76 -32.63,16.12 -8.47,0.83 -18,-1.7 -25.07,-7.26 -2.63,2.75 -5.8,5.24 -9.63,7 -6.02,2.79 -13.28,3.06 -19.49,0.77 -5.05,-1.86 -9,-5.37 -11.36,-9.85 -1.52,3.37 -2.91,6.7 -4.59,10.12 -22.32,45.28 -38.92,95.43 -49.36,149.05 -2.06,10.58 -4.15,22.14 -6.13,34.17 1.05,0.36 2.12,0.66 3.15,1.08 5.17,2.03 9.84,4.59 14.37,7.08 5.14,2.83 10.01,5.49 14.97,7.02 6.63,2.04 15.3,2.09 21.85,-0.22 2.87,-1.92 5.83,-4.05 9.05,-6.37 4.06,-2.93 9.68,-2.4 13.14,1.28 0.34,0.37 0.51,0.82 0.78,1.22 1.73,-7.71 2.11,-15.6 0.8,-23.35 -4.61,-27.39 -13.19,-78.35 -31.71,-126.29 -1.1,-2.86 -0.84,-6.05 0.72,-8.69 1.54,-2.62 4.21,-4.4 7.23,-4.82 13.79,-1.91 27.63,-2.87 41.46,-2.87 20.44,0 40.85,2.09 61.02,6.26 5.4,1.12 8.88,6.42 7.77,11.83 -1.13,5.41 -6.45,8.87 -11.83,7.76 -27.49,-5.7 -55.47,-7.23 -83.26,-4.62 16.18,46.03 23.97,92.29 28.33,118.11 4.92,29.24 -6.89,59.64 -31.6,81.32 -20.69,18.13 -49.53,25.26 -76.18,19.46 -0.81,15.03 -0.92,29.39 -0.03,42.47 14.81,16.5 31.76,30.62 49.72,45.46 14.4,11.88 29.29,24.18 42.82,37.79 17.73,17.83 36.69,49.8 47.43,81.5 14.99,-42.63 42.06,-81.33 81.99,-117.31 32.72,-29.48 71.37,-40.06 108.74,-50.29 22.27,-6.09 45.29,-12.4 66.76,-22.67 29.73,-14.26 57.57,-37.59 80.61,-67.04 4.35,-24.37 2.59,-38.74 -0.54,-63.11 -1.35,-10.41 -2.88,-22.22 -4.12,-36.45 -0.14,-0.9 -14.91,-89.86 -68.63,-151.539 -53.48,-61.422 -199.6,-155.602 -258.98,-123.031 -28.35,15.531 -38.81,39.601 -49.45,72.152 6.53,-4.184 14.6,-6.434 23.34,-6.434 1.44,0 2.89,0.063 4.35,0.192 10.89,0.91 20.81,4.871 29.59,8.371 5.54,2.219 11.3,4.32 17.1,6.437 13.92,5.071 28.3,10.321 41.17,17.622 3.36,1.902 5.32,5.57 5.04,9.421 -0.27,3.848 -2.74,7.2 -6.35,8.598 z m 15.73,-308.008 c 15.39,58.559 19.99,118.77 13.55,179.039 68.51,25.371 143.78,80.93 179.99,122.5 12.34,14.18 22.64,29.53 31.36,44.94 -15.61,-113.479 -11.59,-225.369 12.06,-339.908 0.6,-2.954 0,0 1.35,-6.571 z m 49.34,1636.579 c -341.91,0 -620.08,-278.16 -620.08,-620.08 V 629.281 H 4162.95 V 1685.78 c 0,341.92 -278.17,620.08 -620.08,620.08 z m 528.23,-963.35 c 7.46,0 13.5,6.04 13.5,13.5 0,7.46 -6.04,13.5 -13.5,13.5 -7.45,0 -13.49,-6.04 -13.49,-13.5 0,-7.46 6.04,-13.5 13.49,-13.5 z m -579.68,-123.1 c 8.59,-0.29 17.18,-4.22 26.28,-8.38 3.44,-1.59 6.89,-3.16 10.37,-4.57 19.94,-8.07 50.05,-17.69 81.38,-8.23 5.01,1.52 8.01,6.65 6.86,11.77 -1.15,5.12 -6.17,8.39 -11.24,7.7 -20.1,-3.02 -40.67,7.89 -60.56,18.42 l -4.79,2.53 c -21.46,11.29 -53.27,24.73 -81.47,11.25 -21.29,-10.15 -34.29,-35.34 -30.23,-58.58 0.74,-4.25 4.13,-7.55 8.41,-8.18 0.47,-0.06 0.96,-0.1 1.44,-0.1 3.75,0 7.24,2.11 8.95,5.52 4.68,9.39 18.17,30.87 43.13,30.87 0.49,0 0.98,-0.01 1.47,-0.02 z m -27.24,50.62 c 49.72,9.39 102.69,3.61 149.2,-16.34 5.07,-2.19 10.97,0.17 13.13,5.25 2.18,5.07 -0.17,10.95 -5.24,13.13 -50.13,21.49 -107.25,27.75 -160.81,17.61 -28.15,-5.32 -45.99,-16.83 -53.03,-34.18 -2.07,-5.12 0.39,-10.95 5.51,-13.03 1.23,-0.5 2.5,-0.73 3.76,-0.73 3.94,0 7.68,2.35 9.27,6.24 4.31,10.65 17.17,18.07 38.21,22.05 z m 606.92,-163.14 c 7.46,0 13.5,6.05 13.5,13.51 0,7.45 -6.04,13.5 -13.5,13.5 -7.45,0 -13.49,-6.05 -13.49,-13.5 0,-7.46 6.04,-13.51 13.49,-13.51 z m -654.4,469.9 c 24.75,0 44.82,20.07 44.82,44.82 0,24.76 -20.07,44.83 -44.82,44.83 -24.76,0 -44.83,-20.07 -44.83,-44.83 0,-24.75 20.07,-44.82 44.83,-44.82 z m 654.4,-352.08 c 7.46,0 13.5,6.04 13.5,13.49 0,7.45 -6.04,13.5 -13.5,13.5 -7.45,0 -13.49,-6.05 -13.49,-13.5 0,-7.45 6.04,-13.49 13.49,-13.49 z m 0,-353.421 c 7.46,0 13.5,6.043 13.5,13.5 0,7.453 -6.04,13.492 -13.5,13.492 -7.45,0 -13.49,-6.039 -13.49,-13.492 0,-7.457 6.04,-13.5 13.49,-13.5 z m 0,117.801 c 7.46,0 13.5,6.051 13.5,13.5 0,7.46 -6.04,13.5 -13.5,13.5 -7.45,0 -13.49,-6.04 -13.49,-13.5 0,-7.449 6.04,-13.5 13.49,-13.5 z"
         id="path208" /></clipPath><linearGradient
       x1="0"
       y1="0"
       x2="1"
       y2="0"
       gradientUnits="userSpaceOnUse"
       gradientTransform="matrix(1240.16,0,0,-1240.16,2922.79,1467.57)"
       spreadMethod="pad"
       id="linearGradient224"><stop
         style="stop-opacity:1;stop-color:#e8bf6a"
         offset="0"
         id="stop212" /><stop
         style="stop-opacity:1;stop-color:#e8bf6a"
         offset="0.005618"
         id="stop214" /><stop
         style="stop-opacity:1;stop-color:#ecd177"
         offset="0.291895"
         id="stop216" /><stop
         style="stop-opacity:1;stop-color:#f5ebd9"
         offset="0.705065"
         id="stop218" /><stop
         style="stop-opacity:1;stop-color:#e9bb70"
         offset="0.949438"
         id="stop220" /><stop
         style="stop-opacity:1;stop-color:#e9bb70"
         offset="1"
         id="stop222" /></linearGradient></defs><sodipodi:namedview
     pagecolor="#ffffff"
     bordercolor="#666666"
     borderopacity="1"
     objecttolerance="10"
     gridtolerance="10"
     guidetolerance="10"
     inkscape:pageopacity="0"
     inkscape:pageshadow="2"
     inkscape:window-width="1440"
     inkscape:window-height="872"
     id="namedview4"
     inkscape:pagecheckerboard="0"
     showgrid="false"
     inkscape:zoom="0.66455564"
     inkscape:cx="208.40994"
     inkscape:cy="325.02922"
     inkscape:window-x="0"
     inkscape:window-y="28"
     inkscape:window-maximized="0"
     inkscape:current-layer="g12"
     inkscape:document-units="cm" /><g
     id="g10"
     inkscape:groupmode="layer"
     inkscape:label="ink_ext_XXXXXX"
     transform="matrix(1.3333333,0,0,-1.3333333,0,666.66667)"><g
       id="g12"
       transform="scale(0.1)"><g
         id="g2552"
         transform="translate(12.530673,2130.2144)"><g
           id="g2466"><g
             id="g172"><g
               id="g174"
               clip-path="url(#clipPath178)" /></g></g></g><g
         id="g2637"
         transform="matrix(2.68118,0,0,2.68118,-6992.1124,-1443.1149)"><g
           id="g204"
           style="stroke:#000000;stroke-opacity:1"><g
             id="g206"
             clip-path="url(#clipPath210)"
             style="stroke:#000000;stroke-opacity:1"><path
               d="m 3017.85,1369.51 c -7.45,0 -13.49,-6.04 -13.49,-13.5 0,-7.46 6.04,-13.5 13.49,-13.5 7.45,0 13.5,6.04 13.5,13.5 0,7.46 -6.05,13.5 -13.5,13.5 z m 0,117.8 c -7.45,0 -13.49,-6.04 -13.49,-13.49 0,-7.46 6.04,-13.51 13.49,-13.51 7.45,0 13.5,6.05 13.5,13.51 0,7.45 -6.05,13.49 -13.5,13.49 z m 0,117.81 c -7.45,0 -13.49,-6.05 -13.49,-13.5 0,-7.46 6.04,-13.5 13.49,-13.5 7.45,0 13.5,6.04 13.5,13.5 0,7.45 -6.05,13.5 -13.5,13.5 z m 0,-353.42 c -7.45,0 -13.49,-6.05 -13.49,-13.5 0,-7.45 6.04,-13.49 13.49,-13.49 7.45,0 13.5,6.04 13.5,13.49 0,7.45 -6.05,13.5 -13.5,13.5 z m 0,-235.61 c -7.45,0 -13.49,-6.04 -13.49,-13.5 0,-7.449 6.04,-13.5 13.49,-13.5 7.45,0 13.5,6.051 13.5,13.5 0,7.46 -6.05,13.5 -13.5,13.5 z m 0,117.81 c -7.45,0 -13.49,-6.05 -13.49,-13.5 0,-7.46 6.04,-13.51 13.49,-13.51 7.45,0 13.5,6.05 13.5,13.51 0,7.45 -6.05,13.5 -13.5,13.5 z m 163.08,865.47 -3.83,13.77 -3.82,-13.77 c -5.99,-21.61 -22.88,-38.48 -44.47,-44.48 l -13.79,-3.83 13.79,-3.81 c 21.59,-6 38.48,-22.87 44.47,-44.48 l 3.82,-13.78 3.83,13.78 c 5.99,21.61 22.87,38.48 44.47,44.48 l 13.78,3.81 -13.78,3.83 c -21.6,6 -38.48,22.87 -44.47,44.48 z m 890.17,-539.06 c 7.46,0 13.5,6.05 13.5,13.51 0,7.45 -6.04,13.49 -13.5,13.49 -7.45,0 -13.49,-6.04 -13.49,-13.49 0,-7.46 6.04,-13.51 13.49,-13.51 z m 0,117.81 c 7.46,0 13.5,6.04 13.5,13.5 0,7.45 -6.04,13.5 -13.5,13.5 -7.45,0 -13.49,-6.05 -13.49,-13.5 0,-7.46 6.04,-13.5 13.49,-13.5 z m -148.23,421.25 -3.82,13.77 -3.83,-13.77 c -5.99,-21.61 -22.87,-38.48 -44.47,-44.48 l -13.78,-3.83 13.78,-3.81 c 21.6,-6 38.48,-22.87 44.47,-44.48 l 3.83,-13.78 3.82,13.78 c 6,21.61 22.87,38.48 44.47,44.48 l 13.78,3.81 -13.78,3.83 c -21.6,6 -38.47,22.87 -44.47,44.48 z M 3017.85,898.281 c -7.45,0 -13.49,-6.039 -13.49,-13.492 0,-7.457 6.04,-13.5 13.49,-13.5 7.45,0 13.5,6.043 13.5,13.5 0,7.453 -6.05,13.492 -13.5,13.492 z M 4071.1,1695.93 c 7.46,0 13.5,6.04 13.5,13.49 0,7.46 -6.04,13.51 -13.5,13.51 -7.45,0 -13.49,-6.05 -13.49,-13.51 0,-7.45 6.04,-13.49 13.49,-13.49 z m -1053.25,27 c -7.45,0 -13.49,-6.05 -13.49,-13.51 0,-7.45 6.04,-13.49 13.49,-13.49 7.45,0 13.5,6.04 13.5,13.49 0,7.46 -6.05,13.51 -13.5,13.51 z m 468.08,-124.98 c 2.63,-0.5 36.93,-6.81 83.77,-6.81 41.89,0 93.82,5.05 142.09,23.79 5.14,2 7.69,7.8 5.7,12.95 -2,5.15 -7.81,7.68 -12.95,5.7 -96.8,-37.61 -213.73,-16.2 -214.9,-15.98 -5.44,1.02 -10.66,-2.55 -11.68,-7.97 -1.03,-5.43 2.54,-10.66 7.97,-11.68 z M 3017.85,780.48 c -7.45,0 -13.49,-6.05 -13.49,-13.5 0,-7.46 6.04,-13.488 13.49,-13.488 7.45,0 13.5,6.028 13.5,13.488 0,7.45 -6.05,13.5 -13.5,13.5 z M 4071.1,753.492 c 7.46,0 13.5,6.028 13.5,13.488 0,7.45 -6.04,13.5 -13.5,13.5 -7.45,0 -13.49,-6.05 -13.49,-13.5 0,-7.46 6.04,-13.488 13.49,-13.488 z m 51.85,-84.211 h -371.17 c -1.7,10.61 -0.8,6.25 -1.7,10.61 -10.21,49.398 -16.62,98.281 -19.38,147.019 17.41,-2.219 33.93,-1.289 50.03,-0.32 31.63,1.89 61.52,3.691 96.2,-19.141 14.2,-9.347 30.65,-13.32 47.16,-13.32 25.44,0 51.05,9.41 68.81,23.031 34.42,26.379 37.67,74.75 29.22,111.238 -6.43,27.762 -18.7,54 -30.57,79.382 -17.33,37.05 -33.7,72.04 -32.42,110.11 0.79,23.35 8.25,45.69 16.15,69.36 2.6,7.77 5.19,15.53 7.54,23.33 12.92,42.96 12.68,76.82 -0.76,103.54 -19.81,39.42 -61.78,54.82 -102.35,69.71 -11.38,4.18 -22.13,8.12 -32.45,12.59 -1.26,0.53 -2.47,1.21 -3.72,1.77 38.57,106.63 8.12,218.94 -78.98,290.35 4.25,14.58 9.21,28.33 15.01,40.45 1.8,3.76 1.07,8.24 -1.81,11.24 -2.88,3 -7.33,3.92 -11.15,2.27 -0.73,-0.31 -20.55,-8.53 -54.15,-17.55 -91.67,52.01 -205.07,46.42 -289.09,-14.33 -0.28,-0.21 -0.43,-0.52 -0.68,-0.75 -67.03,11.07 -138.74,33.8 -210.33,75.32 -1.61,1.01 -2.65,1.54 -2.98,1.69 -4.86,2.34 -10.65,0.43 -13.17,-4.29 -2.53,-4.74 -0.87,-10.63 3.77,-13.34 0.86,-0.51 1.74,-1.02 2.61,-1.52 11.22,-7.38 67.87,-53.7 62.17,-231.08 -56.65,-53.58 -116.07,-161.71 -115.32,-247.41 0.89,-101.83 44.23,-186.27 116.05,-227.07 0.25,-0.81 0.45,-1.62 0.71,-2.43 3.16,-9.67 6.55,-19.29 9.95,-28.91 9.42,-26.64 19.14,-54.189 22.92,-82.08 2.63,-19.352 1.49,-34.762 -3.49,-47.102 -5.82,-14.457 -17.8,-24.878 -30.49,-26.558 -6.62,-0.891 -13.95,1.262 -19.57,5.68 -4.54,3.582 -7.33,8.218 -7.84,13.07 -0.54,5.121 2.57,10.98 7.76,14.601 2.02,1.399 7.28,4.387 12.25,1.938 1.1,-0.547 1.97,-2.379 2.2,-4.68 0.38,-3.66 -0.91,-7.648 -2.99,-9.277 -4.34,-3.41 -5.1,-9.703 -1.69,-14.051 3.4,-4.332 9.67,-5.109 14.04,-1.699 7.49,5.879 11.63,16.519 10.54,27.09 -0.97,9.379 -5.8,16.867 -13.25,20.547 -10.1,5 -22.27,3.679 -32.55,-3.469 -11.15,-7.781 -17.51,-20.781 -16.2,-33.11 1.09,-10.261 6.54,-19.718 15.34,-26.671 8.29,-6.52 18.83,-10.149 29.1,-10.149 1.83,0 3.66,0.121 5.47,0.352 19.73,2.597 37.95,17.867 46.43,38.91 6.31,15.648 7.87,34.387 4.77,57.277 -4.07,29.91 -14.14,58.441 -23.89,86.051 -3.34,9.46 -6.69,18.92 -9.79,28.43 -4.83,14.83 -7.91,29.85 -9.38,44.79 10.11,-36.28 23.07,-70.73 38.88,-102.82 11.63,-23.619 18.89,-46.58 25.3,-66.849 12.91,-40.84 24.06,-76.11 63.38,-97.66 11.04,-6.059 24.09,-8.762 38.47,-8.762 14.15,0 29.6,2.68 45.69,7.301 5.63,-57.68 0.9,-115.27 -14.26,-171.258 -0.13,-0.461 -0.04,-0.922 -0.1,-1.391 H 2962.79 V 1685.78 c 0,319.86 260.23,580.08 580.08,580.08 319.85,0 580.08,-260.22 580.08,-580.08 z m -297.38,737.999 c -35.11,19.54 -65.56,47.66 -87.57,81.2 0.79,1.43 1.24,3.04 1.25,4.73 0,1.2 0.88,94.41 19.68,173.94 74.37,-65.6 99.96,-164.98 66.64,-259.87 z m 147.86,-407.971 c 11.43,-24.438 23.25,-49.707 29.2,-75.418 6.73,-29.032 5.03,-70.243 -21.9,-90.852 -24.15,-18.508 -65.45,-26.891 -92.8,-8.891 -40.23,26.493 -74.88,24.442 -108.4,22.403 -16.92,-1 -33.05,-1.762 -49.75,0.859 -2.81,79.949 4.33,159.64 21.6,240.63 0.38,1.81 0.09,3.55 -0.45,5.18 6.61,22.29 9.25,37.99 9.53,39.81 1.3,14.54 2.79,26.13 4.11,36.36 1.51,11.77 2.74,21.78 3.15,32.01 20.38,-36.8 25.89,-77.22 14.72,-112 -14.01,-43.63 -16.64,-68.23 19.74,-105.13 9.21,-9.34 20.73,-24.29 23.38,-42.45 2.31,-15.851 -3.54,-31.988 -14.54,-40.16 -11.21,-8.301 -28.62,-7.101 -36.55,2.539 -4.33,5.281 -5.62,12.731 -3.12,18.121 2.29,4.961 8.56,8.11 13.19,6.621 1.97,-0.64 3.84,-2.582 4.77,-4.961 0.75,-1.949 0.76,-3.898 0.01,-5.21 -2.74,-4.809 -1.06,-10.911 3.74,-13.641 4.79,-2.719 10.9,-1.051 13.64,3.742 3.75,6.59 4.21,14.738 1.25,22.359 -3.12,8 -9.57,14.262 -17.26,16.739 -14.13,4.59 -30.94,-3.149 -37.49,-17.239 -5.69,-12.289 -3.36,-28.05 5.82,-39.23 8.35,-10.148 21.33,-15.43 34.63,-15.43 10.23,0 20.64,3.121 29.28,9.539 17.01,12.61 25.81,35.813 22.41,59.09 -2.7,18.621 -12.7,37.172 -28.92,53.61 -29.38,29.811 -27.72,45.181 -14.94,84.981 13.59,42.27 6.26,91.38 -20.07,134.75 -5.36,8.81 -11.21,17.15 -17.3,25.21 -0.13,0.65 -0.2,1.21 -0.34,1.88 -0.77,3.67 -3.5,6.33 -6.84,7.38 -24.14,29.44 -52.91,52.9 -83.63,67.62 -23.08,11.06 -46.99,17.6 -70.11,23.93 -36.74,10.05 -71.43,19.55 -100.62,45.86 -46.38,41.78 -73.93,87.26 -84.43,138.5 90.01,-0.3 206.38,-8.55 299.35,-41.57 -0.09,-1.99 0.22,-4 1.37,-5.8 26.05,-41.18 63.95,-75.06 107.61,-96.85 0.32,-0.17 0.54,-0.44 0.88,-0.57 0.18,-0.07 0.35,-0.05 0.53,-0.1 3.8,-1.87 7.56,-3.8 11.44,-5.47 10.84,-4.69 22.36,-8.92 33.49,-13.01 38.64,-14.17 75.12,-27.56 91.38,-59.91 11.03,-21.94 10.86,-50.98 -0.53,-88.8 -2.28,-7.61 -4.81,-15.18 -7.34,-22.76 -8.01,-23.97 -16.29,-48.77 -17.17,-75.03 -1.45,-42.86 16.72,-81.68 34.28,-119.241 z m -521.1,706.371 c 69.24,41.53 155.64,45.94 230.22,11.99 -56.82,-12.5 -138.08,-22.83 -230.22,-11.99 z m 300.19,10.44 c -26.3,-71.56 -31.82,-171.89 -32.97,-208.72 -96.96,33.42 -214.9,41.37 -305.19,41.37 -60.27,0 -108.22,-3.55 -129.38,-5.42 0.57,24.9 -0.12,47.27 -1.73,67.49 19.12,-7.73 38.96,-8.03 59.24,-7.24 5.52,0.22 9.81,4.88 9.59,10.39 -0.22,5.52 -5.01,10.14 -10.39,9.59 -21.34,-0.84 -41.55,0.53 -60.82,10.41 -6.47,51.45 -19.35,86.37 -32.45,109.6 222,-105.73 436.36,-50.01 504.1,-27.47 z m -499.36,-490.95 c -7.47,-3.82 -13.65,-5.25 -18.67,-4.08 -4.97,1.2 -10.12,-1.62 -11.78,-6.52 -1.65,-4.88 0.69,-10.22 5.4,-12.33 8.7,-3.89 18.12,-5.84 27.55,-5.84 0.62,0 1.22,0.06 1.84,0.07 1.01,-6.06 2.03,-12.05 3.07,-17.82 -6.85,-28.37 -7.59,-58.34 -2.15,-88.2 -80.96,58.47 -88.69,165.55 -88.98,198.96 -0.68,78.1 55.72,182.65 109.65,233.3 12.22,1.14 56.66,4.94 116.13,5.61 -4.03,-32.64 -26.18,-79.74 -49.65,-103.35 -12.85,-12.91 -27.35,-24.89 -41.37,-36.47 -18.65,-15.41 -37.95,-31.34 -54.35,-50.17 -0.29,-0.34 -0.4,-0.75 -0.63,-1.11 -0.35,-0.51 -0.66,-1.02 -0.9,-1.59 -0.28,-0.65 -0.46,-1.3 -0.59,-1.99 -0.07,-0.37 -0.28,-0.68 -0.31,-1.06 -2.6,-31.46 0.64,-70.39 5.74,-107.41 z m 18.79,11.31 c -1.19,9.44 -2.41,18.89 -3.26,28.31 21.1,5.54 45.14,0.25 61.54,-14.14 7.4,-6.49 13.31,-13.92 17.63,-21.85 -2.19,1.54 -4.54,2.87 -7.04,3.94 -2.98,1.94 -6.08,3.77 -9.36,5.41 -9.84,4.95 -24.95,10.05 -41.23,6.2 -6.78,-1.62 -12.7,-4.56 -18.28,-7.87 z M 3477.8,977.289 c -4.02,1.57 -7.95,2.231 -11.42,2.82 -3.68,0.621 -6.86,1.161 -9.51,2.602 -5.47,2.988 -10.43,7.418 -15.69,12.098 -1.9,1.703 -3.81,3.402 -5.74,5.031 -8,6.79 -18.95,14.76 -32.63,16.12 -8.47,0.83 -18,-1.7 -25.07,-7.26 -2.63,2.75 -5.8,5.24 -9.63,7 -6.02,2.79 -13.28,3.06 -19.49,0.77 -5.05,-1.86 -9,-5.37 -11.36,-9.85 -1.52,3.37 -2.91,6.7 -4.59,10.12 -22.32,45.28 -38.92,95.43 -49.36,149.05 -2.06,10.58 -4.15,22.14 -6.13,34.17 1.05,0.36 2.12,0.66 3.15,1.08 5.17,2.03 9.84,4.59 14.37,7.08 5.14,2.83 10.01,5.49 14.97,7.02 6.63,2.04 15.3,2.09 21.85,-0.22 2.87,-1.92 5.83,-4.05 9.05,-6.37 4.06,-2.93 9.68,-2.4 13.14,1.28 0.34,0.37 0.51,0.82 0.78,1.22 1.73,-7.71 2.11,-15.6 0.8,-23.35 -4.61,-27.39 -13.19,-78.35 -31.71,-126.29 -1.1,-2.86 -0.84,-6.05 0.72,-8.69 1.54,-2.62 4.21,-4.4 7.23,-4.82 13.79,-1.91 27.63,-2.87 41.46,-2.87 20.44,0 40.85,2.09 61.02,6.26 5.4,1.12 8.88,6.42 7.77,11.83 -1.13,5.41 -6.45,8.87 -11.83,7.76 -27.49,-5.7 -55.47,-7.23 -83.26,-4.62 16.18,46.03 23.97,92.29 28.33,118.11 4.92,29.24 -6.89,59.64 -31.6,81.32 -20.69,18.13 -49.53,25.26 -76.18,19.46 -0.81,15.03 -0.92,29.39 -0.03,42.47 14.81,16.5 31.76,30.62 49.72,45.46 14.4,11.88 29.29,24.18 42.82,37.79 17.73,17.83 36.69,49.8 47.43,81.5 14.99,-42.63 42.06,-81.33 81.99,-117.31 32.72,-29.48 71.37,-40.06 108.74,-50.29 22.27,-6.09 45.29,-12.4 66.76,-22.67 29.73,-14.26 57.57,-37.59 80.61,-67.04 4.35,-24.37 2.59,-38.74 -0.54,-63.11 -1.35,-10.41 -2.88,-22.22 -4.12,-36.45 -0.14,-0.9 -14.91,-89.86 -68.63,-151.539 -53.48,-61.422 -199.6,-155.602 -258.98,-123.031 -28.35,15.531 -38.81,39.601 -49.45,72.152 6.53,-4.184 14.6,-6.434 23.34,-6.434 1.44,0 2.89,0.063 4.35,0.192 10.89,0.91 20.81,4.871 29.59,8.371 5.54,2.219 11.3,4.32 17.1,6.437 13.92,5.071 28.3,10.321 41.17,17.622 3.36,1.902 5.32,5.57 5.04,9.421 -0.27,3.848 -2.74,7.2 -6.35,8.598 z m 15.73,-308.008 c 15.39,58.559 19.99,118.77 13.55,179.039 68.51,25.371 143.78,80.93 179.99,122.5 12.34,14.18 22.64,29.53 31.36,44.94 -15.61,-113.479 -11.59,-225.369 12.06,-339.908 0.6,-2.954 0,0 1.35,-6.571 z m 49.34,1636.579 c -341.91,0 -620.08,-278.16 -620.08,-620.08 V 629.281 H 4162.95 V 1685.78 c 0,341.92 -278.17,620.08 -620.08,620.08 z m 528.23,-963.35 c 7.46,0 13.5,6.04 13.5,13.5 0,7.46 -6.04,13.5 -13.5,13.5 -7.45,0 -13.49,-6.04 -13.49,-13.5 0,-7.46 6.04,-13.5 13.49,-13.5 z m -579.68,-123.1 c 8.59,-0.29 17.18,-4.22 26.28,-8.38 3.44,-1.59 6.89,-3.16 10.37,-4.57 19.94,-8.07 50.05,-17.69 81.38,-8.23 5.01,1.52 8.01,6.65 6.86,11.77 -1.15,5.12 -6.17,8.39 -11.24,7.7 -20.1,-3.02 -40.67,7.89 -60.56,18.42 l -4.79,2.53 c -21.46,11.29 -53.27,24.73 -81.47,11.25 -21.29,-10.15 -34.29,-35.34 -30.23,-58.58 0.74,-4.25 4.13,-7.55 8.41,-8.18 0.47,-0.06 0.96,-0.1 1.44,-0.1 3.75,0 7.24,2.11 8.95,5.52 4.68,9.39 18.17,30.87 43.13,30.87 0.49,0 0.98,-0.01 1.47,-0.02 z m -27.24,50.62 c 49.72,9.39 102.69,3.61 149.2,-16.34 5.07,-2.19 10.97,0.17 13.13,5.25 2.18,5.07 -0.17,10.95 -5.24,13.13 -50.13,21.49 -107.25,27.75 -160.81,17.61 -28.15,-5.32 -45.99,-16.83 -53.03,-34.18 -2.07,-5.12 0.39,-10.95 5.51,-13.03 1.23,-0.5 2.5,-0.73 3.76,-0.73 3.94,0 7.68,2.35 9.27,6.24 4.31,10.65 17.17,18.07 38.21,22.05 z m 606.92,-163.14 c 7.46,0 13.5,6.05 13.5,13.51 0,7.45 -6.04,13.5 -13.5,13.5 -7.45,0 -13.49,-6.05 -13.49,-13.5 0,-7.46 6.04,-13.51 13.49,-13.51 z m -654.4,469.9 c 24.75,0 44.82,20.07 44.82,44.82 0,24.76 -20.07,44.83 -44.82,44.83 -24.76,0 -44.83,-20.07 -44.83,-44.83 0,-24.75 20.07,-44.82 44.83,-44.82 z m 654.4,-352.08 c 7.46,0 13.5,6.04 13.5,13.49 0,7.45 -6.04,13.5 -13.5,13.5 -7.45,0 -13.49,-6.05 -13.49,-13.5 0,-7.45 6.04,-13.49 13.49,-13.49 z m 0,-353.421 c 7.46,0 13.5,6.043 13.5,13.5 0,7.453 -6.04,13.492 -13.5,13.492 -7.45,0 -13.49,-6.039 -13.49,-13.492 0,-7.457 6.04,-13.5 13.49,-13.5 z m 0,117.801 c 7.46,0 13.5,6.051 13.5,13.5 0,7.46 -6.04,13.5 -13.5,13.5 -7.45,0 -13.49,-6.04 -13.49,-13.5 0,-7.449 6.04,-13.5 13.49,-13.5"
               style="fill:url(#linearGradient224);fill-opacity:1;fill-rule:nonzero;stroke:#000000;stroke-opacity:1"
               id="path226" /></g></g></g></g></g></svg>
