<?xml version="1.0" encoding="UTF-8" standalone="no"?>
<svg
   version="1.0"
   width="10cm"
   height="10cm"
   viewBox="0 0 283.46456 283.46456"
   preserveAspectRatio="xMidYMid meet"
   id="svg870"
   sodipodi:docname="arch.svg"
   inkscape:version="1.1.1 (c3084ef, 2021-09-22)"
   xmlns:inkscape="http://www.inkscape.org/namespaces/inkscape"
   xmlns:sodipodi="http://sodipodi.sourceforge.net/DTD/sodipodi-0.dtd"
   xmlns:xlink="http://www.w3.org/1999/xlink"
   xmlns="http://www.w3.org/2000/svg"
   xmlns:svg="http://www.w3.org/2000/svg">
  <defs
     id="defs874">
    <linearGradient
       inkscape:collect="always"
       id="linearGradient3443-3">
      <stop
         style="stop-color:#f8eaaf;stop-opacity:1;"
         offset="0"
         id="stop3449" />
      <stop
         style="stop-color:#f8eaaf;stop-opacity:0;"
         offset="1"
         id="stop3451" />
    </linearGradient>
    <linearGradient
       inkscape:collect="always"
       xlink:href="#linearGradient3443-3"
       id="linearGradient3447"
       x1="4519"
       y1="7681.5288"
       x2="9275.5693"
       y2="7681.5288"
       gradientUnits="userSpaceOnUse"
       gradientTransform="matrix(0.32391448,0,0,0.32391448,-752.33845,9900.4419)" />
  </defs>
  <sodipodi:namedview
     id="namedview872"
     pagecolor="#ffffff"
     bordercolor="#666666"
     borderopacity="1.0"
     inkscape:pageshadow="2"
     inkscape:pageopacity="0.0"
     inkscape:pagecheckerboard="0"
     inkscape:document-units="pt"
     showgrid="false"
     units="cm"
     inkscape:zoom="0.98046318"
     inkscape:cx="129.02065"
     inkscape:cy="288.63909"
     inkscape:window-width="1440"
     inkscape:window-height="900"
     inkscape:window-x="0"
     inkscape:window-y="0"
     inkscape:window-maximized="0"
     inkscape:current-layer="g868" />
  <g
     transform="matrix(0.1,0,0,-0.1,0,1380)"
     fill="#000000"
     stroke="none"
     id="g868">
    <path
       d="m 1497.8954,13748.545 c -0.9718,-2.591 -6.4783,-22.35 -11.9848,-43.727 -5.5067,-21.379 -10.6894,-41.786 -11.661,-45.349 -1.6195,-4.534 1.6197,-2.915 11.3371,6.478 l 13.2803,12.633 -0.6477,-219.938 -0.9718,-219.614 -25.5893,0.648 c -25.2653,0.647 -25.5892,0.971 -45.3479,16.842 -10.6893,8.747 -29.8002,21.055 -42.4329,27.534 l -22.674,11.66 23.9697,-24.292 c 12.9565,-13.282 22.35,-24.942 20.7305,-25.914 -1.6195,-1.295 -13.2805,5.506 -25.5893,14.576 -43.0806,31.42 -84.2177,45.024 -138.3114,44.377 -32.0676,0 -31.0958,-1.944 5.8304,-10.689 12.6327,-2.915 31.7436,-9.718 43.0807,-14.9 23.3218,-11.014 58.9524,-34.983 58.9524,-39.842 0,-1.944 -2.5913,-0.972 -5.5065,1.619 -3.2392,2.915 -12.9566,8.746 -22.0263,13.281 -54.4176,27.209 -115.3135,30.772 -174.266,10.365 -11.9848,-4.211 -59.2763,-27.856 -105.2722,-52.797 -45.67194,-24.942 -95.5547,-51.18 -110.7787,-57.982 -26.88491,-11.984 -28.50449,-12.309 -66.40243,-12.309 -44.37629,0 -56.68509,4.213 -84.54171,28.505 l -15.54789,13.604 9.71744,-17.815 c 8.74563,-15.548 19.11096,-25.913 42.10889,-41.46 5.18258,-3.564 2.2674,-3.888 -18.78706,-2.593 -29.8001,1.62 -53.12193,11.338 -73.52859,29.802 l -13.6044,12.307 5.50656,-12.307 c 3.88697,-7.774 73.52858,-76.768 203.41828,-200.828 108.83521,-103.977 201.79871,-193.378 206.65741,-198.56 l 9.0696,-9.392 -8.0979,-19.112 c -15.5478,-37.898 -9.0696,-79.034 17.4914,-109.16 20.0827,-22.673 39.1937,-18.138 53.122,12.633 4.5349,10.365 9.3935,24.294 10.3653,31.097 3.5631,19.435 9.0696,14.252 7.4501,-6.803 -1.6196,-23.969 -13.6044,-48.588 -34.6589,-72.88 -16.8436,-19.112 -37.5742,-53.122 -44.3763,-72.881 -7.1262,-21.055 3.563,-34.335 33.687,-40.814 5.5066,-1.295 10.3654,-3.562 10.3654,-5.181 0,-1.297 -8.098,-9.394 -17.8154,-17.815 -21.3784,-18.141 -22.9978,-26.887 -7.7739,-45.673 14.9001,-18.464 28.8284,-49.559 28.8284,-64.135 0,-6.803 -2.2674,-19.112 -5.5066,-27.533 -6.1544,-17.816 -4.2109,-34.334 5.8305,-47.292 8.7457,-10.689 19.111,-9.717 24.9414,2.267 5.5066,11.662 12.3088,52.799 16.8436,103.005 1.9435,22.35 4.5348,41.138 5.1827,41.785 2.5912,2.592 1.2956,-62.515 -1.9435,-94.259 -1.6196,-17.168 -6.1545,-46.319 -10.0414,-64.783 -9.0696,-41.784 -9.3935,-77.739 -1.6196,-93.287 11.0131,-21.055 21.0544,-29.153 36.9263,-29.153 13.2805,0 15.8718,1.62 36.2784,22.027 25.9132,25.912 32.3914,42.433 32.3914,81.303 0,30.772 9.3936,69.642 36.6024,154.182 11.6609,35.63 22.0261,68.671 22.9979,73.529 2.9152,13.604 -2.2674,22.675 -17.8153,29.8 -17.4913,8.422 -20.0827,17.492 -7.45,27.534 4.8586,3.562 10.3652,6.802 12.3087,6.802 1.9435,0 14.5762,-10.69 27.5327,-23.97 l 23.9697,-24.294 -24.2936,-71.586 -24.6174,-71.584 15.2239,-7.774 c 20.0827,-10.041 40.1654,-30.124 51.1786,-50.855 8.4217,-16.195 9.0695,-19.759 9.0695,-56.037 -0.3239,-36.277 -0.9717,-41.138 -12.3087,-74.5 -34.6589,-101.386 -112.7223,-214.755 -269.173,-390.318 -44.7002,-49.881 -64.459,-91.343 -64.7829,-134.423 -0.3239,-22.352 1.2956,-28.829 9.7174,-46.968 11.3371,-23.647 32.0675,-46.644 55.0655,-61.219 l 15.8718,-9.719 4.211,18.464 c 4.8586,21.054 13.9283,37.898 34.9827,63.486 14.9,18.788 23.6458,22.998 11.6609,6.155 -11.6609,-16.518 -26.561,-49.558 -31.7436,-69.965 -14.9,-57.333 9.7174,-106.244 68.022,-134.425 21.0545,-10.041 56.0372,-22.026 58.3046,-19.759 0.6479,0.648 -0.3239,11.984 -1.9435,24.618 -2.2674,17.815 -1.9435,31.744 1.9435,56.684 9.3935,64.461 33.0394,117.582 79.359,178.802 105.9201,139.283 209.2488,298.326 250.062,383.515 5.5065,11.336 10.6892,19.758 11.661,18.786 3.5631,-3.562 -30.448,-95.878 -50.8547,-137.664 -38.8696,-79.359 -84.8654,-145.113 -148.3527,-211.516 -42.7567,-44.699 -56.6851,-62.839 -71.909,-92.963 -28.1806,-56.362 -38.8697,-106.567 -38.8697,-183.011 0,-59.6 5.8304,-103.33 20.4065,-157.099 9.0697,-33.362 10.3653,-41.785 9.7175,-74.824 -0.3239,-20.406 -1.6196,-45.995 -2.5913,-57.009 l -1.9435,-19.759 -89.7244,-1.944 c -181.0682,-4.535 -370.55815,-24.292 -484.89994,-50.854 -25.58923,-5.83 -15.224,-5.83 668.88334,-5.83 756.0164,0.322 715.5271,-0.971 571.709,16.844 -158.394,20.081 -314.5208,32.715 -480.3649,39.516 l -52.4743,1.944 -16.1956,17.817 c -26.8851,29.151 -28.1807,38.545 -19.7589,126.973 13.9284,142.846 29.1523,228.36 45.6719,255.246 9.3936,15.547 23.9697,18.462 87.4569,15.871 29.4762,-0.973 63.4873,-3.239 75.796,-5.183 16.1957,-2.267 22.9979,-2.267 24.6174,0 1.2958,1.944 4.2111,18.463 6.4785,36.278 2.2673,18.14 5.1826,36.603 6.4781,41.138 3.887,13.929 7.7741,-19.436 5.5067,-47.939 -3.5632,-44.377 -21.0544,-93.289 -39.8416,-110.78 -11.013,-10.365 -9.7174,-12.307 6.1545,-9.07 35.9545,6.479 76.7676,30.773 104.3004,61.868 l 14.9,17.168 -1.9434,22.673 c -24.9414,285.692 -67.3742,503.364 -131.1854,668.884 -11.9848,31.42 -16.1957,47.615 -19.1108,72.882 -6.8023,58.627 -25.2655,118.875 -52.1504,169.082 -12.3087,22.674 -12.6326,23.97 -9.7173,42.109 1.9434,10.365 3.239,23.97 3.239,30.124 0,12.632 -43.4044,-32.39 402.6257,417.203 127.6224,128.917 234.5141,238.724 237.4294,244.23 5.1825,10.043 5.1825,10.043 -10.3654,-3.239 -22.3501,-18.786 -42.4328,-26.885 -71.909,-28.505 -21.0545,-1.295 -23.9696,-0.971 -18.7871,2.593 22.9979,15.547 33.3634,25.912 41.785,41.46 l 10.0414,17.815 -15.5479,-13.928 c -25.9131,-23.646 -39.5175,-28.181 -84.5417,-28.181 -37.898,0 -39.5175,0.325 -66.4024,12.309 -15.224,6.802 -65.1068,32.715 -110.7788,57.982 -45.6719,24.941 -93.2873,48.586 -105.2722,52.797 -61.5436,21.378 -124.7071,16.197 -181.3921,-14.252 -10.0413,-5.506 -18.787,-9.394 -19.4348,-9.069 -2.2674,2.266 38.222,28.504 57.9807,37.898 11.337,5.182 30.7719,11.985 43.0806,14.9 38.8697,9.392 37.898,11.012 -4.8587,10.041 -33.0392,-0.972 -44.7003,-2.915 -64.135,-9.717 -34.0112,-11.662 -57.0091,-26.238 -83.8939,-53.122 -12.9564,-12.958 -23.6458,-22.026 -23.6458,-20.732 0,5.183 20.7307,31.421 41.785,53.122 l 21.3784,22.35 -17.8153,-8.745 c -22.35,-11.336 -43.0807,-25.265 -60.5721,-41.461 l -13.9283,-12.956 v 222.528 c 0,122.116 0.6479,222.207 1.6197,222.207 0.9717,0 7.7739,-3.888 14.9001,-8.423 7.45,-4.533 13.6043,-7.773 14.2522,-7.126 0.3238,0.649 -9.0696,21.379 -21.0544,46.32 -13.2806,27.533 -22.6742,43.405 -23.6458,40.489 z m -173.6183,-562.316 c 30.1241,-10.689 54.0937,-26.884 91.02,-62.514 l 34.9828,-33.688 v -146.408 c 0,-152.565 -2.2674,-194.998 -12.9565,-236.783 -11.3371,-43.728 -31.7437,-78.711 -48.5872,-83.246 -11.0132,-2.915 -22.998,10.041 -24.9415,26.885 -1.6195,13.281 -0.6479,15.548 8.4218,23.645 17.4914,15.224 11.6609,35.307 -17.1675,59.277 -13.2805,11.014 -14.9001,13.604 -12.9566,22.027 2.5914,11.985 -1.9435,14.9 -25.5892,14.9 -13.6044,0 -22.998,2.267 -34.6589,8.097 -52.1502,26.238 -99.1178,22.027 -127.2983,-11.985 l -11.661,-13.927 -25.2653,24.294 c -13.9284,13.604 -90.6961,86.808 -171.02689,163.252 -176.53337,168.435 -166.81594,159.042 -158.71809,155.802 12.30881,-4.535 74.50038,-5.83 102.68089,-1.942 39.84151,5.182 65.75463,12.632 180.74429,50.53 88.7526,29.151 133.7768,42.109 165.1964,48.263 18.7871,3.564 69.9656,-0.324 87.7808,-6.479 z m 424.9759,1.62 c 18.1391,-3.562 81.3024,-22.35 139.9309,-41.784 114.0179,-37.575 145.4376,-46.644 181.3921,-51.828 28.5044,-3.886 76.7678,-3.886 93.9353,0 7.126,1.62 13.2804,2.269 14.2522,1.62 0.6479,-0.971 -126.6506,-130.537 -283.1013,-288.283 -199.8552,-201.475 -285.3685,-285.693 -287.312,-282.778 -1.2957,2.267 -2.5913,7.126 -2.5913,10.69 0,11.336 -14.9001,39.194 -27.8567,51.503 -6.4783,6.477 -18.787,14.251 -26.885,17.166 l -14.8999,5.183 v 107.215 c -0.3239,105.596 -2.2674,145.763 -14.9001,296.706 l -6.1543,75.797 26.5609,27.209 c 70.9371,71.584 121.7917,89.077 207.6292,71.584 z m -533.1633,-502.391 c -0.9717,-2.591 -1.9435,-1.62 -1.9435,1.944 -0.3239,3.563 0.6479,5.506 1.6196,4.21 0.9718,-0.971 1.2957,-3.888 0.3239,-6.154 z"
       id="path824"
       style="mix-blend-mode:multiply;fill:url(#linearGradient3447);fill-opacity:1;stroke-width:0.323915" />
  </g>
</svg>
