<?xml version="1.0" encoding="UTF-8" standalone="no"?>
<!-- Created with Inkscape (http://www.inkscape.org/) -->

<svg
   width="7cm"
   height="9.6999998cm"
   viewBox="0 0 70 97.000002"
   version="1.1"
   id="svg5"
   inkscape:version="1.1.1 (c3084ef, 2021-09-22)"
   sodipodi:docname="ath.svg"
   xmlns:inkscape="http://www.inkscape.org/namespaces/inkscape"
   xmlns:sodipodi="http://sodipodi.sourceforge.net/DTD/sodipodi-0.dtd"
   xmlns="http://www.w3.org/2000/svg"
   xmlns:svg="http://www.w3.org/2000/svg">
  <sodipodi:namedview
     id="namedview7"
     pagecolor="#ffffff"
     bordercolor="#666666"
     borderopacity="1.0"
     inkscape:pageshadow="2"
     inkscape:pageopacity="0.0"
     inkscape:pagecheckerboard="0"
     inkscape:document-units="mm"
     showgrid="false"
     units="cm"
     inkscape:zoom="1.2862808"
     inkscape:cx="135.66245"
     inkscape:cy="188.13933"
     inkscape:window-width="1440"
     inkscape:window-height="872"
     inkscape:window-x="0"
     inkscape:window-y="0"
     inkscape:window-maximized="0"
     inkscape:current-layer="g969" />
  <defs
     id="defs2" />
  <g
     inkscape:label="Layer 1"
     inkscape:groupmode="layer"
     id="layer1">
    <svg
       width="288"
       height="288"
       viewBox="0 0 250 250"
       version="1.1"
       id="svg856">
      <g
         id="g969"
         transform="matrix(0.71970971,0,0,0.73376999,1.7205455,2.3153186)">
        <g
           id="g6854"
           style="mix-blend-mode:hard-light;fill:#440088;fill-opacity:1;stroke:none;stroke-opacity:1">
          <path
             d="m 51.298398,4.595474 c -2.152355,0.078815 -4.585582,0.3353208 -4.744643,0.5001153 -0.123238,0.1232378 -0.684973,1.486015 -0.973002,2.3544094 -0.507283,1.5232727 -0.879859,3.1912793 -1.117737,4.9954193 -0.183423,1.369943 -0.250773,2.158089 -0.336755,4.089766 -0.04299,0.960106 -0.09171,1.76115 -0.11034,1.779779 -0.04299,0.04299 -0.318125,-1.400036 -0.43993,-2.322883 -0.299492,-2.152359 -0.501545,-5.167379 -0.568898,-8.3342964 -0.01863,-1.0876428 -0.05445,-1.9861308 -0.07308,-1.9990276 -0.02436,-0.012898 -0.202051,0.018628 -0.404102,0.061619 -0.200618,0.04299 -0.709332,0.1518973 -1.130633,0.2436089 -1.14353,0.2393102 -2.837327,0.7164966 -4.041043,1.1249007 -1.841401,0.630518 -4.787637,1.914481 -4.867885,2.1222646 -0.05445,0.1533306 0.08598,3.5094038 0.196321,4.5483248 0.269405,2.57509 1.003099,5.760638 1.828503,7.954552 0.116071,0.299496 0.202053,0.544538 0.189153,0.544538 -0.0057,0 -0.237877,-0.336754 -0.507279,-0.752323 -1.907315,-2.92904 -3.295888,-6.25502 -4.200107,-10.099744 -0.09888,-0.404105 -0.183423,-0.746591 -0.190588,-0.758054 -0.03009,-0.03726 -0.952941,0.567465 -1.748253,1.142097 -2.109368,1.534736 -4.059674,3.443485 -5.557153,5.429615 -1.199416,1.583459 -2.861689,4.267458 -3.075206,4.959594 -0.05016,0.15763 -0.11034,0.127533 1.154994,0.629085 1.119169,0.445661 5.845184,2.457585 5.820823,2.481946 -0.01291,0.01291 -1.559098,-0.359682 -3.442053,-0.825404 -1.877222,-0.464291 -3.528032,-0.868395 -3.662733,-0.885592 -0.134702,-0.02436 -0.531641,-0.123238 -0.887024,-0.226413 -0.739425,-0.207783 -19.35688861,-4.824892 -19.4543326,-4.824892 -0.1719598,0 0.23214526,1.529005 0.99019873,3.797436 1.72962427,5.173109 4.08976657,9.500752 7.11625077,13.047413 0.3181245,0.366847 0.9056529,1.05755 1.3025922,1.529006 1.6321803,1.913047 3.5824859,3.661302 6.0529689,5.422451 l 0.874126,0.623354 v 0.336754 c 0,0.318121 0.159062,1.65654 0.19632,1.688066 0.01146,0.0057 0.709332,0.04299 1.546201,0.07881 2.305688,0.11034 3.754445,0.280869 5.06277,0.606159 0.415569,0.09744 0.630517,0.176259 0.580363,0.207783 -0.04155,0.03008 -0.793879,0.05445 -1.668006,0.05445 -0.874127,0.0057 -1.920212,0.03008 -2.324317,0.06162 -0.402672,0.03584 -1.203715,0.07881 -1.785511,0.09744 -0.57463,0.02436 -1.074746,0.06162 -1.112004,0.08598 -0.146165,0.08454 1.510377,5.605875 1.669439,5.545689 0.97157,-0.404107 2.481946,-0.948642 3.949332,-1.418665 0.703601,-0.226414 1.766882,-0.48292 1.809873,-0.441364 0.01863,0.01291 -1.18652,0.636252 -2.66537,1.382839 -1.486016,0.752325 -2.691164,1.394307 -2.691164,1.435863 0,0.04299 0.245042,0.654877 0.544538,1.358477 0.630518,1.491748 0.978735,2.481948 1.18652,3.410528 0.07881,0.374011 0.170526,0.679239 0.207784,0.692137 0.03009,0.01146 0.758054,-0.428465 1.613552,-0.978735 0.856929,-0.55027 1.80414,-1.156429 2.103635,-1.351316 l 0.55027,-0.348218 -0.275135,0.256507 c -0.15333,0.146166 -0.684971,0.647715 -1.192251,1.119167 -0.501548,0.470022 -1.314056,1.246706 -1.796976,1.729627 l -0.887022,0.868396 0.01863,0.660609 c 0.01863,0.812507 -0.07308,1.626448 -0.263671,2.433224 -0.164794,0.679238 -0.342485,1.154995 -0.855498,2.287057 -0.189154,0.415571 -0.336754,0.76379 -0.329588,0.76952 0.03009,0.03151 0.990199,-0.763786 1.729624,-1.435859 1.01456,-0.917117 3.490775,-3.430588 4.205839,-4.274625 1.8285,-2.145191 2.715524,-4.187209 2.580823,-5.936895 -0.06162,-0.806777 -0.245042,-2.03485 -0.672074,-4.523963 -0.366847,-2.127997 -0.581796,-3.662732 -0.581796,-4.139922 0,-0.183423 0.03153,-0.213516 0.366846,-0.384041 0.202053,-0.104608 0.501548,-0.239308 0.666343,-0.306662 l 0.299496,-0.116071 0.03726,0.960103 c 0.04299,0.911387 0.134703,2.189616 0.189156,2.519206 0.17196,1.021726 0.838301,3.797434 1.388571,5.807926 0.170527,0.624787 0.35395,1.339848 0.409836,1.590624 l 0.09744,0.458558 0.647714,0.189154 c 1.051817,0.312395 1.510376,0.361116 3.204175,0.361116 3.112466,-0.0071 5.214666,-0.428466 7.477365,-1.504642 2.287061,-1.081912 4.482407,-2.800074 8.076358,-6.322374 1.382839,-1.351313 2.097904,-2.133727 2.996392,-3.258629 0.355382,-0.439929 0.66061,-0.806776 0.679238,-0.806776 0.01721,0.0057 0.318126,0.428466 0.66634,0.947209 l 0.634817,0.948643 -2.133726,2.182451 c -5.727678,5.888173 -7.941656,7.954551 -9.341693,8.72407 -1.461653,0.808207 -4.482407,1.450189 -7.954552,1.693798 -1.362775,0.09171 -4.542592,0.03151 -6.206298,-0.121802 -0.934313,-0.08598 -1.271066,-0.09744 -1.319788,-0.04299 -0.03726,0.03726 -0.323857,0.355382 -0.641982,0.70933 -0.318124,0.353949 -1.033188,1.137797 -1.590623,1.742521 -1.637914,1.785513 -3.240001,3.576754 -3.576755,4.005221 -0.812508,1.033186 -1.381407,2.085005 -1.60782,2.964865 -0.391207,1.521841 -0.421299,4.609944 -0.06735,6.608968 0.293763,1.64508 1.216612,3.528034 2.459019,5.008318 1.710995,2.042015 4.468076,3.89488 7.219425,4.860717 0.495816,0.176259 0.917117,0.305228 0.935746,0.2866 0.01863,-0.01863 -0.262238,-0.348219 -0.623353,-0.727964 -1.67517,-1.759715 -2.721256,-3.631205 -3.313083,-5.918265 -0.318124,-1.228078 -0.568899,-3.007857 -0.557434,-3.936436 l 0.0071,-0.434197 0.05445,0.33532 c 0.439929,2.678266 0.7036,3.595382 1.491748,5.240462 0.776683,1.607819 1.473117,2.573656 2.873153,3.962229 1.699531,1.6938 2.721257,2.225438 4.879347,2.536399 3.625478,0.533076 7.355559,0.196322 14.471811,-1.319789 1.027456,-0.214947 2.775711,-0.574629 3.883415,-0.795308 1.112004,-0.220685 3.075206,-0.647717 4.370633,-0.947213 1.296861,-0.306659 2.653907,-0.61762 3.026484,-0.703597 0.520177,-0.121801 0.776684,-0.153331 1.132067,-0.128968 0.53164,0.03726 0.470021,-0.02436 -0.196322,-0.194887 -0.849763,-0.220681 -1.950303,-0.220681 -3.442052,-0.0057 -0.232144,0.03008 -0.87986,0.103172 -1.437294,0.151895 -0.555999,0.05589 -1.570561,0.16623 -2.2498,0.250774 -3.037949,0.366846 -6.786661,0.312394 -9.122443,-0.134699 -1.326954,-0.250776 -2.824433,-0.793881 -3.85762,-1.405767 -1.753985,-1.038925 -4.05394,-3.01359 -5.251925,-4.518234 -0.935746,-1.173622 -1.839964,-2.775711 -2.347247,-4.132757 -0.641933,-1.742575 -0.83825,-3.075259 -0.733645,-5.038461 l 0.04872,-0.978735 0.04299,0.825405 c 0.151901,3.026484 1.252441,5.710484 3.404795,8.302768 1.882958,2.275598 5.105759,4.579852 7.495996,5.356536 1.100539,0.361113 2.481945,0.61762 4.224466,0.782414 1.216613,0.116071 5.294912,0.09171 7.643593,-0.04872 2.603749,-0.15333 4.652932,-0.15333 5.319276,0 0.672073,0.159062 1.026021,0.323856 1.559098,0.752322 0.672073,0.531641 1.04465,0.984466 1.36851,1.645075 0.404104,0.83114 0.49008,1.203717 0.482916,2.029121 -0.01146,0.838303 -0.116071,1.192252 -0.445659,1.534739 -0.379746,0.391206 -0.887025,0.458558 -1.332685,0.189154 -0.280868,-0.170525 -0.396938,-0.44566 -0.366846,-0.842599 0.02436,-0.288033 0.06162,-0.366846 0.245043,-0.533075 0.116071,-0.108904 0.249337,-0.207786 0.292328,-0.226414 0.140433,-0.04155 0,-0.170525 -0.189153,-0.170525 -0.421301,0 -0.941479,0.421301 -1.09481,0.887023 -0.09171,0.280865 -0.04872,0.855498 0.08025,1.112003 0.213516,0.404104 0.660609,0.813942 1.167888,1.05755 0.580366,0.2823 0.904222,0.361116 1.43013,0.366847 1.289697,0.0071 2.715527,-0.812507 3.271527,-1.882955 0.488651,-0.935744 0.684972,-1.894417 0.677808,-3.34461 -0.0057,-1.753984 -0.286599,-2.708358 -1.240976,-4.187208 -0.342485,-0.525912 -0.353949,-0.557434 -0.127533,-0.306662 0.604724,0.666344 1.283963,1.822769 1.607818,2.721258 0.604725,1.6938 0.44566,3.765907 -0.415567,5.472605 -0.09171,0.176259 -0.147601,0.32959 -0.128969,0.353949 0.11034,0.104608 1.265331,-0.611889 1.736788,-1.081912 0.941479,-0.941474 1.503212,-2.451851 1.583461,-4.255993 0.08598,-1.961771 -0.331025,-3.857618 -1.149265,-5.208934 -1.467386,-2.433225 -3.209907,-3.612578 -5.955523,-4.053941 -1.412932,-0.226415 -2.414595,-0.29233 -6.816754,-0.458559 -2.800071,-0.103172 -3.509405,-0.15906 -4.769006,-0.372576 -3.101002,-0.520178 -5.289183,-1.589195 -6.775198,-3.320252 -0.752322,-0.868392 -1.338418,-1.950302 -1.748255,-3.185545 -0.636248,-1.961771 -0.604721,-4.811996 0.08598,-7.164972 0.140432,-0.477187 0.733693,-2.023386 0.763786,-1.993294 0.01291,0.01146 -0.08598,0.44566 -0.213516,0.965838 -0.428466,1.736787 -0.458558,1.968935 -0.447095,3.430587 0.02436,2.426059 0.458558,4.609944 1.210881,6.107423 1.559098,3.088103 4.995419,4.82346 10.284602,5.197472 0.702167,0.05445 1.858591,0.06735 3.545227,0.04299 2.427494,-0.03151 3.668466,-0.09888 6.371095,-0.349652 1.656539,-0.151896 2.354407,-0.151896 3.582483,0 1.394304,0.177693 1.968936,0.366846 2.79434,0.924281 0.471454,0.316691 1.076178,0.941479 1.321221,1.357046 0.37258,0.623353 0.525908,1.154994 0.525908,1.845697 0,0.557434 -0.01863,0.649146 -0.190588,1.008828 -0.243609,0.501549 -0.567464,0.917116 -0.88559,1.137797 -0.299497,0.213516 -0.232144,0.245042 0.250773,0.121801 1.235242,-0.318122 2.18245,-1.308322 2.586558,-2.708358 0.121802,-0.421302 0.140432,-0.61189 0.140432,-1.637911 0,-1.216615 -0.02436,-1.358482 -0.318126,-2.109368 -0.581796,-1.450193 -1.981829,-2.9663 -3.350339,-3.614011 -0.849767,-0.404108 -2.335782,-0.752327 -3.851889,-0.911387 -0.593261,-0.06018 -2.691165,-0.183423 -3.179815,-0.183423 -0.237879,0 -0.237879,-0.0057 0.372576,-0.342485 l 0.623353,-0.342488 0.04299,-0.836868 0.04299,-0.831136 0.226414,-0.245042 c 0.293763,-0.318126 0.568898,-0.898488 0.604722,-1.259601 0.01291,-0.170528 -0.03008,-0.544539 -0.103173,-0.911385 -0.183423,-0.8426 -0.164794,-0.892755 0.378312,-1.173624 0.801045,-0.415567 2.238339,-1.58919 2.464749,-2.017656 0.121802,-0.232144 0.11034,-0.653445 -0.03008,-0.874125 -0.06162,-0.104609 -0.33102,-0.434197 -0.593261,-0.733693 -1.132063,-1.302593 -1.761149,-2.158089 -2.103634,-2.873154 -0.288033,-0.593261 -0.37258,-0.954374 -0.37258,-1.566262 0,-0.464292 0.103172,-1.050385 0.183423,-1.008828 0.01863,0.01291 0.04299,-0.05445 0.04299,-0.159066 0.0057,-0.103172 0.04155,-0.207781 0.07881,-0.232144 0.04299,-0.02436 0.06735,-0.05445 0.05445,-0.06735 -0.0057,-0.01146 0.01864,-0.140436 0.06735,-0.280869 l 0.08598,-0.256507 0.434199,0.353953 c 1.051816,0.862662 1.443024,1.43156 1.443024,2.116532 0,0.898488 -0.415567,1.357047 -0.868395,0.960107 -0.103173,-0.08598 -0.11034,-0.07452 -0.11034,0.151896 0,0.581797 0.954374,0.965837 1.663708,0.673509 0.250772,-0.104608 0.806777,-0.765221 1.051815,-1.253871 0.323859,-0.647716 0.427035,-1.259604 0.434199,-2.592288 0,-1.173623 0.0057,-1.20515 0.121802,-1.180788 0.06735,0.01863 0.727959,0.140432 1.467386,0.275135 4.280356,0.789578 6.285114,1.192251 7.453006,1.498914 0.15906,0.04299 0.17196,0.03583 0.134699,-0.06162 -0.01863,-0.06162 -1.834233,-3.466415 -4.023849,-7.57481 -2.193915,-4.109827 -4.035312,-7.570509 -4.095496,-7.692313 -0.09171,-0.194888 -0.104609,-0.32959 -0.06735,-1.07618 l 0.03583,-0.855497 -3.41769,-3.846157 C 66.809159,29.277377 63.263933,25.290787 60.81208,22.539438 58.35303,19.78235 56.243662,17.410744 56.116128,17.263144 l -0.232148,-0.262236 0.684973,-1.021727 c 1.375674,-2.047748 3.17265,-4.621406 4.982521,-7.123415 0.763786,-1.05755 1.338417,-1.8027066 2.549298,-3.3016185 L 64.340084,5.2618166 64.186753,5.2059296 C 63.776916,5.0468672 58.983548,4.6800206 56.194942,4.588309 54.079844,4.520959 53.187085,4.520959 51.298398,4.595479 Z m 7.51319,17.509759 c 1.218048,1.210881 2.244071,2.213977 2.275598,2.219709 0.08454,0.03009 -0.123238,0.269402 -1.064717,1.235241 -3.25863,3.338878 -11.25617,11.720462 -11.25617,11.793544 0,0.233578 0.269404,0.03726 1.175057,-0.849766 1.289692,-1.259601 2.536399,-2.469049 4.847818,-4.707387 1.057549,-1.021724 2.365875,-2.287058 2.904681,-2.812968 1.559098,-1.510376 2.781441,-2.68973 3.252897,-3.135391 l 0.439927,-0.417001 1.149264,1.180787 c 4.505335,4.621407 8.547812,8.847308 8.565006,8.950483 0.01863,0.07308 0,0.08598 -0.06018,0.04872 -0.06162,-0.03582 -0.06162,-0.02436 0.0057,0.05589 0.07308,0.09171 0.08025,0.318124 0.04872,1.246705 -0.01863,0.623353 -0.04872,1.143531 -0.06018,1.156425 -0.02578,0.02436 -3.56529,-0.740856 -3.986591,-0.862662 -0.16623,-0.04872 -1.008829,-0.226413 -1.86576,-0.396939 -1.117734,-0.226413 -1.583461,-0.342485 -1.637911,-0.415569 -0.04299,-0.05589 -0.128969,-0.293763 -0.196322,-0.533074 -0.475752,-1.668005 -1.43586,-3.245731 -2.951967,-4.842087 l -0.366846,-0.37831 -0.190592,0.127533 c -0.22641,0.159061 -0.164791,0.104608 -2.854524,2.524934 -2.715523,2.451854 -3.442052,3.093836 -5.22183,4.652934 -2.122266,1.852863 -2.2498,1.957469 -2.274163,1.882956 -0.07308,-0.207786 -0.703601,-1.081912 -1.051819,-1.448758 -0.70933,-0.745158 -1.559098,-1.308325 -2.672532,-1.748254 l -0.567456,-0.226413 0.720797,-1.491748 c 1.815601,-3.778805 4.065405,-8.070624 5.998514,-11.433862 1.179353,-2.060646 2.714093,-4.585582 2.781442,-4.585582 0.09744,0 0.660611,0.465723 2.476214,2.036285 0.892755,0.776683 1.71816,1.491747 1.834233,1.589191 0.116071,0.104608 -0.758055,-0.775251 -1.950306,-1.950305 -1.186518,-1.173623 -2.133727,-2.158091 -2.109368,-2.182451 0.05445,-0.04872 0.452827,0.331021 3.863353,3.717187 z m -51.3155289,0.09171 c 2.1523573,0.568899 5.9555239,1.583459 8.4446359,2.249801 l 4.529695,1.218045 1.614985,1.400035 c 2.676834,2.328618 9.146805,7.911563 10.90652,9.409042 0.905653,0.776684 1.736792,1.491748 1.847131,1.602089 l 0.202053,0.189154 v 3.099566 l 0.788147,0.776685 c 0.428466,0.434196 0.77668,0.782413 0.763786,0.782413 -0.01146,0 -0.43993,-0.108903 -0.952943,-0.237877 -1.455922,-0.372577 -2.31142,-0.501546 -3.595383,-0.538805 -0.971571,-0.02436 -1.240972,-0.01146 -1.920212,0.09888 -0.427032,0.07308 -0.793879,0.127533 -0.801044,0.116071 -0.01146,-0.01291 0.490084,-0.43993 1.107705,-0.954374 0.617621,-0.518742 1.124901,-0.965837 1.124901,-1.003098 0,-0.140433 -0.110339,-0.07881 -4.617109,2.459021 -1.338416,0.750888 -1.91878,1.038921 -2.126564,1.038921 -0.08598,0 -0.422733,-0.11034 -0.752322,-0.250774 -0.598992,-0.250775 -2.898947,-1.387138 -3.099566,-1.54047 -0.09888,-0.06735 0.06018,-0.147599 1.222344,-0.617622 4.291819,-1.755415 6.964353,-2.861689 7.013075,-2.910409 0.140434,-0.140434 -0.06735,-0.134703 -0.593259,0.01863 -0.580364,0.170529 -2.684,0.81251 -8.375854,2.573661 -1.80414,0.555999 -3.333145,1.014558 -3.387598,1.014558 -0.19632,0 -0.78958,-0.391206 -1.785512,-1.185087 -1.418664,-1.132063 -3.172649,-2.648174 -3.118196,-2.691161 0.03009,-0.01863 0.01146,-0.01863 4.671563,-1.014562 3.453516,-0.739426 9.109545,-2.011924 9.378947,-2.109368 0.04872,-0.01863 0.06735,-0.04872 0.04872,-0.07308 -0.02436,-0.01863 -0.709331,0.05445 -1.523273,0.159062 -0.81824,0.103172 -2.652473,0.342486 -4.084034,0.525909 -1.430127,0.183424 -4.170013,0.561734 -6.095958,0.831137 -3.04368,0.434197 -3.520867,0.488651 -3.67993,0.4213 -0.183424,-0.07308 -1.7611507,-1.718159 -2.6653689,-2.781442 -0.795312,-0.935746 -2.3787715,-3.020752 -2.3300495,-3.069474 0.012911,-0.01146 0.5259081,0.0058 1.1435293,0.03726 2.7757109,0.151898 6.3094741,0.202052 10.5038491,0.164794 4.347706,-0.04299 5.802195,-0.09171 5.508431,-0.177691 -0.08454,-0.02437 -2.530668,-0.262245 -5.44108,-0.531648 C 8.2483788,29.846264 4.8005951,29.503778 4.5684498,29.412067 4.4824705,29.381975 4.2560563,29.02086 3.9135714,28.397506 2.7213201,26.202159 1.877286,24.044069 1.2969234,21.708289 1.1564898,21.152287 1.0275209,20.650739 1.0088916,20.594852 0.97306914,20.478782 1.2353045,20.5404 7.4960578,22.19694 Z M 49.836746,21.487612 c 0.353948,0.05016 0.812506,0.128969 1.021726,0.166226 l 0.378311,0.06735 -0.121815,0.256506 c -0.07308,0.134701 -0.256503,0.477187 -0.409833,0.758055 -0.256507,0.452826 -0.305228,0.501548 -0.43993,0.477186 -1.076181,-0.207784 -4.243098,-0.19632 -5.686122,0.01719 -0.899922,0.134701 -1.467386,0.245041 -2.225441,0.441361 -0.275135,0.07308 -0.520179,0.133269 -0.557436,0.146166 -0.03008,0.0058 -0.103172,0.02436 -0.151896,0.04872 -0.04872,0.01863 -0.349652,0.116071 -0.660609,0.226413 -0.312392,0.104608 -0.844034,0.318124 -1.192251,0.471455 -0.342489,0.146166 -0.660611,0.275135 -0.697871,0.280867 -0.04155,0 -0.07881,0.01863 -0.07881,0.04299 0,0.02436 -0.116071,0.09171 -0.256507,0.151897 -0.147597,0.06735 -0.336754,0.166227 -0.422732,0.226413 -0.08454,0.05589 -0.176259,0.09171 -0.200622,0.06735 -0.01863,-0.01863 -0.03726,-0.0057 -0.03726,0.03726 0,0.04299 -0.02436,0.05445 -0.06162,0.03582 -0.03008,-0.01719 -0.06018,-0.01146 -0.06018,0.01863 0,0.03009 -0.104608,0.11034 -0.226414,0.164794 -0.123238,0.06162 -0.280865,0.159063 -0.348219,0.226413 -0.06735,0.06162 -0.15906,0.09744 -0.202051,0.08598 -0.04299,-0.01863 -0.09171,0 -0.116071,0.03726 -0.03151,0.04155 -0.01291,0.04872 0.04299,0.01719 0.151901,-0.09171 0.02436,0.01863 -0.207781,0.183423 -0.128969,0.08598 -0.257942,0.140434 -0.288033,0.123238 -0.03008,-0.01863 -0.07308,0 -0.09744,0.03582 -0.03151,0.04872 -0.01863,0.05589 0.04299,0.02436 0.133268,-0.07881 0.04872,0 -0.269401,0.23931 -0.159064,0.121802 -0.318125,0.207785 -0.348217,0.189155 -0.03151,-0.01863 -0.07452,0 -0.09888,0.03726 -0.03008,0.04872 -0.01721,0.05445 0.04299,0.02436 0.147597,-0.08598 -0.0057,0.04872 -0.666345,0.586094 -0.965837,0.782415 -0.782414,0.752322 -1.6938,0.269404 l -0.788148,-0.421301 0.604724,-0.568899 c 1.375675,-1.315488 2.524935,-2.115099 4.334811,-3.026484 2.489108,-1.248138 4.701652,-1.920212 7.331197,-2.219708 0.9902,-0.11607 3.90061,-0.07881 4.811996,0.05445 z m -22.958004,5.59441 c 2.120832,0.611888 3.973693,1.150694 4.127025,1.199416 0.151895,0.04872 1.173622,0.342485 2.274161,0.647714 1.094806,0.312392 2.023388,0.580363 2.060647,0.598992 0.03584,0.02436 0.121802,0.372577 0.189155,0.77095 0.391208,2.298524 1.162158,4.078302 2.433223,5.611606 0.361116,0.434198 0.973006,1.015994 1.357045,1.283963 l 0.147601,0.09888 -0.171958,0.232146 c -1.308326,1.785512 -1.894423,3.069475 -2.02339,4.437982 -0.02436,0.257941 -0.06735,0.458559 -0.09171,0.441364 -0.03008,-0.01863 -0.262237,-0.275135 -0.513014,-0.574633 l -0.458559,-0.538805 0.207787,-1.620718 c 0.226414,-1.772613 0.256505,-2.126562 0.189153,-2.236902 -0.02436,-0.03726 -0.874126,-0.758055 -1.888683,-1.596356 -1.015993,-0.836869 -2.618082,-2.163821 -3.559561,-2.940505 -0.941477,-0.782414 -1.999027,-1.656541 -2.352977,-1.944573 -0.930013,-0.763785 -4.102663,-3.393332 -5.118656,-4.248829 -0.482918,-0.396939 -0.874127,-0.739426 -0.874127,-0.758054 0,-0.01863 0.04872,-0.01863 0.11034,0 0.05589,0.01146 1.839965,0.525909 3.956498,1.136365 z m 35.320447,7.937355 c 0.08598,0.09744 0.398374,0.518745 0.684973,0.952942 0.293762,0.428465 0.587527,0.806775 0.654875,0.844034 0.06735,0.03009 1.607819,0.568899 3.434889,1.192251 1.822768,0.623353 3.479311,1.19225 3.681363,1.265334 l 0.366847,0.140436 0.611889,0.941474 c 2.811534,4.366337 6.603238,10.370582 6.547349,10.382045 -0.09171,0.01863 -8.076354,-1.772614 -10.124103,-2.274163 -4.757542,-1.162155 -8.658152,-1.871489 -11.428133,-2.066377 l -1.014559,-0.07308 -0.164794,-0.508713 c -0.746593,-2.266995 -2.470481,-3.985158 -5.001151,-4.988253 l -0.275135,-0.110339 2.506308,-2.46332 2.500577,-2.46475 1.229507,-0.03582 c 2.109369,-0.07452 3.827527,-0.312393 5.025512,-0.709332 0.299494,-0.09888 0.556001,-0.177691 0.574629,-0.183423 0.01863,-0.0071 0.103173,0.06735 0.189157,0.159061 z m -16.794695,2.549298 c 2.341512,0.702169 3.949332,2.88605 3.949332,5.386627 0,2.182451 -1.186518,4.102662 -3.123927,5.055604 -0.72223,0.355383 -1.259604,0.482917 -2.17672,0.520178 -1.291128,0.05445 -2.20108,-0.189157 -3.234267,-0.862662 -1.766884,-1.149264 -2.702628,-3.105302 -2.524935,-5.239028 0.207781,-2.421763 1.986129,-4.439419 4.389261,-4.976792 0.280864,-0.06162 0.660609,-0.08598 1.283963,-0.06735 0.746591,0.01863 0.978735,0.04872 1.437293,0.183423 z m 15.284318,11.402338 c 0.77095,0.568899 1.755419,0.978733 3.791705,1.571993 0.776684,0.21925 1.430129,0.427031 1.460221,0.451394 0.02436,0.03151 -0.06735,0.415567 -0.207786,0.868396 -0.494384,1.602089 -0.488649,2.464749 0.04872,3.449216 0.484356,0.879859 0.978737,1.54047 2.122267,2.805803 0.458558,0.501549 0.641982,0.752323 0.641982,0.862662 0,0.267971 -0.299498,0.806777 -0.574633,1.026025 -0.140433,0.123238 -0.611889,0.404104 -1.046085,0.630519 -0.733694,0.391205 -0.801042,0.43993 -0.941479,0.709331 -0.207782,0.402673 -0.232144,0.788147 -0.07881,1.192251 0.140433,0.366847 0.159062,0.348218 -0.372576,0.402673 -1.394308,0.147597 -3.9565,0.899918 -3.9565,1.162159 0,0.06162 0.08598,0.104608 0.232145,0.128969 0.574632,0.09171 2.281326,0.543105 2.598018,0.684972 0.533076,0.237874 0.630518,0.524472 0.404107,1.216609 -0.06162,0.189157 -0.06735,0.194888 -0.54454,0.21925 -0.299496,0.01863 -0.537371,0.06735 -0.634817,0.128969 -0.08598,0.05445 -0.250772,0.305227 -0.366846,0.556003 l -0.21495,0.452825 -0.537371,0.03584 c -0.293765,0.01863 -0.838303,0.05016 -1.210881,0.06735 -0.366847,0.01863 -1.510376,0.09171 -2.537833,0.16623 -1.607819,0.108903 -1.980399,0.121801 -2.68973,0.06018 -1.559098,-0.134702 -2.996392,-0.501549 -4.127024,-1.069012 -0.568898,-0.282303 -1.179353,-0.654879 -1.381409,-0.844036 -0.104608,-0.09888 -0.318122,-0.269402 -0.482917,-0.391206 -0.379745,-0.282299 -1.205149,-1.14926 -1.559098,-1.65081 -0.342487,-0.471456 -0.593261,-1.021726 -0.795312,-1.718163 -0.189157,-0.654876 -0.196321,-0.770949 -0.01291,-0.33102 0.641981,1.553368 1.963204,2.904681 3.460683,3.552392 0.892755,0.379745 1.358478,0.490085 2.238337,0.525911 0.690702,0.03151 0.868395,0.01864 1.314055,-0.09744 0.740858,-0.196318 1.235243,-0.452825 1.590625,-0.844033 0.43993,-0.482917 0.574628,-0.874126 0.574628,-1.669439 -0.0071,-0.842598 -0.09888,-1.252435 -0.391205,-1.705264 -0.275135,-0.421297 -0.641982,-0.709331 -1.162159,-0.905653 -0.293763,-0.108903 -0.366846,-0.121802 -0.421301,-0.05445 -0.08025,0.09171 0,0.17769 0.21925,0.245039 0.153331,0.04872 0.458558,0.501549 0.606155,0.892758 0.133268,0.372577 0.07881,0.965837 -0.123238,1.308321 -0.342483,0.586096 -0.971567,0.672078 -1.85859,0.250777 -0.911387,-0.4342 -1.43586,-0.965837 -1.907317,-1.950307 -0.404104,-0.844033 -0.587527,-1.884388 -0.488651,-2.726986 0.146166,-1.180788 1.173624,-2.494844 3.361805,-4.310449 1.027456,-0.849766 2.305689,-2.183885 3.002121,-3.136824 0.715065,-0.973005 1.31549,-1.907316 1.706699,-2.659637 l 0.262236,-0.501549 0.342489,0.361113 c 0.189153,0.194886 0.482916,0.458558 0.647711,0.580365 z m 0,0"
             fill="#80b7ec"
             class="color000 svgShape"
             id="path852"
             style="fill:#440088;fill-opacity:1;stroke:none;stroke-width:0.366847;stroke-opacity:1" />
          <path
             d="m 62.346786,32.084606 c 0.121802,0.232146 0.353952,0.623354 0.513013,0.874127 0.159061,0.250775 0.391209,0.659177 0.513014,0.90422 0.233578,0.458558 0.649146,1.626449 0.649146,1.809872 0,0.05445 0.06018,0.128969 0.140432,0.159062 0.116071,0.05445 5.753472,1.314057 6.064432,1.357046 0.171959,0.02436 0.183424,-0.09744 0.01863,-0.146166 -0.07882,-0.01863 -1.240979,-0.385476 -2.586562,-0.801043 -1.344148,-0.422734 -2.684,-0.844034 -2.9706,-0.930014 l -0.5259,-0.159062 -0.202051,-0.531641 C 63.85,34.327243 63.67947,33.924571 63.574864,33.722519 c -0.32959,-0.66061 -1.271069,-2.036284 -1.405768,-2.042017 -0.02436,-0.0058 0.05445,0.177691 0.17769,0.404104 z m -4.617108,13.004427 c 0.06162,0.06735 12.253537,3.050843 18.630361,4.56122 0.806777,0.194888 1.149262,0.219246 0.580363,0.04299 -0.159061,-0.05016 -1.240972,-0.385479 -2.403131,-0.746592 -7.054633,-2.188181 -12.985797,-3.649837 -15.492104,-3.821796 -0.887024,-0.06018 -1.358476,-0.07308 -1.315489,-0.03584 z M 43.080177,38.919991 c -0.03008,0.01146 -0.26797,0.08454 -0.518744,0.15906 -0.250776,0.07308 -0.490084,0.159066 -0.533075,0.194888 -0.04155,0.03008 -0.108904,0.03008 -0.151897,0.0057 -0.04299,-0.02436 -0.06162,-0.02436 -0.03726,0.0071 0.06735,0.06735 -0.177692,0.232144 -0.269403,0.176259 -0.04155,-0.02436 -0.04872,-0.01721 -0.02436,0.02436 0.04299,0.06735 -0.04155,0.104609 -0.176259,0.07452 -0.03151,-0.0071 -0.04299,0.01146 -0.01863,0.03584 0.06162,0.05589 -0.331024,0.391205 -0.404104,0.348215 -0.03008,-0.01721 -0.03583,-0.0057 -0.01863,0.0258 0.05016,0.07881 -0.103172,0.219246 -0.170525,0.151896 -0.03008,-0.02436 -0.03726,-0.01146 -0.01291,0.01863 0.04299,0.08598 -0.29233,0.471456 -0.353949,0.409838 -0.03008,-0.02436 -0.03008,-0.0057 0,0.03583 0.02436,0.05589 -0.0057,0.153331 -0.08598,0.26367 -0.06735,0.09171 -0.127533,0.194888 -0.127533,0.226415 0,0.03008 -0.03726,0.08598 -0.08025,0.121801 -0.04299,0.03726 -0.116071,0.207787 -0.164795,0.372581 -0.04299,0.171959 -0.09744,0.293764 -0.116071,0.28803 -0.05445,-0.03726 -0.08598,0.353951 -0.08598,1.216613 0,0.862662 0.03151,1.25387 0.08598,1.216614 0.01864,-0.0057 0.07308,0.116071 0.116071,0.28803 0.04872,0.164794 0.121801,0.335323 0.164795,0.37258 0.04299,0.03583 0.08025,0.09171 0.08025,0.121802 0,0.03151 0.06018,0.134702 0.127533,0.226414 0.08025,0.110339 0.11034,0.207781 0.08598,0.26367 -0.03008,0.04155 -0.03008,0.06018 0,0.03584 0.06162,-0.06162 0.39694,0.323859 0.353949,0.409837 -0.02436,0.03008 -0.01721,0.04299 0.01291,0.01863 0.06735,-0.06735 0.22068,0.07308 0.170525,0.151897 -0.01721,0.03726 -0.0057,0.04299 0.03726,0.01863 0.03726,-0.02436 0.08598,0 0.104608,0.04872 0.01721,0.05589 0.06018,0.09888 0.09744,0.09888 0.09171,0 0.232143,0.164794 0.183423,0.213515 -0.02436,0.02436 -0.01291,0.03726 0.01863,0.03008 0.134703,-0.03008 0.219246,0.0071 0.176259,0.07452 -0.02436,0.04155 -0.01721,0.04872 0.02436,0.02436 0.06735,-0.03726 0.233579,0.03008 0.441364,0.183424 0.04872,0.03584 0.299494,0.133267 0.55027,0.213516 0.391205,0.121801 0.580362,0.146166 1.283963,0.146166 0.709331,0 0.88559,-0.01721 1.283963,-0.151897 0.250773,-0.08025 0.604725,-0.239309 0.788148,-0.349652 0.183424,-0.103173 0.361112,-0.176255 0.396938,-0.157627 0.03726,0.01721 0.05016,0.01721 0.02436,-0.01291 -0.04872,-0.04872 0.09171,-0.213516 0.183423,-0.213516 0.03726,0 0.08025,-0.04299 0.09888,-0.09888 0.01863,-0.04872 0.06735,-0.07308 0.103172,-0.04872 0.04299,0.02436 0.05589,0.01863 0.03726,-0.01863 -0.04872,-0.07881 0.103172,-0.219246 0.170525,-0.151896 0.03151,0.02436 0.03151,0.0057 0.0071,-0.03726 -0.02436,-0.04299 -0.0071,-0.09171 0.04872,-0.110339 0.05445,-0.01721 0.09744,-0.07308 0.09744,-0.121802 0,-0.04872 0.02436,-0.08598 0.04872,-0.08598 0.03008,0 0.09744,-0.09171 0.159064,-0.200618 0.164791,-0.312395 0.250773,-0.452828 0.342485,-0.563168 0.04872,-0.06162 0.09171,-0.140432 0.09744,-0.17769 0.01291,-0.176258 0.104609,-0.458558 0.140437,-0.439928 0.05589,0.03726 0.08598,-0.342489 0.08598,-1.216615 0,-0.812506 -0.03008,-1.259601 -0.07308,-1.216613 -0.03726,0.03726 -0.189153,-0.415568 -0.15906,-0.471454 0.01864,-0.01721 -0.02436,-0.08454 -0.09171,-0.146166 -0.06735,-0.06162 -0.121801,-0.134702 -0.121801,-0.164795 0,-0.03151 -0.06735,-0.147597 -0.153331,-0.256506 -0.08598,-0.110339 -0.153331,-0.233578 -0.153331,-0.269401 0,-0.04299 -0.02436,-0.07308 -0.06018,-0.07308 -0.03151,0 -0.06162,-0.03726 -0.06162,-0.08598 0,-0.04872 -0.04299,-0.104609 -0.09744,-0.121802 -0.04872,-0.01863 -0.07308,-0.06735 -0.04872,-0.104608 0.02436,-0.04299 0.01721,-0.05445 -0.01863,-0.03726 -0.08025,0.05016 -0.22068,-0.103172 -0.153332,-0.170525 0.02436,-0.03008 0.0057,-0.03008 -0.03583,-0.0057 -0.04299,0.02436 -0.09171,0.0057 -0.11034,-0.04872 -0.01863,-0.05589 -0.07308,-0.09888 -0.123238,-0.09888 -0.04872,0 -0.08454,-0.02436 -0.08454,-0.04872 0,-0.03008 -0.07452,-0.08598 -0.159065,-0.121802 -0.09171,-0.04299 -0.134699,-0.104608 -0.11034,-0.147601 0.02436,-0.04155 0.01864,-0.04872 -0.02436,-0.02436 -0.06162,0.03726 -0.226415,-0.03008 -0.439931,-0.183423 -0.04872,-0.03584 -0.282299,-0.127533 -0.520177,-0.207786 -0.336753,-0.108904 -0.59326,-0.146167 -1.222344,-0.159061 -0.434199,-0.01146 -0.819673,-0.01146 -0.856931,0.0071 z m 1.437294,0.76952 c 0.164794,0.03726 0.293762,0.09171 0.275134,0.123237 -0.02436,0.03008 0,0.03584 0.04872,0.01721 0.104609,-0.03584 0.849767,0.312392 0.789582,0.374011 -0.0258,0.03008 -0.0071,0.03008 0.03584,0.0057 0.08598,-0.05445 0.396939,0.189157 0.348219,0.269405 -0.01146,0.02436 0.06162,0.121802 0.171958,0.21925 0.189157,0.177689 0.194888,0.177689 0.04872,0.0071 -0.08598,-0.09171 -0.121802,-0.166228 -0.08598,-0.166228 0.09171,0 0.342485,0.288033 0.299494,0.355383 -0.01863,0.03008 0.01291,0.09744 0.07308,0.140432 0.09888,0.07881 0.09888,0.07881 0.01291,-0.03008 -0.05445,-0.08025 -0.06162,-0.104609 -0.01291,-0.07452 0.123237,0.07452 0.544538,0.960107 0.649146,1.364211 0.121801,0.464288 0.121801,1.094804 0.0057,1.602087 -0.09744,0.402669 -0.434195,1.106271 -0.531641,1.106271 -0.03151,0 -0.04299,0.02436 -0.01864,0.05445 0.01864,0.03151 -0.11034,0.207782 -0.288033,0.385474 -0.176259,0.183424 -0.237875,0.232146 -0.140433,0.11034 0.104609,-0.121802 0.02436,-0.06162 -0.164795,0.134703 -0.366847,0.361112 -1.033187,0.75805 -1.192251,0.696435 -0.05445,-0.02436 -0.06735,-0.01146 -0.04299,0.03726 0.03151,0.04299 -0.0057,0.05445 -0.116071,0.03584 -0.09171,-0.01721 -0.146166,-0.01146 -0.134701,0.01291 0.08598,0.140432 -1.014559,0.15906 -1.527572,0.02436 -0.441363,-0.110339 -0.960107,-0.366846 -1.186521,-0.574632 -0.08598,-0.07881 -0.17769,-0.146166 -0.196318,-0.140433 -0.07308,0.02436 -0.733693,-0.715065 -0.696436,-0.77095 0.01863,-0.03008 0.0057,-0.07308 -0.03008,-0.09744 -0.110339,-0.06735 -0.355382,-0.59899 -0.452827,-0.9902 -0.121802,-0.464288 -0.121802,-1.173622 -0.01291,-1.607818 0.11607,-0.441364 0.428466,-1.119168 0.490085,-1.057549 0.02436,0.02436 0.02436,0 0.0057,-0.05016 -0.01863,-0.05445 0.02436,-0.140432 0.104608,-0.213516 0.140432,-0.11607 0.140432,-0.11607 0.04872,0.0057 -0.08598,0.11034 -0.08598,0.116071 0.01146,0.03726 0.06162,-0.04299 0.09171,-0.11034 0.07308,-0.140432 -0.04872,-0.08025 0.349648,-0.490086 0.44136,-0.452825 0.04155,0.01863 0.121801,-0.03008 0.189158,-0.103172 l 0.11034,-0.134702 -0.153298,0.121789 c -0.128969,0.104609 -0.140432,0.11034 -0.06162,0.01291 0.128969,-0.16623 0.819675,-0.477187 0.954374,-0.4342 0.09744,0.03008 0.103172,0.02436 0.02436,-0.03726 -0.07881,-0.06162 -0.06735,-0.06735 0.04872,-0.04299 0.07308,0.01863 0.121801,0.0057 0.104608,-0.01863 -0.09171,-0.146166 1.136362,-0.232143 1.680903,-0.11607 z m 13.468712,12.100202 c 0.01863,0.128969 0.09171,0.323856 0.166231,0.428466 0.200616,0.2866 1.503208,1.405767 1.937407,1.668004 0.544537,0.336754 2.476215,1.218048 2.573656,1.175057 0.05016,-0.01864 0.06735,-0.07452 0.04299,-0.153331 -0.04872,-0.15906 -0.03008,-0.15333 0.336754,0.03008 0.385475,0.196322 0.404103,0.190588 0.245043,-0.03008 -0.07452,-0.09744 -0.214951,-0.366846 -0.318126,-0.593261 -0.17196,-0.372576 -0.196321,-0.488651 -0.22068,-1.100539 -0.01863,-0.525907 0,-0.752321 0.07308,-0.971571 0.11607,-0.348215 0.11607,-0.33102 0.01291,-0.33102 -0.196317,0 -0.709331,0.819673 -0.709331,1.124901 0,0.08598 -0.01863,0.166226 -0.04872,0.183423 -0.04872,0.03151 -3.325981,-1.271067 -3.82753,-1.52184 l -0.299494,-0.146166 z m 6.494334,7.892933 c -0.02436,0.03151 0.11607,0.220683 0.318126,0.422735 0.421297,0.421301 0.715059,0.537371 1.093371,0.434195 0.563168,-0.15333 0.905653,-0.563164 0.531642,-0.641981 -0.09171,-0.01863 -0.432762,-0.03151 -0.750888,-0.02436 -0.490086,0.0057 -0.624788,-0.01291 -0.838303,-0.123238 -0.299494,-0.151897 -0.305228,-0.159064 -0.353948,-0.06735 z m 0,0"
             fill="#80b7ec"
             class="color000 svgShape"
             id="path854"
             style="fill:#440088;fill-opacity:1;stroke:none;stroke-width:0.366847;stroke-opacity:1" />
        </g>
      </g>
    </svg>
  </g>
</svg>
