<?xml version="1.0" encoding="UTF-8" standalone="no"?>
<!-- Created with Inkscape (http://www.inkscape.org/) -->

<svg
   width="7.9000001cm"
   height="8cm"
   viewBox="0 0 79.000004 79.999993"
   version="1.1"
   id="svg2496"
   inkscape:version="1.1.1 (c3084ef, 2021-09-22)"
   sodipodi:docname="bathenea.svg"
   xmlns:inkscape="http://www.inkscape.org/namespaces/inkscape"
   xmlns:sodipodi="http://sodipodi.sourceforge.net/DTD/sodipodi-0.dtd"
   xmlns:xlink="http://www.w3.org/1999/xlink"
   xmlns="http://www.w3.org/2000/svg"
   xmlns:svg="http://www.w3.org/2000/svg">
  <sodipodi:namedview
     id="namedview2498"
     pagecolor="#ffffff"
     bordercolor="#666666"
     borderopacity="1.0"
     inkscape:pageshadow="2"
     inkscape:pageopacity="0.0"
     inkscape:pagecheckerboard="0"
     inkscape:document-units="mm"
     showgrid="false"
     inkscape:zoom="2.3721281"
     inkscape:cx="168.41418"
     inkscape:cy="169.04652"
     inkscape:window-width="1920"
     inkscape:window-height="1052"
     inkscape:window-x="1440"
     inkscape:window-y="28"
     inkscape:window-maximized="0"
     inkscape:current-layer="g68"
     units="cm" />
  <defs
     id="defs2493">
    <clipPath
       clipPathUnits="userSpaceOnUse"
       id="clipPath72">
      <path
         d="m 16710,17445.6 c -424.4,943.8 -1053.4,1374.2 -1719.3,1677.1 491.8,684.3 1035.3,1078.2 1542.4,1113.7 394,28.1 770.2,-155.2 1117.4,-543.4 l 19.7,-21.8 c 147.1,-164.2 298.4,-333.3 407.8,-566.2 -792.7,-300.8 -1130.3,-929.9 -1368,-1659.4 z m -1332.6,-3049.5 c -70.1,1225 -784.5,1776.8 -1538.1,2358.1 -1004.2,774.7 -2040.4,1574 -1876,4117.6 579.6,-1100.1 1447.8,-1437.3 2290.7,-1764.8 941.3,-365.6 1830.7,-711.3 2320.4,-2116.3 -21.6,-77.8 -43,-156.2 -64.4,-234.8 -228.4,-837.3 -462,-1693 -1132.6,-2359.8 z m -1534.9,-881.9 c -196.3,-62.3 -395.1,-107.7 -588.3,-144.5 37.2,277.3 71.3,589.2 107.4,933.2 66.6,635.1 135.5,1288.8 254,1763.2 824.3,-385 1487.7,-797.6 1472.8,-1923 -323.5,-250.1 -728.5,-464.8 -1245.9,-628.9 z m -2701.7,6584 c 165.5,-275.7 359.8,-509.5 586.1,-707.6 255.6,-1573.9 1133.1,-2252.4 1932.7,-2869.4 173.6,-133.8 341.9,-263.8 498.3,-398.7 -223.4,123 -460.1,230.5 -695,337.3 -1216.9,552.1 -2472.9,1121.8 -2322.1,3638.4 z M 12576,12170.7 c -69.5,-18.5 -226.3,74 -454.8,390.5 -112.3,155.7 -97.9,211.6 -93.8,221.2 42.7,102.1 451.3,164.7 779.4,215 31.2,4.8 62.8,9.6 94.8,14.6 -78.9,-452.2 -182.2,-803 -325.6,-841.3 z m 6589.7,6497.4 -780.9,465.6 c -129.9,323 -322.9,541.1 -495.5,733.6 l -19.5,21.9 c -411,459.4 -867.1,674.7 -1357.3,640.6 -618.2,-43.2 -1237.9,-488.9 -1797.8,-1288.5 -117.9,48.1 -236.4,94.3 -354.3,139.9 -945.1,367.1 -1837.9,713.8 -2352.6,2117.7 l -210.7,574.7 -73.5,-607.8 c -74.1,-611.7 -86.8,-1139.8 -52.4,-1600.9 -194.9,226.5 -359.1,494.4 -495.2,812.4 l -215.6,503.2 -65.6,-543.4 c -382.3,-3161.8 1120.6,-3843.7 2446.6,-4445.4 0.8,-0.4 1.6,-0.6 2.4,-1 -132.1,-500.6 -204.6,-1189 -274.8,-1857.2 -33.6,-319.1 -71.5,-680.9 -119.3,-1016.1 -63.8,-10.3 -126.3,-19.7 -187.5,-29.2 -522.3,-80.1 -899.6,-137.8 -1006.2,-392.1 -87.9,-209.7 73.6,-433.5 126.7,-507 164.4,-227.9 405.6,-515.3 673.2,-515.3 31.5,0 63.5,4 95.8,12.6 296.4,79 446.4,491.8 557.3,1176 233,41.2 477.5,93.8 722.3,171.4 2105.7,668 2507.7,2143.2 2862.5,3444.6 248.6,912.2 467,1712.3 1241.4,2087.4 222.7,85 1130.5,-97.7 1130.5,-97.7 z"
         id="path70" />
    </clipPath>
    <linearGradient
       x1="0"
       y1="0"
       x2="1"
       y2="0"
       gradientUnits="userSpaceOnUse"
       gradientTransform="matrix(6699.97,8674.97,8674.97,-6699.97,10024.8,13400.8)"
       spreadMethod="pad"
       id="linearGradient78">
      <stop
         style="stop-opacity:1;stop-color:#941d80"
         offset="0"
         id="stop74" />
      <stop
         style="stop-opacity:1;stop-color:#29265b"
         offset="1"
         id="stop76" />
    </linearGradient>
    <radialGradient
       inkscape:collect="always"
       xlink:href="#linearGradient78"
       id="radialGradient4800"
       cx="14999.881"
       cy="16973.535"
       fx="14999.881"
       fy="16973.535"
       r="4166.0752"
       gradientTransform="matrix(1,0,0,1.2242304,0,-3805.983)"
       gradientUnits="userSpaceOnUse" />
  </defs>
  <g
     inkscape:label="Layer 1"
     inkscape:groupmode="layer"
     id="layer1">
    <g
       id="g12"
       transform="matrix(0.00567381,0,0,-0.00567381,15.434526,212.18086)">
      <g
         id="g66"
         transform="matrix(1.3649024,0,0,1.3649024,-15993.633,7165.3447)"
         style="stroke:#0306f7;stroke-opacity:1">
        <g
           id="g68"
           clip-path="url(#clipPath72)"
           style="stroke:#0306f7;stroke-opacity:1">
          <path
             d="m 16710,17445.6 c -424.4,943.8 -1053.4,1374.2 -1719.3,1677.1 491.8,684.3 1035.3,1078.2 1542.4,1113.7 394,28.1 770.2,-155.2 1117.4,-543.4 l 19.7,-21.8 c 147.1,-164.2 298.4,-333.3 407.8,-566.2 -792.7,-300.8 -1130.3,-929.9 -1368,-1659.4 z m -1332.6,-3049.5 c -70.1,1225 -784.5,1776.8 -1538.1,2358.1 -1004.2,774.7 -2040.4,1574 -1876,4117.6 579.6,-1100.1 1447.8,-1437.3 2290.7,-1764.8 941.3,-365.6 1830.7,-711.3 2320.4,-2116.3 -21.6,-77.8 -43,-156.2 -64.4,-234.8 -228.4,-837.3 -462,-1693 -1132.6,-2359.8 z m -1534.9,-881.9 c -196.3,-62.3 -395.1,-107.7 -588.3,-144.5 37.2,277.3 71.3,589.2 107.4,933.2 66.6,635.1 135.5,1288.8 254,1763.2 824.3,-385 1487.7,-797.6 1472.8,-1923 -323.5,-250.1 -728.5,-464.8 -1245.9,-628.9 z m -2701.7,6584 c 165.5,-275.7 359.8,-509.5 586.1,-707.6 255.6,-1573.9 1133.1,-2252.4 1932.7,-2869.4 173.6,-133.8 341.9,-263.8 498.3,-398.7 -223.4,123 -460.1,230.5 -695,337.3 -1216.9,552.1 -2472.9,1121.8 -2322.1,3638.4 z M 12576,12170.7 c -69.5,-18.5 -226.3,74 -454.8,390.5 -112.3,155.7 -97.9,211.6 -93.8,221.2 42.7,102.1 451.3,164.7 779.4,215 31.2,4.8 62.8,9.6 94.8,14.6 -78.9,-452.2 -182.2,-803 -325.6,-841.3 z m 6589.7,6497.4 -780.9,465.6 c -129.9,323 -322.9,541.1 -495.5,733.6 l -19.5,21.9 c -411,459.4 -867.1,674.7 -1357.3,640.6 -618.2,-43.2 -1237.9,-488.9 -1797.8,-1288.5 -117.9,48.1 -236.4,94.3 -354.3,139.9 -945.1,367.1 -1837.9,713.8 -2352.6,2117.7 l -210.7,574.7 -73.5,-607.8 c -74.1,-611.7 -86.8,-1139.8 -52.4,-1600.9 -194.9,226.5 -359.1,494.4 -495.2,812.4 l -215.6,503.2 -65.6,-543.4 c -382.3,-3161.8 1120.6,-3843.7 2446.6,-4445.4 0.8,-0.4 1.6,-0.6 2.4,-1 -132.1,-500.6 -204.6,-1189 -274.8,-1857.2 -33.6,-319.1 -71.5,-680.9 -119.3,-1016.1 -63.8,-10.3 -126.3,-19.7 -187.5,-29.2 -522.3,-80.1 -899.6,-137.8 -1006.2,-392.1 -87.9,-209.7 73.6,-433.5 126.7,-507 164.4,-227.9 405.6,-515.3 673.2,-515.3 31.5,0 63.5,4 95.8,12.6 296.4,79 446.4,491.8 557.3,1176 233,41.2 477.5,93.8 722.3,171.4 2105.7,668 2507.7,2143.2 2862.5,3444.6 248.6,912.2 467,1712.3 1241.4,2087.4 222.7,85 1130.5,-97.7 1130.5,-97.7"
             style="fill:#f8eeff;fill-opacity:1;fill-rule:nonzero;stroke:url(#radialGradient4800);stroke-opacity:1;opacity:1"
             id="path80" />
        </g>
      </g>
    </g>
  </g>
</svg>
