<?xml version="1.0" encoding="UTF-8" standalone="no"?>
<!-- Created with Inkscape (http://www.inkscape.org/) -->

<svg
   width="64"
   height="64"
   viewBox="0 0 16.933333 16.933333"
   version="1.1"
   id="svg5"
   inkscape:version="1.1.1 (c3084ef, 2021-09-22)"
   sodipodi:docname="net.svg"
   xmlns:inkscape="http://www.inkscape.org/namespaces/inkscape"
   xmlns:sodipodi="http://sodipodi.sourceforge.net/DTD/sodipodi-0.dtd"
   xmlns:xlink="http://www.w3.org/1999/xlink"
   xmlns="http://www.w3.org/2000/svg"
   xmlns:svg="http://www.w3.org/2000/svg">
  <sodipodi:namedview
     id="namedview7"
     pagecolor="#ffffff"
     bordercolor="#666666"
     borderopacity="1.0"
     inkscape:pageshadow="2"
     inkscape:pageopacity="0.0"
     inkscape:pagecheckerboard="0"
     inkscape:document-units="mm"
     showgrid="false"
     units="px"
     width="64px"
     inkscape:zoom="9.4663922"
     inkscape:cx="35.969353"
     inkscape:cy="30.423417"
     inkscape:window-width="1312"
     inkscape:window-height="872"
     inkscape:window-x="0"
     inkscape:window-y="0"
     inkscape:window-maximized="0"
     inkscape:current-layer="layer1" />
  <defs
     id="defs2">
    <linearGradient
       inkscape:collect="always"
       id="linearGradient5073">
      <stop
         style="stop-color:#000000;stop-opacity:1;"
         offset="0"
         id="stop5069" />
      <stop
         style="stop-color:#000000;stop-opacity:0;"
         offset="1"
         id="stop5071" />
    </linearGradient>
    <clipPath
       clipPathUnits="userSpaceOnUse"
       id="clipPath1764">
      <rect
         style="opacity:1;fill:none;fill-opacity:1;stroke:#000000;stroke-width:0.507868;stroke-opacity:1"
         id="rect1766"
         width="19.056314"
         height="39.873463"
         x="20.14031"
         y="6.8892756" />
    </clipPath>
    <clipPath
       clipPathUnits="userSpaceOnUse"
       id="clipPath1768">
      <rect
         style="opacity:1;fill:none;fill-opacity:1;stroke:#000000;stroke-width:0.507868;stroke-opacity:1"
         id="rect1770"
         width="19.056314"
         height="39.873463"
         x="20.14031"
         y="6.8892756" />
    </clipPath>
    <clipPath
       clipPathUnits="userSpaceOnUse"
       id="clipPath1772">
      <rect
         style="opacity:1;fill:none;fill-opacity:1;stroke:#000000;stroke-width:0.507868;stroke-opacity:1"
         id="rect1774"
         width="19.056314"
         height="39.873463"
         x="20.14031"
         y="6.8892756" />
    </clipPath>
    <clipPath
       clipPathUnits="userSpaceOnUse"
       id="clipPath26">
      <path
         d="m 3114.56,3344.82 c 0,-32.41 24.58,-59.06 56.11,-62.36 v 0 c 30.94,-115.59 44.08,-239.02 39.03,-367.83 v 0 c -6.29,-171.83 -46.57,-339.23 -116.81,-487.81 v 0 c -1.12,0.07 -2.24,0.17 -3.38,0.17 v 0 c -34.63,0 -62.7,-28.08 -62.7,-62.71 v 0 c 0,-34.63 28.07,-62.71 62.7,-62.71 v 0 c 34.64,0 62.71,28.08 62.71,62.71 v 0 c 0,15.3 -5.49,29.31 -14.6,40.21 v 0 c 73.41,154.91 115.49,329.36 122.04,508.24 v 0 c 5.29,134.6 -8.6,263.76 -41.26,384.82 v 0 c 13.19,11.51 21.57,28.39 21.57,47.27 v 0 c 0,34.63 -28.07,62.71 -62.71,62.71 v 0 c -34.63,0 -62.7,-28.08 -62.7,-62.71"
         id="path24" />
    </clipPath>
    <linearGradient
       x1="0"
       y1="0"
       x2="1"
       y2="0"
       gradientUnits="userSpaceOnUse"
       gradientTransform="matrix(0,1105.96,1105.96,0,3143.78,2301.57)"
       spreadMethod="pad"
       id="linearGradient32">
      <stop
         style="stop-opacity:1;stop-color:#ffdc41"
         offset="0"
         id="stop28" />
      <stop
         style="stop-opacity:1;stop-color:#ff9a41"
         offset="1"
         id="stop30" />
    </linearGradient>
    <clipPath
       clipPathUnits="userSpaceOnUse"
       id="clipPath42">
      <path
         d="m 2442.35,3766.25 c -104.96,-20.77 -205.07,-75.57 -292.23,-159.46 v 0 c -6.29,2.12 -13.01,3.32 -20.02,3.32 v 0 c -34.63,0 -62.71,-28.08 -62.71,-62.71 v 0 c 0,-34.64 28.08,-62.72 62.71,-62.72 v 0 c 34.64,0 62.71,28.08 62.71,62.72 v 0 c 0,9.16 -2,17.84 -5.54,25.69 v 0 c 79.65,75.87 170.28,125.41 264.79,144.1 v 0 c 51.23,10.13 102.46,11.38 152.22,3.71 v 0 c 156.51,-24.26 307.22,-146.09 393.31,-317.96 v 0 c 67.73,-135.2 98.64,-301.29 90.56,-483.03 v 0 c -21.42,-9.97 -36.3,-31.63 -36.3,-56.82 v 0 c 0,-34.63 28.07,-62.71 62.71,-62.71 v 0 c 34.63,0 62.7,28.08 62.7,62.71 v 0 c 0,26.24 -16.13,48.69 -39.01,58.04 v 0 c 7.9,188.94 -24.84,362.24 -95.95,504.21 v 0 c -94.64,188.91 -255.53,317.87 -430.39,344.98 v 0 c -23.96,3.69 -48.2,5.54 -72.59,5.54 v 0 c -32.16,0 -64.58,-3.21 -96.97,-9.61"
         id="path40" />
    </clipPath>
    <linearGradient
       x1="0"
       y1="0"
       x2="1"
       y2="0"
       gradientUnits="userSpaceOnUse"
       gradientTransform="matrix(0,975.478,975.478,0,2622.33,2800.38)"
       spreadMethod="pad"
       id="linearGradient48">
      <stop
         style="stop-opacity:1;stop-color:#1050ff"
         offset="0"
         id="stop44" />
      <stop
         style="stop-opacity:1;stop-color:#10dbff"
         offset="1"
         id="stop46" />
    </linearGradient>
    <clipPath
       clipPathUnits="userSpaceOnUse"
       id="clipPath58">
      <path
         d="m 2358.11,3581.75 c -116.86,-59.51 -219.45,-175.06 -286.9,-325.57 v 0 c -54.59,-121.82 -90.04,-259.6 -124.32,-392.85 v 0 c -15.41,-59.88 -31.26,-121.28 -48.82,-181.41 v 0 c -31.22,-3.59 -55.47,-30.08 -55.47,-62.26 v 0 c 0,-34.63 28.07,-62.71 62.7,-62.71 v 0 c 34.64,0 62.71,28.08 62.71,62.71 v 0 c 0,19.13 -8.58,36.23 -22.09,47.73 v 0 c 17.84,61.01 33.84,123.02 49.39,183.49 v 0 c 35.32,137.26 68.67,266.9 121.53,384.85 v 0 c 62.28,138.98 155.62,245.37 261.19,300.04 v 0 c 11.21,-10.49 26.22,-16.95 42.78,-16.95 v 0 c 34.63,0 62.71,28.08 62.71,62.71 v 0 c 0,34.63 -28.08,62.71 -62.71,62.71 v 0 c -34.56,0 -62.59,-27.96 -62.7,-62.49"
         id="path56" />
    </clipPath>
    <linearGradient
       x1="0"
       y1="0"
       x2="1"
       y2="0"
       gradientUnits="userSpaceOnUse"
       gradientTransform="matrix(0,1087.3,1087.3,0,2163.06,2556.95)"
       spreadMethod="pad"
       id="linearGradient64">
      <stop
         style="stop-opacity:1;stop-color:#ffdc41"
         offset="0"
         id="stop60" />
      <stop
         style="stop-opacity:1;stop-color:#ff9a41"
         offset="1"
         id="stop62" />
    </linearGradient>
    <clipPath
       clipPathUnits="userSpaceOnUse"
       id="clipPath74">
      <path
         d="m 2630.37,3566.3 c 0,-34.63 28.08,-62.71 62.71,-62.71 v 0 c 14.72,0 28.23,5.11 38.92,13.6 v 0 c 75.12,-49.29 139.2,-125.47 179.95,-215.63 v 0 c 59.85,-133.79 75.97,-297.1 47.89,-485.41 v 0 c -36.76,-246.51 -148.17,-476.95 -314.19,-649.37 v 0 L 2580,2094.71 c -5.5,1.57 -11.28,2.46 -17.29,2.46 v 0 c -34.64,0 -62.71,-28.07 -62.71,-62.7 v 0 c 0,-34.64 28.07,-62.71 62.71,-62.71 v 0 c 34.64,0 62.72,28.07 62.72,62.71 v 0 c 0,10.21 -2.51,19.83 -6.84,28.35 v 0 l 63.55,69.77 c 172.69,179.35 288.88,419.48 327.15,676.18 v 0 c 29.51,197.9 12.11,370.58 -51.74,513.3 v 0 c -45.32,100.27 -117.36,184.96 -202,239.4 v 0 c 0.11,1.6 0.24,3.2 0.24,4.83 v 0 c 0,34.64 -28.08,62.72 -62.71,62.72 v 0 c -34.63,0 -62.71,-28.08 -62.71,-62.72"
         id="path72" />
    </clipPath>
    <linearGradient
       x1="0"
       y1="0"
       x2="1"
       y2="0"
       gradientUnits="userSpaceOnUse"
       gradientTransform="matrix(0,1657.26,1657.26,0,2761.62,1971.75)"
       spreadMethod="pad"
       id="linearGradient80">
      <stop
         style="stop-opacity:1;stop-color:#ffdc41"
         offset="0"
         id="stop76" />
      <stop
         style="stop-opacity:1;stop-color:#ff9a41"
         offset="1"
         id="stop78" />
    </linearGradient>
    <clipPath
       clipPathUnits="userSpaceOnUse"
       id="clipPath90">
      <path
         d="m 2449.54,4085.29 c -464.46,-33.31 -834.27,-523.32 -834.27,-1120.94 v 0 c 0,-134.14 18.32,-264.63 54.44,-388.75 v 0 c -13.17,-11.5 -21.53,-28.37 -21.53,-47.22 v 0 c 0,-34.63 28.07,-62.71 62.71,-62.71 v 0 c 34.63,0 62.71,28.08 62.71,62.71 v 0 c 0,32.44 -24.63,59.12 -56.21,62.38 v 0 c -34.56,119.23 -52.12,244.62 -52.12,373.59 v 0 c 0,570.49 348.28,1038.33 785.92,1070.93 v 0 c 10.08,-21.17 31.6,-35.83 56.6,-35.83 v 0 c 34.63,0 62.71,28.07 62.71,62.71 v 0 c 0,34.63 -28.08,62.7 -62.71,62.7 v 0 c -26.45,0 -49.04,-16.4 -58.25,-39.57"
         id="path88" />
    </clipPath>
    <linearGradient
       x1="0"
       y1="0"
       x2="1"
       y2="0"
       gradientUnits="userSpaceOnUse"
       gradientTransform="matrix(0,1659.2,1659.2,0,2092.88,2465.67)"
       spreadMethod="pad"
       id="linearGradient96">
      <stop
         style="stop-opacity:1;stop-color:#1050ff"
         offset="0"
         id="stop92" />
      <stop
         style="stop-opacity:1;stop-color:#10dbff"
         offset="1"
         id="stop94" />
    </linearGradient>
    <clipPath
       clipPathUnits="userSpaceOnUse"
       id="clipPath106">
      <path
         d="m 2471.45,3926.84 c -194.1,-16.78 -375.39,-126.87 -510.49,-309.97 v 0 c -62.77,-85.09 -115.45,-184.32 -157.1,-295.45 v 0 c -32.58,-2.25 -58.33,-29.33 -58.33,-62.48 v 0 c 0,-34.64 28.07,-62.72 62.71,-62.72 v 0 c 34.64,0 62.71,28.08 62.71,62.72 v 0 c 0,18.08 -7.7,34.33 -19.95,45.77 v 0 c 39.98,106.44 90.33,201.32 150.19,282.46 v 0 c 126.45,171.39 294.99,274.33 474.57,289.86 v 0 c 57.7,4.99 115.14,1.02 170.65,-11.84 v 0 c 92.02,-21.33 180.89,-68.55 259.82,-137.47 v 0 c -2.29,-6.51 -3.6,-13.47 -3.6,-20.76 v 0 c 0,-34.64 28.09,-62.72 62.72,-62.72 v 0 c 34.63,0 62.71,28.08 62.71,62.72 v 0 c 0,34.63 -28.08,62.71 -62.71,62.71 v 0 c -8.94,0 -17.42,-1.9 -25.11,-5.27 v 0 c -85.4,74.85 -182.06,126.21 -282.56,149.5 v 0 c -43.74,10.13 -88.56,15.22 -133.77,15.22 v 0 c -17.44,0 -34.94,-0.76 -52.46,-2.28"
         id="path104" />
    </clipPath>
    <linearGradient
       x1="0"
       y1="0"
       x2="1"
       y2="0"
       gradientUnits="userSpaceOnUse"
       gradientTransform="matrix(0,732.892,732.892,0,2386.79,3196.22)"
       spreadMethod="pad"
       id="linearGradient112">
      <stop
         style="stop-opacity:1;stop-color:#ffdc41"
         offset="0"
         id="stop108" />
      <stop
         style="stop-opacity:1;stop-color:#ff9a41"
         offset="1"
         id="stop110" />
    </linearGradient>
    <clipPath
       clipPathUnits="userSpaceOnUse"
       id="clipPath122">
      <path
         d="m 2983.4,2561.54 c 0,-17.73 7.38,-33.71 19.21,-45.11 v 0 c -29.33,-73.91 -65.47,-143.44 -107.95,-207.76 v 0 c -3.97,0.78 -8.06,1.22 -12.27,1.22 v 0 c -34.63,0 -62.71,-28.08 -62.71,-62.72 v 0 c 0,-34.63 28.08,-62.71 62.71,-62.71 v 0 c 34.64,0 62.72,28.08 62.72,62.71 v 0 c 0,12.09 -3.49,23.34 -9.41,32.92 v 0 c 44.87,67.77 82.96,141.04 113.79,218.9 v 0 c 33.05,1.77 59.34,29.05 59.34,62.55 v 0 c 0,34.63 -28.09,62.71 -62.72,62.71 v 0 c -34.64,0 -62.71,-28.08 -62.71,-62.71"
         id="path120" />
    </clipPath>
    <linearGradient
       x1="0"
       y1="0"
       x2="1"
       y2="0"
       gradientUnits="userSpaceOnUse"
       gradientTransform="matrix(0,439.784,439.784,0,2964.25,2184.46)"
       spreadMethod="pad"
       id="linearGradient128">
      <stop
         style="stop-opacity:1;stop-color:#1050ff"
         offset="0"
         id="stop124" />
      <stop
         style="stop-opacity:1;stop-color:#10dbff"
         offset="1"
         id="stop126" />
    </linearGradient>
    <clipPath
       clipPathUnits="userSpaceOnUse"
       id="clipPath138">
      <path
         d="m 2902.63,3887.59 c 0,-34.63 28.09,-62.71 62.72,-62.71 v 0 c 9.53,0 18.53,2.19 26.62,6 v 0 c 215.54,-202.11 342.76,-521.32 342.76,-866.53 v 0 c 0,-122.55 -15.94,-242.06 -47.24,-356.14 v 0 c -31.47,-3.36 -55.99,-29.98 -55.99,-62.34 v 0 c 0,-34.64 28.07,-62.72 62.71,-62.72 v 0 c 34.63,0 62.71,28.08 62.71,62.72 v 0 c 0,18.92 -8.43,35.85 -21.67,47.35 v 0 c 32.8,118.92 49.48,243.47 49.48,371.13 v 0 c 0,359.47 -133.53,692.57 -359.7,904.02 v 0 c 1.95,6.07 3.03,12.51 3.03,19.22 v 0 c 0,34.64 -28.07,62.72 -62.71,62.72 v 0 c -34.63,0 -62.72,-28.08 -62.72,-62.72"
         id="path136" />
    </clipPath>
    <linearGradient
       x1="0"
       y1="0"
       x2="1"
       y2="0"
       gradientUnits="userSpaceOnUse"
       gradientTransform="matrix(0,1467.15,1467.15,0,3143.69,2483.16)"
       spreadMethod="pad"
       id="linearGradient144">
      <stop
         style="stop-opacity:1;stop-color:#1050ff"
         offset="0"
         id="stop140" />
      <stop
         style="stop-opacity:1;stop-color:#10dbff"
         offset="1"
         id="stop142" />
    </linearGradient>
    <clipPath
       clipPathUnits="userSpaceOnUse"
       id="clipPath154">
      <path
         d="m 3013.8,2149.94 c 0,-9.03 1.95,-17.59 5.38,-25.35 v 0 c -132.69,-135.69 -293.85,-215.97 -462.86,-230.6 v 0 c -10.19,20.85 -31.55,35.26 -56.32,35.26 v 0 c -34.64,0 -62.71,-28.08 -62.71,-62.71 v 0 c 0,-34.64 28.07,-62.72 62.71,-62.72 v 0 c 26.68,0 49.41,16.7 58.48,40.18 v 0 c 182.27,15.18 355.59,101.12 497.51,246.74 v 0 c 6.44,-2.24 13.32,-3.51 20.52,-3.51 v 0 c 34.65,0 62.72,28.08 62.72,62.71 v 0 c 0,34.63 -28.07,62.71 -62.72,62.71 v 0 c -34.63,0 -62.71,-28.08 -62.71,-62.71"
         id="path152" />
    </clipPath>
    <linearGradient
       x1="0"
       y1="0"
       x2="1"
       y2="0"
       gradientUnits="userSpaceOnUse"
       gradientTransform="matrix(0,408.823,408.823,0,2788.26,1803.82)"
       spreadMethod="pad"
       id="linearGradient160">
      <stop
         style="stop-opacity:1;stop-color:#1050ff"
         offset="0"
         id="stop156" />
      <stop
         style="stop-opacity:1;stop-color:#10dbff"
         offset="1"
         id="stop158" />
    </linearGradient>
    <clipPath
       clipPathUnits="userSpaceOnUse"
       id="clipPath170">
      <path
         d="m 1925.35,3331.43 c 0,-16.23 6.22,-30.99 16.36,-42.13 v 0 c -26.88,-62.79 -51.03,-131.48 -73,-207.75 v 0 c -30.46,-4.29 -53.91,-30.39 -53.91,-62.02 v 0 c 0,-34.63 28.08,-62.72 62.71,-62.72 v 0 c 34.63,0 62.71,28.09 62.71,62.72 v 0 c 0,19.69 -9.1,37.25 -23.3,48.74 v 0 c 21.25,73.69 44.54,140 70.38,200.49 v 0 c 0.25,-0.01 0.5,-0.04 0.76,-0.04 v 0 c 34.64,0 62.71,28.08 62.71,62.71 v 0 c 0,34.64 -28.07,62.71 -62.71,62.71 v 0 c -34.64,0 -62.71,-28.07 -62.71,-62.71"
         id="path168" />
    </clipPath>
    <linearGradient
       x1="0"
       y1="0"
       x2="1"
       y2="0"
       gradientUnits="userSpaceOnUse"
       gradientTransform="matrix(0,437.331,437.331,0,1932.78,2956.81)"
       spreadMethod="pad"
       id="linearGradient176">
      <stop
         style="stop-opacity:1;stop-color:#1050ff"
         offset="0"
         id="stop172" />
      <stop
         style="stop-opacity:1;stop-color:#10dbff"
         offset="1"
         id="stop174" />
    </linearGradient>
    <clipPath
       clipPathUnits="userSpaceOnUse"
       id="clipPath186">
      <path
         d="M 2519.08,3482.68 C 2313,3473.45 2178.79,3257.2 2126.47,3074.82 v 0 c -18.88,-65.81 -32.59,-134.25 -45.86,-200.43 v 0 c -25.71,-128.29 -50,-249.48 -108.92,-357.68 v 0 c -34.22,-62.85 -79.89,-118.47 -135.72,-165.27 v 0 c -30.9,-25.9 -37.41,-70.74 -15.14,-104.31 v 0 c 12.7,-19.14 33.05,-31.79 55.83,-34.71 v 0 c 22.82,-2.92 45.66,4.17 62.79,19.47 v 0 l 57.08,51.01 c 0.48,0.43 0.95,0.89 1.4,1.35 v 0 c 45.16,47.16 83.61,99.63 114.27,155.96 v 0 c 70.52,129.49 98.37,268.4 125.3,402.74 v 0 c 13.19,65.84 25.64,128.03 42.77,187.75 v 0 c 56.13,195.67 166.86,288.6 245.9,292.14 v 0 c 76.99,3.24 159.8,-65.07 197.61,-162.34 v 0 c 37.56,-96.65 39.02,-220.37 4.33,-367.73 v 0 c -63.9,-271.45 -231.05,-525.52 -458.57,-697.05 v 0 c -8.85,-6.68 -20.98,-7.05 -30.12,-0.95 v 0 c -7.25,4.84 -11.43,12.62 -11.49,21.33 v 0 c -0.04,8.7 4.04,16.51 11.13,21.38 v 0 l 1.41,0.96 c 17.69,12.14 31.98,22.83 44.94,33.66 v 0 c 196.8,164.33 336.74,388.82 394.04,632.13 v 0 c 32.32,137.35 31.57,251.12 -2.27,338.16 v 0 c -29.51,75.88 -94.1,132.86 -149,130.5 v 0 c -63.63,-2.86 -152.71,-91.71 -199.85,-255.98 v 0 c -16.6,-57.86 -28.84,-119.03 -41.83,-183.9 v 0 c -27.65,-137.95 -56.26,-280.6 -130.38,-416.72 v 0 c -17.3,-31.76 -37.14,-62.39 -58.96,-91.71 v 0 c -3.89,0.76 -7.89,1.17 -12,1.17 v 0 c -34.64,0 -62.71,-28.07 -62.71,-62.7 v 0 c 0,-34.64 28.07,-62.71 62.71,-62.71 v 0 c 34.64,0 62.71,28.07 62.71,62.71 v 0 c 0,12.19 -3.53,23.53 -9.55,33.15 v 0 c 22.8,30.77 43.58,62.89 61.7,96.18 v 0 c 77.75,142.77 107.11,289.2 135.53,430.94 v 0 c 12.76,63.72 24.81,123.9 40.85,179.8 v 0 c 29.88,104.16 98.9,217.34 154.92,219.82 v 0 c 25.54,0 74.23,-34.29 99.25,-98.67 v 0 c 30.1,-77.44 30.18,-181.26 0.21,-308.58 v 0 c -54.83,-232.83 -188.87,-447.78 -377.42,-605.21 v 0 c -11.73,-9.8 -24.81,-19.59 -41.08,-30.74 v 0 l -1.4,-0.96 c -20.78,-14.25 -33.11,-37.8 -32.94,-63 v 0 c 0.15,-25.21 12.76,-48.61 33.73,-62.61 v 0 c 26.8,-17.86 62.16,-16.81 87.97,2.63 v 0 c 236.69,178.45 410.6,442.89 477.14,725.52 v 0 c 37.05,157.38 34.89,291.05 -6.4,397.3 v 0 c -45.31,116.58 -148.72,198.25 -246.38,194.17 v 0 c -138.28,-6.2 -246.19,-169.36 -291.79,-328.31 v 0 c -17.7,-61.67 -30.35,-124.84 -43.73,-191.71 v 0 c -26.2,-130.68 -53.29,-265.81 -120.18,-388.66 v 0 c -28.41,-52.15 -64.01,-100.79 -105.82,-144.58 v 0 l -56.34,-50.35 c -6.41,-5.72 -14.63,-8.26 -23.11,-7.17 v 0 c -8.5,1.09 -15.8,5.63 -20.54,12.77 v 0 c -8.17,12.33 -5.77,28.81 5.6,38.34 v 0 c 60.65,50.85 110.28,111.3 147.51,179.69 v 0 c 62.54,114.85 88.73,245.45 114.03,371.75 v 0 c 13.07,65.21 26.59,132.62 44.9,196.47 v 0 c 47.75,166.44 167.22,363.66 346.79,371.7 v 0 c 124.15,5.78 249.64,-90 304.99,-232.38 v 0 c 45.77,-117.77 48.76,-263.38 8.87,-432.79 v 0 c -73.9,-313.87 -273.44,-603.64 -539.99,-788.92 v 0 c -9.25,5.38 -19.97,8.51 -31.45,8.51 v 0 c -34.66,0 -62.75,-28.1 -62.75,-62.76 v 0 c 0,-34.66 28.09,-62.76 62.75,-62.76 v 0 c 34.66,0 62.77,28.1 62.77,62.76 v 0 c 0,4.78 -0.59,9.41 -1.6,13.89 v 0 c 279.27,193.51 481.16,487.45 558.94,817.83 v 0 c 42.24,179.43 38.56,334.98 -10.94,462.35 v 0 c -61.2,157.42 -200.14,264.5 -341.3,264.51 v 0 c -4.18,0 -8.35,-0.1 -12.53,-0.29"
         id="path184" />
    </clipPath>
    <linearGradient
       x1="0"
       y1="0"
       x2="1"
       y2="0"
       gradientUnits="userSpaceOnUse"
       gradientTransform="matrix(0,1621.34,1621.34,0,2360.32,1861.63)"
       spreadMethod="pad"
       id="linearGradient192">
      <stop
         style="stop-opacity:1;stop-color:#1050ff"
         offset="0"
         id="stop188" />
      <stop
         style="stop-opacity:1;stop-color:#10dbff"
         offset="1"
         id="stop190" />
    </linearGradient>
    <clipPath
       clipPathUnits="userSpaceOnUse"
       id="clipPath202">
      <path
         d="M 1785.52,2011.76 H 3199.98 V 3729.67 H 1785.52 Z"
         id="path200" />
    </clipPath>
    <clipPath
       clipPathUnits="userSpaceOnUse"
       id="clipPath208">
      <path
         d="M 1785.52,2011.76 H 3199.98 V 3729.67 H 1785.52 Z"
         id="path206" />
    </clipPath>
    <clipPath
       clipPathUnits="userSpaceOnUse"
       id="clipPath212">
      <path
         d="m 3100.62,2386.37 -11.43,0.61 h -0.02 c -12.19,0 -22.37,-10.18 -22.37,-22.69 0,-12.53 10.19,-22.72 22.72,-22.72 12.52,0 22.7,10.19 22.7,22.72 0,6.79 -2.87,11.65 -5.27,14.52 z"
         id="path210" />
    </clipPath>
    <linearGradient
       x1="0"
       y1="0"
       x2="1"
       y2="0"
       gradientUnits="userSpaceOnUse"
       gradientTransform="matrix(454.2,0,0,-454.2,30668,23642.8)"
       spreadMethod="pad"
       id="linearGradient218">
      <stop
         style="stop-opacity:1;stop-color:#ffdc41"
         offset="0"
         id="stop214" />
      <stop
         style="stop-opacity:1;stop-color:#ff9a41"
         offset="1"
         id="stop216" />
    </linearGradient>
    <clipPath
       clipPathUnits="userSpaceOnUse"
       id="clipPath222">
      <path
         d="m 3177.26,3367.53 c -12.52,0 -22.7,-10.19 -22.7,-22.71 0,-11.66 8.71,-21.37 20.27,-22.57 l 9.82,-1.03 7.49,6.51 c 2.92,2.55 7.84,8.16 7.84,17.09 0,12.52 -10.19,22.71 -22.72,22.71"
         id="path220" />
    </clipPath>
    <linearGradient
       x1="0"
       y1="0"
       x2="1"
       y2="0"
       gradientUnits="userSpaceOnUse"
       gradientTransform="matrix(454.19,0,0,-454.19,31545.6,33443.7)"
       spreadMethod="pad"
       id="linearGradient228">
      <stop
         style="stop-opacity:1;stop-color:#ffdc41"
         offset="0"
         id="stop224" />
      <stop
         style="stop-opacity:1;stop-color:#ff9a41"
         offset="1"
         id="stop226" />
    </linearGradient>
    <clipPath
       clipPathUnits="userSpaceOnUse"
       id="clipPath232">
      <path
         d="m 1928.01,2619.66 c 0,9.08 -5.04,14.73 -8.03,17.28 l -7.49,6.38 -9.85,-1.13 c -11.42,-1.32 -20.05,-11 -20.05,-22.53 0,-12.53 10.19,-22.71 22.72,-22.71 12.52,0 22.7,10.18 22.7,22.71"
         id="path230" />
    </clipPath>
    <linearGradient
       x1="0"
       y1="0"
       x2="1"
       y2="0"
       gradientUnits="userSpaceOnUse"
       gradientTransform="matrix(454.2,0,0,-454.2,18825.9,26201.3)"
       spreadMethod="pad"
       id="linearGradient238">
      <stop
         style="stop-opacity:1;stop-color:#ffdc41"
         offset="0"
         id="stop234" />
      <stop
         style="stop-opacity:1;stop-color:#ff9a41"
         offset="1"
         id="stop236" />
    </linearGradient>
    <clipPath
       clipPathUnits="userSpaceOnUse"
       id="clipPath242">
      <path
         d="m 2420.81,3604.24 c -12.47,0 -22.66,-10.15 -22.7,-22.63 l -0.03,-9.82 7.28,-6.81 c 3,-2.81 8.11,-6.16 15.45,-6.16 12.53,0 22.71,10.19 22.71,22.71 0,12.53 -10.18,22.71 -22.71,22.71"
         id="path240" />
    </clipPath>
    <linearGradient
       x1="0"
       y1="0"
       x2="1"
       y2="0"
       gradientUnits="userSpaceOnUse"
       gradientTransform="matrix(454.39,0,0,-454.39,23980.8,35815.3)"
       spreadMethod="pad"
       id="linearGradient248">
      <stop
         style="stop-opacity:1;stop-color:#ffdc41"
         offset="0"
         id="stop244" />
      <stop
         style="stop-opacity:1;stop-color:#ff9a41"
         offset="1"
         id="stop246" />
    </linearGradient>
    <clipPath
       clipPathUnits="userSpaceOnUse"
       id="clipPath252">
      <path
         d="m 2693.08,3589.01 c -12.53,0 -22.71,-10.18 -22.71,-22.71 0,-12.52 10.18,-22.71 22.71,-22.71 6.49,0 11.23,2.69 14.06,4.94 l 7.74,6.13 0.91,11.72 c 0,12.45 -10.19,22.63 -22.71,22.63"
         id="path250" />
    </clipPath>
    <linearGradient
       x1="0"
       y1="0"
       x2="1"
       y2="0"
       gradientUnits="userSpaceOnUse"
       gradientTransform="matrix(454.2,0,0,-454.2,26703.7,35663)"
       spreadMethod="pad"
       id="linearGradient258">
      <stop
         style="stop-opacity:1;stop-color:#ffdc41"
         offset="0"
         id="stop254" />
      <stop
         style="stop-opacity:1;stop-color:#ff9a41"
         offset="1"
         id="stop256" />
    </linearGradient>
    <clipPath
       clipPathUnits="userSpaceOnUse"
       id="clipPath262">
      <path
         d="m 2562.71,2011.76 c 12.53,0 22.72,10.18 22.72,22.7 0,3.54 -0.84,6.99 -2.5,10.23 l -4.51,8.86 -9.42,2.7 c -2.19,0.62 -4.25,0.93 -6.29,0.93 -12.53,0 -22.71,-10.19 -22.71,-22.72 0,-12.52 10.18,-22.7 22.71,-22.7"
         id="path260" />
    </clipPath>
    <linearGradient
       x1="0"
       y1="0"
       x2="1"
       y2="0"
       gradientUnits="userSpaceOnUse"
       gradientTransform="matrix(454.3,0,0,-454.3,25400,20344.7)"
       spreadMethod="pad"
       id="linearGradient268">
      <stop
         style="stop-opacity:1;stop-color:#ffdc41"
         offset="0"
         id="stop264" />
      <stop
         style="stop-opacity:1;stop-color:#ff9a41"
         offset="1"
         id="stop266" />
    </linearGradient>
    <clipPath
       clipPathUnits="userSpaceOnUse"
       id="clipPath272">
      <path
         d="m 1830.95,3258.94 c 0,8.49 -4.55,14.01 -7.26,16.55 l -7.19,6.72 -9.87,-0.69 c -11.84,-0.82 -21.11,-10.74 -21.11,-22.58 0,-12.53 10.19,-22.71 22.72,-22.71 12.53,0 22.71,10.18 22.71,22.71"
         id="path270" />
    </clipPath>
    <linearGradient
       x1="0"
       y1="0"
       x2="1"
       y2="0"
       gradientUnits="userSpaceOnUse"
       gradientTransform="matrix(454.3,0,0,-454.3,17855.2,32592.2)"
       spreadMethod="pad"
       id="linearGradient278">
      <stop
         style="stop-opacity:1;stop-color:#ffdc41"
         offset="0"
         id="stop274" />
      <stop
         style="stop-opacity:1;stop-color:#ff9a41"
         offset="1"
         id="stop276" />
    </linearGradient>
    <clipPath
       clipPathUnits="userSpaceOnUse"
       id="clipPath282">
      <path
         d="m 2965.35,3684.24 c 12.53,0 22.71,10.19 22.71,22.71 0,12.53 -10.18,22.72 -22.71,22.72 -3.13,0 -6.18,-0.65 -9.07,-1.91 l -9.03,-3.95 -3.29,-9.36 c -0.88,-2.51 -1.33,-5.04 -1.33,-7.5 0,-12.52 10.19,-22.71 22.72,-22.71"
         id="path280" />
    </clipPath>
    <linearGradient
       x1="0"
       y1="0"
       x2="1"
       y2="0"
       gradientUnits="userSpaceOnUse"
       gradientTransform="matrix(454.29,0,0,-454.29,29426.3,37069.6)"
       spreadMethod="pad"
       id="linearGradient288">
      <stop
         style="stop-opacity:1;stop-color:#ffdc41"
         offset="0"
         id="stop284" />
      <stop
         style="stop-opacity:1;stop-color:#ff9a41"
         offset="1"
         id="stop286" />
    </linearGradient>
    <clipPath
       clipPathUnits="userSpaceOnUse"
       id="clipPath348">
      <path
         d="M 1688.18,1843.82 H 3316.92 V 4084.86 H 1688.18 Z"
         id="path346" />
    </clipPath>
    <clipPath
       clipPathUnits="userSpaceOnUse"
       id="clipPath354">
      <path
         d="M 1688.18,1843.82 H 3316.92 V 4084.86 H 1688.18 Z"
         id="path352" />
    </clipPath>
    <clipPath
       clipPathUnits="userSpaceOnUse"
       id="clipPath358">
      <path
         d="m 2146.72,3565.73 -9.38,3.16 c -2.4,0.81 -4.84,1.22 -7.24,1.22 -12.52,0 -22.7,-10.19 -22.7,-22.71 0,-12.53 10.18,-22.71 22.7,-22.71 12.53,0 22.72,10.18 22.72,22.71 0,3.17 -0.68,6.29 -2.02,9.25 z"
         id="path356" />
    </clipPath>
    <linearGradient
       x1="0"
       y1="0"
       x2="1"
       y2="0"
       gradientUnits="userSpaceOnUse"
       gradientTransform="matrix(454.2,0,0,-454.2,21074,35474)"
       spreadMethod="pad"
       id="linearGradient364">
      <stop
         style="stop-opacity:1;stop-color:#1050ff"
         offset="0"
         id="stop360" />
      <stop
         style="stop-opacity:1;stop-color:#10dbff"
         offset="1"
         id="stop362" />
    </linearGradient>
    <clipPath
       clipPathUnits="userSpaceOnUse"
       id="clipPath368">
      <path
         d="m 3137.26,2863.09 c 0,9.25 -5.55,17.51 -14.14,21.02 l -9.1,3.72 -8.99,-4.18 c -8.01,-3.73 -13.19,-11.8 -13.19,-20.56 0,-12.52 10.19,-22.71 22.72,-22.71 12.52,0 22.7,10.19 22.7,22.71"
         id="path366" />
    </clipPath>
    <linearGradient
       x1="0"
       y1="0"
       x2="1"
       y2="0"
       gradientUnits="userSpaceOnUse"
       gradientTransform="matrix(454.2,0,0,-454.2,30918.4,28641)"
       spreadMethod="pad"
       id="linearGradient374">
      <stop
         style="stop-opacity:1;stop-color:#1050ff"
         offset="0"
         id="stop370" />
      <stop
         style="stop-opacity:1;stop-color:#10dbff"
         offset="1"
         id="stop372" />
    </linearGradient>
    <clipPath
       clipPathUnits="userSpaceOnUse"
       id="clipPath378">
      <path
         d="m 2507.79,4039.44 c 12.53,0 22.71,10.19 22.71,22.71 0,12.53 -10.18,22.71 -22.71,22.71 -9.35,0 -17.62,-5.63 -21.08,-14.34 l -3.64,-9.15 4.25,-8.91 c 2.99,-6.29 9.94,-13.02 20.47,-13.02"
         id="path376" />
    </clipPath>
    <linearGradient
       x1="0"
       y1="0"
       x2="1"
       y2="0"
       gradientUnits="userSpaceOnUse"
       gradientTransform="matrix(474.32,0,0,-474.32,24830.7,40621.5)"
       spreadMethod="pad"
       id="linearGradient384">
      <stop
         style="stop-opacity:1;stop-color:#1050ff"
         offset="0"
         id="stop380" />
      <stop
         style="stop-opacity:1;stop-color:#10dbff"
         offset="1"
         id="stop382" />
    </linearGradient>
    <clipPath
       clipPathUnits="userSpaceOnUse"
       id="clipPath388">
      <path
         d="m 1703.47,2551.98 -7.46,-6.52 c -2.93,-2.55 -7.83,-8.16 -7.83,-17.08 0,-12.52 10.19,-22.71 22.71,-22.71 12.52,0 22.71,10.19 22.71,22.71 0,11.68 -8.73,21.4 -20.31,22.59 z"
         id="path386" />
    </clipPath>
    <linearGradient
       x1="0"
       y1="0"
       x2="1"
       y2="0"
       gradientUnits="userSpaceOnUse"
       gradientTransform="matrix(454.19,0,0,-454.19,16881.8,25288.3)"
       spreadMethod="pad"
       id="linearGradient394">
      <stop
         style="stop-opacity:1;stop-color:#1050ff"
         offset="0"
         id="stop390" />
      <stop
         style="stop-opacity:1;stop-color:#10dbff"
         offset="1"
         id="stop392" />
    </linearGradient>
    <clipPath
       clipPathUnits="userSpaceOnUse"
       id="clipPath398">
      <path
         d="m 2896.41,2267.56 -9.49,1.86 c -1.53,0.31 -3.06,0.46 -4.52,0.46 -12.53,0 -22.72,-10.18 -22.72,-22.7 0,-12.53 10.19,-22.72 22.72,-22.72 12.52,0 22.7,10.19 22.7,22.72 0,4.21 -1.14,8.19 -3.41,11.84 z"
         id="path396" />
    </clipPath>
    <linearGradient
       x1="0"
       y1="0"
       x2="1"
       y2="0"
       gradientUnits="userSpaceOnUse"
       gradientTransform="matrix(454.2,0,0,-454.2,28596.8,22471.7)"
       spreadMethod="pad"
       id="linearGradient404">
      <stop
         style="stop-opacity:1;stop-color:#1050ff"
         offset="0"
         id="stop400" />
      <stop
         style="stop-opacity:1;stop-color:#10dbff"
         offset="1"
         id="stop402" />
    </linearGradient>
    <clipPath
       clipPathUnits="userSpaceOnUse"
       id="clipPath408">
      <path
         d="m 3023.39,2561.54 c 0,-8.34 4.38,-13.81 6.99,-16.32 l 7.06,-6.81 9.91,0.53 c 12.04,0.64 21.47,10.57 21.47,22.6 0,12.52 -10.18,22.71 -22.71,22.71 -12.53,0 -22.72,-10.19 -22.72,-22.71"
         id="path406" />
    </clipPath>
    <linearGradient
       x1="0"
       y1="0"
       x2="1"
       y2="0"
       gradientUnits="userSpaceOnUse"
       gradientTransform="matrix(454.3,0,0,-454.3,30233.9,25613.3)"
       spreadMethod="pad"
       id="linearGradient414">
      <stop
         style="stop-opacity:1;stop-color:#1050ff"
         offset="0"
         id="stop410" />
      <stop
         style="stop-opacity:1;stop-color:#10dbff"
         offset="1"
         id="stop412" />
    </linearGradient>
    <clipPath
       clipPathUnits="userSpaceOnUse"
       id="clipPath418">
      <path
         d="m 3316.92,2545.87 c 0,8.95 -4.94,14.58 -7.88,17.14 l -7.47,6.47 -9.85,-1.05 c -11.53,-1.23 -20.22,-10.92 -20.22,-22.56 0,-12.52 10.18,-22.72 22.71,-22.72 12.52,0 22.71,10.2 22.71,22.72"
         id="path416" />
    </clipPath>
    <linearGradient
       x1="0"
       y1="0"
       x2="1"
       y2="0"
       gradientUnits="userSpaceOnUse"
       gradientTransform="matrix(454.2,0,0,-454.2,32715,25463.2)"
       spreadMethod="pad"
       id="linearGradient424">
      <stop
         style="stop-opacity:1;stop-color:#1050ff"
         offset="0"
         id="stop420" />
      <stop
         style="stop-opacity:1;stop-color:#10dbff"
         offset="1"
         id="stop422" />
    </linearGradient>
    <clipPath
       clipPathUnits="userSpaceOnUse"
       id="clipPath428">
      <path
         d="m 2965.35,3864.88 c 3.28,0 6.51,0.74 9.61,2.19 l 8.99,4.23 3.02,9.35 c 0.72,2.25 1.09,4.59 1.09,6.94 0,12.53 -10.18,22.72 -22.71,22.72 -12.52,0 -22.71,-10.19 -22.71,-22.72 0,-12.52 10.19,-22.71 22.71,-22.71"
         id="path426" />
    </clipPath>
    <linearGradient
       x1="0"
       y1="0"
       x2="1"
       y2="0"
       gradientUnits="userSpaceOnUse"
       gradientTransform="matrix(454.2,0,0,-454.2,29426.4,38876)"
       spreadMethod="pad"
       id="linearGradient434">
      <stop
         style="stop-opacity:1;stop-color:#1050ff"
         offset="0"
         id="stop430" />
      <stop
         style="stop-opacity:1;stop-color:#10dbff"
         offset="1"
         id="stop432" />
    </linearGradient>
    <clipPath
       clipPathUnits="userSpaceOnUse"
       id="clipPath438">
      <path
         d="m 2500,1889.25 c -12.52,0 -22.71,-10.19 -22.71,-22.72 0,-12.53 10.19,-22.71 22.71,-22.71 9.43,0 17.74,5.72 21.16,14.59 l 3.53,9.17 -4.32,8.86 c -3.02,6.19 -9.96,12.81 -20.37,12.81"
         id="path436" />
    </clipPath>
    <linearGradient
       x1="0"
       y1="0"
       x2="1"
       y2="0"
       gradientUnits="userSpaceOnUse"
       gradientTransform="matrix(474.02,0,0,-474.02,24772.9,18665.3)"
       spreadMethod="pad"
       id="linearGradient444">
      <stop
         style="stop-opacity:1;stop-color:#1050ff"
         offset="0"
         id="stop440" />
      <stop
         style="stop-opacity:1;stop-color:#10dbff"
         offset="1"
         id="stop442" />
    </linearGradient>
    <clipPath
       clipPathUnits="userSpaceOnUse"
       id="clipPath448">
      <path
         d="m 3059.76,2131.77 9.36,-3.25 c 15.12,-5.26 30.11,6.45 30.11,21.41 0,12.53 -10.18,22.72 -22.71,22.72 -12.53,0 -22.72,-10.19 -22.72,-22.72 0,-3.13 0.66,-6.2 1.96,-9.12 z"
         id="path446" />
    </clipPath>
    <linearGradient
       x1="0"
       y1="0"
       x2="1"
       y2="0"
       gradientUnits="userSpaceOnUse"
       gradientTransform="matrix(454.29,0,0,-454.29,30538,21499.4)"
       spreadMethod="pad"
       id="linearGradient454">
      <stop
         style="stop-opacity:1;stop-color:#1050ff"
         offset="0"
         id="stop450" />
      <stop
         style="stop-opacity:1;stop-color:#10dbff"
         offset="1"
         id="stop452" />
    </linearGradient>
    <clipPath
       clipPathUnits="userSpaceOnUse"
       id="clipPath458">
      <path
         d="m 1965.35,3331.44 c 0,-7.17 3.23,-12.24 5.95,-15.22 l 6.78,-7.46 10.99,-0.02 c 12.05,0.53 21.7,10.51 21.7,22.7 0,12.52 -10.19,22.71 -22.71,22.71 -12.53,0 -22.71,-10.19 -22.71,-22.71"
         id="path456" />
    </clipPath>
    <linearGradient
       x1="0"
       y1="0"
       x2="1"
       y2="0"
       gradientUnits="userSpaceOnUse"
       gradientTransform="matrix(454.188,0,0,-454.188,19653.5,33314.4)"
       spreadMethod="pad"
       id="linearGradient464">
      <stop
         style="stop-opacity:1;stop-color:#1050ff"
         offset="0"
         id="stop460" />
      <stop
         style="stop-opacity:1;stop-color:#10dbff"
         offset="1"
         id="stop462" />
    </linearGradient>
    <clipPath
       clipPathUnits="userSpaceOnUse"
       id="clipPath468">
      <path
         d="m 1900.22,3019.53 c 0,6.86 -3.08,13.3 -8.47,17.65 l -7.59,6.14 -9.87,-1.38 c -11.11,-1.56 -19.49,-11.2 -19.49,-22.41 0,-12.53 10.19,-22.71 22.71,-22.71 12.53,0 22.71,10.18 22.71,22.71"
         id="path466" />
    </clipPath>
    <linearGradient
       x1="0"
       y1="0"
       x2="1"
       y2="0"
       gradientUnits="userSpaceOnUse"
       gradientTransform="matrix(454.2,0,0,-454.2,18548,30200.7)"
       spreadMethod="pad"
       id="linearGradient474">
      <stop
         style="stop-opacity:1;stop-color:#1050ff"
         offset="0"
         id="stop470" />
      <stop
         style="stop-opacity:1;stop-color:#10dbff"
         offset="1"
         id="stop472" />
    </linearGradient>
    <clipPath
       clipPathUnits="userSpaceOnUse"
       id="clipPath478">
      <path
         d="m 2099.13,2283.46 -9.57,1.85 c -1.56,0.3 -3.04,0.45 -4.4,0.45 -12.53,0 -22.71,-10.18 -22.71,-22.71 0,-12.53 10.18,-22.72 22.71,-22.72 12.52,0 22.71,10.19 22.71,22.72 0,4.25 -1.16,8.28 -3.47,11.96 z"
         id="path476" />
    </clipPath>
    <linearGradient
       x1="0"
       y1="0"
       x2="1"
       y2="0"
       gradientUnits="userSpaceOnUse"
       gradientTransform="matrix(454.2,0,0,-454.2,20624.5,22630.5)"
       spreadMethod="pad"
       id="linearGradient484">
      <stop
         style="stop-opacity:1;stop-color:#1050ff"
         offset="0"
         id="stop480" />
      <stop
         style="stop-opacity:1;stop-color:#10dbff"
         offset="1"
         id="stop482" />
    </linearGradient>
    <clipPath
       clipPathUnits="userSpaceOnUse"
       id="clipPath488">
      <path
         d="m 2286.5,1924.4 c 0,1.61 -0.2,3.25 -0.6,5.02 l -2.18,9.62 -8.63,5.02 c -3.52,2.05 -7.34,3.09 -11.34,3.09 -12.55,0 -22.77,-10.21 -22.77,-22.75 0,-12.55 10.22,-22.77 22.77,-22.77 12.55,0 22.75,10.22 22.75,22.77"
         id="path486" />
    </clipPath>
    <linearGradient
       x1="0"
       y1="0"
       x2="1"
       y2="0"
       gradientUnits="userSpaceOnUse"
       gradientTransform="matrix(455.18,0,0,-455.18,22409.8,19243.9)"
       spreadMethod="pad"
       id="linearGradient494">
      <stop
         style="stop-opacity:1;stop-color:#1050ff"
         offset="0"
         id="stop490" />
      <stop
         style="stop-opacity:1;stop-color:#10dbff"
         offset="1"
         id="stop492" />
    </linearGradient>
    <clipPath
       clipPathUnits="userSpaceOnUse"
       id="clipPath1772-6">
      <rect
         style="opacity:1;fill:none;fill-opacity:1;stroke:#000000;stroke-width:0.507868;stroke-opacity:1"
         id="rect1774-3"
         width="19.056314"
         height="39.873463"
         x="20.14031"
         y="6.8892756" />
    </clipPath>
    <clipPath
       clipPathUnits="userSpaceOnUse"
       id="clipPath1768-2">
      <rect
         style="opacity:1;fill:none;fill-opacity:1;stroke:#000000;stroke-width:0.507868;stroke-opacity:1"
         id="rect1770-6"
         width="19.056314"
         height="39.873463"
         x="20.14031"
         y="6.8892756" />
    </clipPath>
    <clipPath
       clipPathUnits="userSpaceOnUse"
       id="clipPath1764-8">
      <rect
         style="opacity:1;fill:none;fill-opacity:1;stroke:#000000;stroke-width:0.507868;stroke-opacity:1"
         id="rect1766-9"
         width="19.056314"
         height="39.873463"
         x="20.14031"
         y="6.8892756" />
    </clipPath>
    <linearGradient
       inkscape:collect="always"
       xlink:href="#linearGradient5073"
       id="linearGradient5077"
       x1="0.33159348"
       y1="8.3138733"
       x2="16.717754"
       y2="8.3138733"
       gradientUnits="userSpaceOnUse"
       gradientTransform="matrix(1.0375252,0,0,1.0500314,-17.186387,-0.26941418)" />
  </defs>
  <g
     inkscape:label="Layer 1"
     inkscape:groupmode="layer"
     id="layer1">
    <rect
       style="opacity:1;fill:url(#linearGradient5077);fill-opacity:1;stroke:none;stroke-width:0.430991;stroke-opacity:1"
       id="rect4894"
       width="17.001057"
       height="16.775623"
       x="-16.842352"
       y="0.072602354"
       transform="rotate(-90)" />
  </g>
</svg>
